<svg xmlns="http://www.w3.org/2000/svg" xmlns:xlink="http://www.w3.org/1999/xlink" width="64" zoomAndPan="magnify" viewBox="0 0 48 48" height="64" preserveAspectRatio="xMidYMid meet" version="1.0"><defs><clipPath id="e676c1b761"><path d="M 0.488281 0 L 47.507812 0 L 47.507812 47.019531 L 0.488281 47.019531 Z M 0.488281 0 " clip-rule="nonzero"/></clipPath><clipPath id="79e3bbaced"><path d="M 2.253906 1.363281 L 47.058594 1.363281 L 47.058594 46.167969 L 2.253906 46.167969 Z M 2.253906 1.363281 " clip-rule="nonzero"/></clipPath><clipPath id="2e3cd118a2"><path d="M 24.65625 1.363281 C 12.285156 1.363281 2.253906 11.394531 2.253906 23.765625 C 2.253906 36.136719 12.285156 46.167969 24.65625 46.167969 C 37.027344 46.167969 47.058594 36.136719 47.058594 23.765625 C 47.058594 11.394531 37.027344 1.363281 24.65625 1.363281 Z M 24.65625 1.363281 " clip-rule="nonzero"/></clipPath><clipPath id="524daa8914"><path d="M 0.253906 0.363281 L 45.058594 0.363281 L 45.058594 45.167969 L 0.253906 45.167969 Z M 0.253906 0.363281 " clip-rule="nonzero"/></clipPath><clipPath id="c92f770d44"><path d="M 22.65625 0.363281 C 10.285156 0.363281 0.253906 10.394531 0.253906 22.765625 C 0.253906 35.136719 10.285156 45.167969 22.65625 45.167969 C 35.027344 45.167969 45.058594 35.136719 45.058594 22.765625 C 45.058594 10.394531 35.027344 0.363281 22.65625 0.363281 Z M 22.65625 0.363281 " clip-rule="nonzero"/></clipPath><clipPath id="2baff8a021"><rect x="0" width="46" y="0" height="46"/></clipPath><clipPath id="dc628f7a60"><path d="M 1.648438 0.640625 L 47.507812 0.640625 L 47.507812 46.476562 L 1.648438 46.476562 Z M 1.648438 0.640625 " clip-rule="nonzero"/></clipPath><clipPath id="75c201d8f3"><path d="M 30.058594 38.921875 C 29.734375 38.921875 29.46875 38.660156 29.46875 38.335938 C 29.46875 38.011719 29.734375 37.75 30.058594 37.75 C 30.386719 37.75 30.648438 38.011719 30.648438 38.335938 C 30.648438 38.660156 30.386719 38.921875 30.058594 38.921875 Z M 33.269531 36.796875 C 32.945312 36.796875 32.679688 36.535156 32.679688 36.210938 C 32.679688 35.886719 32.945312 35.625 33.269531 35.625 C 33.59375 35.625 33.859375 35.886719 33.859375 36.210938 C 33.859375 36.535156 33.59375 36.796875 33.269531 36.796875 Z M 35.910156 34.632812 C 35.585938 34.632812 35.324219 34.367188 35.324219 34.042969 C 35.324219 33.71875 35.585938 33.457031 35.910156 33.457031 C 36.238281 33.457031 36.5 33.71875 36.5 34.042969 C 36.5 34.367188 36.238281 34.632812 35.910156 34.632812 Z M 37.921875 32.484375 C 37.597656 32.484375 37.335938 32.222656 37.335938 31.898438 C 37.335938 31.574219 37.597656 31.3125 37.921875 31.3125 C 38.25 31.3125 38.511719 31.574219 38.511719 31.898438 C 38.511719 32.222656 38.25 32.484375 37.921875 32.484375 Z M 9.238281 20.652344 C 9.238281 20.652344 10.058594 19.691406 10.4375 19.226562 C 10.816406 18.765625 10.964844 18.246094 10.964844 18.246094 C 10.964844 18.246094 9.722656 19.101562 9.597656 19.542969 C 9.46875 19.984375 9.238281 20.652344 9.238281 20.652344 Z M 8.019531 21.636719 C 8.019531 21.636719 7.832031 20.925781 7.640625 19.75 C 7.453125 18.578125 6.632812 17.929688 6.632812 17.929688 C 6.632812 17.929688 7.199219 20.234375 7.472656 20.90625 C 7.746094 21.574219 8.019531 21.636719 8.019531 21.636719 Z M 9.644531 18.644531 C 9.769531 18.425781 9.960938 18.097656 10.164062 17.761719 C 10.519531 17.175781 10.902344 16.671875 10.902344 16.671875 C 10.902344 16.671875 10.542969 16.890625 10.207031 17.1875 C 9.996094 17.660156 9.808594 18.148438 9.644531 18.644531 Z M 8.566406 17.824219 C 8.566406 17.824219 8.796875 15.941406 8.609375 15.480469 C 8.609375 15.480469 8.261719 16.503906 8.335938 17.023438 C 8.410156 17.546875 8.566406 17.824219 8.566406 17.824219 Z M 10.902344 15.8125 C 11.082031 15.800781 11.753906 15.726562 12.140625 15.378906 C 12.59375 14.972656 12.746094 14.589844 12.746094 14.589844 C 12.746094 14.589844 12.351562 14.941406 11.984375 15.089844 C 11.617188 15.234375 11.492188 15.472656 11.242188 15.597656 C 11.097656 15.671875 10.988281 15.734375 10.925781 15.773438 Z M 12.078125 14.246094 C 12.078125 14.246094 12.433594 13.902344 12.726562 13.777344 C 13.019531 13.648438 13.566406 13.484375 13.566406 13.484375 C 13.566406 13.484375 13.40625 13.464844 13.203125 13.464844 C 12.988281 13.464844 12.726562 13.484375 12.5625 13.578125 C 12.238281 13.753906 12.082031 14.242188 12.082031 14.242188 Z M 10.09375 14.855469 C 10.191406 14.757812 11.046875 12.855469 10.953125 12.324219 L 10.796875 12.136719 C 10.796875 12.136719 10.78125 12.121094 10.757812 12.121094 C 10.707031 12.121094 10.613281 12.195312 10.535156 12.65625 C 10.417969 13.332031 9.980469 14.699219 9.980469 14.699219 L 10.097656 14.855469 Z M 24.660156 40.082031 C 20.078125 40.082031 15.929688 38.234375 12.925781 35.242188 C 9.925781 32.253906 8.066406 28.121094 8.066406 23.558594 C 8.066406 23.277344 8.074219 23 8.089844 22.722656 L 7.886719 22.871094 C 6.820312 22.300781 6.640625 21.316406 6.460938 20.347656 C 6.28125 19.382812 5.796875 18.179688 5.5625 17.664062 C 5.328125 17.144531 5.058594 16.480469 5.308594 16.320312 C 5.414062 16.253906 5.511719 16.210938 5.632812 16.210938 C 5.804688 16.210938 6.019531 16.296875 6.371094 16.515625 C 6.960938 16.894531 7.492188 17.785156 7.492188 17.785156 C 7.132812 16.527344 7.46875 12.589844 8.457031 12.464844 C 8.484375 12.460938 8.511719 12.460938 8.535156 12.460938 C 9.359375 12.460938 9.207031 14.230469 9.175781 14.519531 C 9.304688 13.382812 9.574219 12.265625 9.886719 11.585938 C 10.429688 10.410156 9.375 8.617188 10.371094 8.546875 C 11.78125 8.777344 11.613281 12.902344 11.613281 12.902344 L 11.949219 12.503906 C 11.675781 9.867188 14.367188 8.441406 14.894531 8.296875 C 15.417969 8.148438 16.363281 7.6875 16.636719 6.828125 C 16.910156 5.96875 17.480469 5.90625 17.480469 5.90625 C 17.488281 5.90625 17.5 5.90625 17.511719 5.90625 C 18.816406 5.90625 17.777344 7.863281 17.214844 8.785156 C 19.453125 7.664062 21.980469 7.035156 24.65625 7.035156 C 29.238281 7.035156 33.386719 8.882812 36.390625 11.875 C 39.390625 14.863281 41.25 18.996094 41.25 23.558594 C 41.25 24.839844 41.097656 26.113281 40.804688 27.351562 C 40.511719 28.589844 40.074219 29.796875 39.5 30.941406 C 39.429688 31.082031 39.292969 31.160156 39.144531 31.160156 C 39.085938 31.160156 39.027344 31.148438 38.96875 31.121094 C 38.773438 31.023438 38.695312 30.785156 38.792969 30.589844 C 39.339844 29.5 39.757812 28.351562 40.035156 27.171875 C 40.316406 25.992188 40.457031 24.78125 40.457031 23.558594 C 40.457031 19.214844 38.6875 15.277344 35.828125 12.429688 C 32.972656 9.585938 29.023438 7.824219 24.660156 7.824219 C 21.027344 7.824219 17.679688 9.042969 15.011719 11.09375 C 14.765625 11.480469 14.652344 11.753906 14.652344 11.753906 C 15.023438 11.546875 15.410156 11.488281 15.808594 11.488281 C 16.359375 11.488281 16.925781 11.605469 17.453125 11.605469 C 17.570312 11.605469 17.683594 11.597656 17.796875 11.585938 C 18.589844 11.488281 19.382812 10.6875 19.765625 10.6875 C 19.863281 10.6875 19.933594 10.738281 19.972656 10.863281 C 20.167969 11.488281 19.925781 11.417969 18.78125 12.554688 C 18.066406 13.269531 16.683594 13.402344 15.75 13.402344 C 15.199219 13.402344 14.808594 13.355469 14.808594 13.355469 C 14.808594 14.703125 11.804688 16.429688 11.804688 16.429688 C 13.09375 18.210938 9.933594 21.195312 8.929688 22.074219 C 8.882812 22.5625 8.859375 23.058594 8.859375 23.558594 C 8.859375 27.902344 10.628906 31.839844 13.484375 34.6875 C 16.34375 37.535156 20.292969 39.292969 24.65625 39.292969 C 25.28125 39.292969 25.898438 39.257812 26.511719 39.1875 C 27.132812 39.113281 27.746094 39.003906 28.34375 38.863281 C 28.375 38.855469 28.402344 38.851562 28.433594 38.851562 C 28.613281 38.851562 28.773438 38.972656 28.816406 39.15625 C 28.867188 39.367188 28.738281 39.578125 28.523438 39.628906 C 27.886719 39.78125 27.242188 39.894531 26.605469 39.96875 C 25.957031 40.046875 25.308594 40.085938 24.65625 40.085938 Z M 24.660156 45.675781 C 30.789062 45.675781 36.34375 43.199219 40.359375 39.199219 C 44.378906 35.195312 46.863281 29.667969 46.863281 23.558594 C 46.863281 17.453125 44.378906 11.921875 40.359375 7.917969 C 36.339844 3.917969 30.792969 1.441406 24.660156 1.441406 C 18.527344 1.441406 12.976562 3.917969 8.957031 7.917969 C 4.9375 11.921875 2.453125 17.453125 2.453125 23.558594 C 2.453125 29.667969 4.9375 35.195312 8.957031 39.199219 C 12.976562 43.199219 18.527344 45.675781 24.660156 45.675781 Z M 24.660156 46.476562 C 18.304688 46.476562 12.550781 43.910156 8.390625 39.765625 C 4.226562 35.617188 1.648438 29.886719 1.648438 23.558594 C 1.648438 17.230469 4.222656 11.5 8.390625 7.355469 C 12.554688 3.207031 18.304688 0.640625 24.660156 0.640625 C 31.011719 0.640625 36.765625 3.207031 40.929688 7.355469 C 45.09375 11.5 47.667969 17.230469 47.667969 23.558594 C 47.667969 29.886719 45.09375 35.617188 40.929688 39.765625 C 36.765625 43.910156 31.011719 46.476562 24.660156 46.476562 Z M 24.660156 46.476562 " clip-rule="nonzero"/></clipPath><linearGradient x1="277.57101" gradientTransform="matrix(0.094537, 0, 0, -0.0941606, -1.582015, 47.659164)" y1="12.530914" x2="277.51199" gradientUnits="userSpaceOnUse" y2="499.371038" id="526597307b"><stop stop-opacity="1" stop-color="rgb(83.139038%, 53.329468%, 8.628845%)" offset="0"/><stop stop-opacity="1" stop-color="rgb(83.139038%, 53.329468%, 8.628845%)" offset="0.0001208"/><stop stop-opacity="1" stop-color="rgb(83.139038%, 53.329468%, 8.628845%)" offset="0.015625"/><stop stop-opacity="1" stop-color="rgb(83.149719%, 53.340149%, 8.628845%)" offset="0.0234375"/><stop stop-opacity="1" stop-color="rgb(83.345032%, 53.546143%, 8.628845%)" offset="0.03125"/><stop stop-opacity="1" stop-color="rgb(83.531189%, 53.93219%, 8.628845%)" offset="0.0390625"/><stop stop-opacity="1" stop-color="rgb(83.721924%, 54.312134%, 8.628845%)" offset="0.046875"/><stop stop-opacity="1" stop-color="rgb(84.103394%, 54.693604%, 8.628845%)" offset="0.0546875"/><stop stop-opacity="1" stop-color="rgb(84.301758%, 55.073547%, 8.628845%)" offset="0.0625"/><stop stop-opacity="1" stop-color="rgb(84.509277%, 55.484009%, 8.628845%)" offset="0.0664063"/><stop stop-opacity="1" stop-color="rgb(84.709167%, 55.703735%, 8.628845%)" offset="0.0703125"/><stop stop-opacity="1" stop-color="rgb(84.712219%, 55.89447%, 8.628845%)" offset="0.078125"/><stop stop-opacity="1" stop-color="rgb(84.906006%, 56.27594%, 8.628845%)" offset="0.0859375"/><stop stop-opacity="1" stop-color="rgb(85.28595%, 56.655884%, 8.628845%)" offset="0.09375"/><stop stop-opacity="1" stop-color="rgb(85.482788%, 57.037354%, 8.444214%)" offset="0.101563"/><stop stop-opacity="1" stop-color="rgb(85.693359%, 57.447815%, 8.250427%)" offset="0.105469"/><stop stop-opacity="1" stop-color="rgb(85.897827%, 57.667542%, 8.239746%)" offset="0.109375"/><stop stop-opacity="1" stop-color="rgb(86.082458%, 57.858276%, 8.239746%)" offset="0.117188"/><stop stop-opacity="1" stop-color="rgb(86.268616%, 58.23822%, 8.239746%)" offset="0.125"/><stop stop-opacity="1" stop-color="rgb(86.463928%, 58.61969%, 8.239746%)" offset="0.132813"/><stop stop-opacity="1" stop-color="rgb(86.663818%, 59.005737%, 8.239746%)" offset="0.140625"/><stop stop-opacity="1" stop-color="rgb(86.87439%, 59.414673%, 8.239746%)" offset="0.144531"/><stop stop-opacity="1" stop-color="rgb(87.080383%, 59.629822%, 8.239746%)" offset="0.148438"/><stop stop-opacity="1" stop-color="rgb(87.265015%, 59.820557%, 8.239746%)" offset="0.15625"/><stop stop-opacity="1" stop-color="rgb(87.451172%, 60.202026%, 8.239746%)" offset="0.164063"/><stop stop-opacity="1" stop-color="rgb(87.641907%, 60.58197%, 8.239746%)" offset="0.171875"/><stop stop-opacity="1" stop-color="rgb(87.835693%, 60.968018%, 8.239746%)" offset="0.179688"/><stop stop-opacity="1" stop-color="rgb(88.026428%, 61.170959%, 8.239746%)" offset="0.1875"/><stop stop-opacity="1" stop-color="rgb(88.421631%, 61.381531%, 8.239746%)" offset="0.191406"/><stop stop-opacity="1" stop-color="rgb(88.62915%, 61.584473%, 8.239746%)" offset="0.195313"/><stop stop-opacity="1" stop-color="rgb(88.632202%, 61.775208%, 8.239746%)" offset="0.203125"/><stop stop-opacity="1" stop-color="rgb(88.825989%, 62.155151%, 8.239746%)" offset="0.210938"/><stop stop-opacity="1" stop-color="rgb(89.205933%, 62.541199%, 8.239746%)" offset="0.21875"/><stop stop-opacity="1" stop-color="rgb(89.402771%, 62.927246%, 8.239746%)" offset="0.226563"/><stop stop-opacity="1" stop-color="rgb(89.604187%, 63.33313%, 8.239746%)" offset="0.230469"/><stop stop-opacity="1" stop-color="rgb(89.7995%, 63.548279%, 8.239746%)" offset="0.234375"/><stop stop-opacity="1" stop-color="rgb(89.804077%, 63.737488%, 8.239746%)" offset="0.242188"/><stop stop-opacity="1" stop-color="rgb(90.003967%, 64.118958%, 8.239746%)" offset="0.25"/><stop stop-opacity="1" stop-color="rgb(90.390015%, 64.505005%, 8.044434%)" offset="0.257813"/><stop stop-opacity="1" stop-color="rgb(90.585327%, 64.889526%, 7.844543%)" offset="0.265625"/><stop stop-opacity="1" stop-color="rgb(90.783691%, 65.29541%, 7.839966%)" offset="0.269531"/><stop stop-opacity="1" stop-color="rgb(90.979004%, 65.510559%, 7.839966%)" offset="0.273438"/><stop stop-opacity="1" stop-color="rgb(90.985107%, 65.701294%, 7.839966%)" offset="0.28125"/><stop stop-opacity="1" stop-color="rgb(91.181946%, 66.081238%, 7.839966%)" offset="0.289063"/><stop stop-opacity="1" stop-color="rgb(91.56189%, 66.467285%, 7.839966%)" offset="0.296875"/><stop stop-opacity="1" stop-color="rgb(91.755676%, 66.853333%, 7.839966%)" offset="0.304688"/><stop stop-opacity="1" stop-color="rgb(91.946411%, 67.234802%, 7.839966%)" offset="0.3125"/><stop stop-opacity="1" stop-color="rgb(92.341614%, 67.63916%, 7.839966%)" offset="0.316406"/><stop stop-opacity="1" stop-color="rgb(92.549133%, 67.854309%, 7.839966%)" offset="0.320313"/><stop stop-opacity="1" stop-color="rgb(92.552185%, 68.049622%, 7.839966%)" offset="0.328125"/><stop stop-opacity="1" stop-color="rgb(92.745972%, 68.435669%, 7.839966%)" offset="0.335938"/><stop stop-opacity="1" stop-color="rgb(92.938232%, 68.815613%, 7.839966%)" offset="0.34375"/><stop stop-opacity="1" stop-color="rgb(93.122864%, 69.197083%, 7.839966%)" offset="0.351563"/><stop stop-opacity="1" stop-color="rgb(93.518066%, 69.602966%, 7.839966%)" offset="0.355469"/><stop stop-opacity="1" stop-color="rgb(93.728638%, 69.818115%, 7.839966%)" offset="0.359375"/><stop stop-opacity="1" stop-color="rgb(93.733215%, 70.013428%, 7.839966%)" offset="0.367188"/><stop stop-opacity="1" stop-color="rgb(93.928528%, 70.397949%, 7.839966%)" offset="0.375"/><stop stop-opacity="1" stop-color="rgb(94.119263%, 70.779419%, 7.839966%)" offset="0.382813"/><stop stop-opacity="1" stop-color="rgb(94.30542%, 71.160889%, 7.839966%)" offset="0.390625"/><stop stop-opacity="1" stop-color="rgb(94.694519%, 71.554565%, 7.839966%)" offset="0.394531"/><stop stop-opacity="1" stop-color="rgb(94.898987%, 71.759033%, 7.839966%)" offset="0.398438"/><stop stop-opacity="1" stop-color="rgb(94.90509%, 71.765137%, 7.833862%)" offset="0.40625"/><stop stop-opacity="1" stop-color="rgb(95.101929%, 71.966553%, 7.63855%)" offset="0.414063"/><stop stop-opacity="1" stop-color="rgb(95.487976%, 72.3526%, 7.449341%)" offset="0.421875"/><stop stop-opacity="1" stop-color="rgb(95.68634%, 72.73407%, 7.449341%)" offset="0.429688"/><stop stop-opacity="1" stop-color="rgb(95.872498%, 73.114014%, 7.449341%)" offset="0.4375"/><stop stop-opacity="1" stop-color="rgb(96.075439%, 73.524475%, 7.449341%)" offset="0.441406"/><stop stop-opacity="1" stop-color="rgb(96.095276%, 73.744202%, 7.449341%)" offset="0.445313"/><stop stop-opacity="1" stop-color="rgb(96.284485%, 73.934937%, 7.449341%)" offset="0.453125"/><stop stop-opacity="1" stop-color="rgb(96.665955%, 74.31488%, 7.449341%)" offset="0.460938"/><stop stop-opacity="1" stop-color="rgb(96.858215%, 74.69635%, 7.449341%)" offset="0.46875"/><stop stop-opacity="1" stop-color="rgb(97.042847%, 75.07782%, 7.449341%)" offset="0.476563"/><stop stop-opacity="1" stop-color="rgb(97.25647%, 75.497437%, 7.467651%)" offset="0.480469"/><stop stop-opacity="1" stop-color="rgb(97.286987%, 75.726318%, 7.485962%)" offset="0.484375"/><stop stop-opacity="1" stop-color="rgb(97.467041%, 75.91095%, 7.672119%)" offset="0.492188"/><stop stop-opacity="1" stop-color="rgb(97.648621%, 76.283264%, 8.43811%)" offset="0.496094"/><stop stop-opacity="1" stop-color="rgb(97.648621%, 76.469421%, 9.01947%)" offset="0.5"/><stop stop-opacity="1" stop-color="rgb(97.648621%, 76.663208%, 9.399414%)" offset="0.503906"/><stop stop-opacity="1" stop-color="rgb(97.648621%, 76.858521%, 9.780884%)" offset="0.507813"/><stop stop-opacity="1" stop-color="rgb(97.648621%, 77.035522%, 10.166931%)" offset="0.511719"/><stop stop-opacity="1" stop-color="rgb(97.648621%, 77.212524%, 10.552979%)" offset="0.515625"/><stop stop-opacity="1" stop-color="rgb(97.648621%, 77.252197%, 11.177063%)" offset="0.519531"/><stop stop-opacity="1" stop-color="rgb(97.648621%, 77.293396%, 11.802673%)" offset="0.523438"/><stop stop-opacity="1" stop-color="rgb(97.648621%, 77.470398%, 12.187195%)" offset="0.527344"/><stop stop-opacity="1" stop-color="rgb(97.648621%, 77.648926%, 12.573242%)" offset="0.53125"/><stop stop-opacity="1" stop-color="rgb(97.648621%, 77.844238%, 12.954712%)" offset="0.535156"/><stop stop-opacity="1" stop-color="rgb(97.648621%, 78.039551%, 13.336182%)" offset="0.539063"/><stop stop-opacity="1" stop-color="rgb(97.648621%, 78.227234%, 13.720703%)" offset="0.542969"/><stop stop-opacity="1" stop-color="rgb(97.648621%, 78.416443%, 14.10675%)" offset="0.546875"/><stop stop-opacity="1" stop-color="rgb(97.648621%, 78.422546%, 14.682007%)" offset="0.550781"/><stop stop-opacity="1" stop-color="rgb(97.648621%, 78.42865%, 15.258789%)" offset="0.554688"/><stop stop-opacity="1" stop-color="rgb(97.648621%, 78.623962%, 15.644836%)" offset="0.558594"/><stop stop-opacity="1" stop-color="rgb(97.648621%, 78.819275%, 16.030884%)" offset="0.5625"/><stop stop-opacity="1" stop-color="rgb(97.648621%, 79.019165%, 16.474915%)" offset="0.566406"/><stop stop-opacity="1" stop-color="rgb(97.648621%, 79.219055%, 16.920471%)" offset="0.570313"/><stop stop-opacity="1" stop-color="rgb(97.654724%, 79.414368%, 17.485046%)" offset="0.574219"/><stop stop-opacity="1" stop-color="rgb(97.660828%, 79.60968%, 18.051147%)" offset="0.578125"/><stop stop-opacity="1" stop-color="rgb(97.850037%, 79.60968%, 18.431091%)" offset="0.582031"/><stop stop-opacity="1" stop-color="rgb(98.039246%, 79.60968%, 18.812561%)" offset="0.585938"/><stop stop-opacity="1" stop-color="rgb(98.039246%, 79.803467%, 19.198608%)" offset="0.589844"/><stop stop-opacity="1" stop-color="rgb(98.039246%, 79.998779%, 19.584656%)" offset="0.59375"/><stop stop-opacity="1" stop-color="rgb(98.039246%, 80.172729%, 20.13855%)" offset="0.597656"/><stop stop-opacity="1" stop-color="rgb(98.039246%, 80.34668%, 20.69397%)" offset="0.601563"/><stop stop-opacity="1" stop-color="rgb(98.039246%, 80.386353%, 21.150208%)" offset="0.605469"/><stop stop-opacity="1" stop-color="rgb(98.039246%, 80.426025%, 21.606445%)" offset="0.609375"/><stop stop-opacity="1" stop-color="rgb(98.039246%, 80.612183%, 21.986389%)" offset="0.613281"/><stop stop-opacity="1" stop-color="rgb(98.039246%, 80.79834%, 22.367859%)" offset="0.617188"/><stop stop-opacity="1" stop-color="rgb(98.039246%, 80.989075%, 22.947693%)" offset="0.621094"/><stop stop-opacity="1" stop-color="rgb(98.039246%, 81.17981%, 23.529053%)" offset="0.625"/><stop stop-opacity="1" stop-color="rgb(98.039246%, 81.364441%, 23.908997%)" offset="0.628906"/><stop stop-opacity="1" stop-color="rgb(98.039246%, 81.550598%, 24.290466%)" offset="0.632813"/><stop stop-opacity="1" stop-color="rgb(98.039246%, 81.559753%, 24.676514%)" offset="0.636719"/><stop stop-opacity="1" stop-color="rgb(98.039246%, 81.568909%, 25.062561%)" offset="0.640625"/><stop stop-opacity="1" stop-color="rgb(98.039246%, 81.785583%, 25.514221%)" offset="0.644531"/><stop stop-opacity="1" stop-color="rgb(98.039246%, 82.002258%, 25.965881%)" offset="0.648438"/><stop stop-opacity="1" stop-color="rgb(98.039246%, 82.174683%, 26.524353%)" offset="0.652344"/><stop stop-opacity="1" stop-color="rgb(98.039246%, 82.348633%, 27.084351%)" offset="0.65625"/><stop stop-opacity="1" stop-color="rgb(98.039246%, 82.548523%, 27.464294%)" offset="0.660156"/><stop stop-opacity="1" stop-color="rgb(98.039246%, 82.749939%, 27.845764%)" offset="0.664063"/><stop stop-opacity="1" stop-color="rgb(98.039246%, 82.749939%, 28.231812%)" offset="0.667969"/><stop stop-opacity="1" stop-color="rgb(98.039246%, 82.749939%, 28.617859%)" offset="0.671875"/><stop stop-opacity="1" stop-color="rgb(98.039246%, 82.943726%, 29.193115%)" offset="0.675781"/><stop stop-opacity="1" stop-color="rgb(98.039246%, 83.139038%, 29.768372%)" offset="0.679688"/><stop stop-opacity="1" stop-color="rgb(98.039246%, 83.309937%, 30.154419%)" offset="0.683594"/><stop stop-opacity="1" stop-color="rgb(98.039246%, 83.480835%, 30.540466%)" offset="0.6875"/><stop stop-opacity="1" stop-color="rgb(98.039246%, 83.699036%, 30.969238%)" offset="0.691406"/><stop stop-opacity="1" stop-color="rgb(98.039246%, 83.918762%, 31.399536%)" offset="0.695313"/><stop stop-opacity="1" stop-color="rgb(98.039246%, 83.924866%, 31.980896%)" offset="0.699219"/><stop stop-opacity="1" stop-color="rgb(98.039246%, 83.930969%, 32.562256%)" offset="0.703125"/><stop stop-opacity="1" stop-color="rgb(98.039246%, 84.120178%, 32.9422%)" offset="0.707031"/><stop stop-opacity="1" stop-color="rgb(98.039246%, 84.309387%, 33.323669%)" offset="0.710938"/><stop stop-opacity="1" stop-color="rgb(98.039246%, 84.49707%, 33.709717%)" offset="0.714844"/><stop stop-opacity="1" stop-color="rgb(98.039246%, 84.684753%, 34.095764%)" offset="0.71875"/><stop stop-opacity="1" stop-color="rgb(98.039246%, 84.870911%, 34.649658%)" offset="0.722656"/><stop stop-opacity="1" stop-color="rgb(98.039246%, 85.057068%, 35.203552%)" offset="0.726563"/><stop stop-opacity="1" stop-color="rgb(98.039246%, 85.096741%, 35.65979%)" offset="0.730469"/><stop stop-opacity="1" stop-color="rgb(98.039246%, 85.136414%, 36.116028%)" offset="0.734375"/><stop stop-opacity="1" stop-color="rgb(98.039246%, 85.31189%, 36.495972%)" offset="0.738281"/><stop stop-opacity="1" stop-color="rgb(98.039246%, 85.488892%, 36.877441%)" offset="0.742188"/><stop stop-opacity="1" stop-color="rgb(98.039246%, 85.684204%, 37.263489%)" offset="0.746094"/><stop stop-opacity="1" stop-color="rgb(98.039246%, 85.879517%, 37.649536%)" offset="0.75"/><stop stop-opacity="1" stop-color="rgb(98.039246%, 85.879517%, 38.224792%)" offset="0.753906"/><stop stop-opacity="1" stop-color="rgb(98.039246%, 85.879517%, 38.801575%)" offset="0.757813"/><stop stop-opacity="1" stop-color="rgb(98.216248%, 86.073303%, 39.186096%)" offset="0.761719"/><stop stop-opacity="1" stop-color="rgb(98.39325%, 86.268616%, 39.572144%)" offset="0.765625"/><stop stop-opacity="1" stop-color="rgb(98.41156%, 86.468506%, 40.023804%)" offset="0.769531"/><stop stop-opacity="1" stop-color="rgb(98.429871%, 86.669922%, 40.475464%)" offset="0.773438"/><stop stop-opacity="1" stop-color="rgb(98.429871%, 86.863708%, 41.033936%)" offset="0.777344"/><stop stop-opacity="1" stop-color="rgb(98.429871%, 87.059021%, 41.593933%)" offset="0.78125"/><stop stop-opacity="1" stop-color="rgb(98.429871%, 87.062073%, 41.973877%)" offset="0.785156"/><stop stop-opacity="1" stop-color="rgb(98.429871%, 87.065125%, 42.355347%)" offset="0.789063"/><stop stop-opacity="1" stop-color="rgb(98.429871%, 87.257385%, 42.741394%)" offset="0.792969"/><stop stop-opacity="1" stop-color="rgb(98.429871%, 87.449646%, 43.127441%)" offset="0.796875"/><stop stop-opacity="1" stop-color="rgb(98.429871%, 87.628174%, 43.687439%)" offset="0.800781"/><stop stop-opacity="1" stop-color="rgb(98.429871%, 87.808228%, 44.248962%)" offset="0.804688"/><stop stop-opacity="1" stop-color="rgb(98.429871%, 87.998962%, 44.648743%)" offset="0.808594"/><stop stop-opacity="1" stop-color="rgb(98.429871%, 88.189697%, 45.050049%)" offset="0.8125"/><stop stop-opacity="1" stop-color="rgb(98.429871%, 88.22937%, 45.478821%)" offset="0.816406"/><stop stop-opacity="1" stop-color="rgb(98.429871%, 88.270569%, 45.909119%)" offset="0.820313"/><stop stop-opacity="1" stop-color="rgb(98.429871%, 88.449097%, 46.490479%)" offset="0.824219"/><stop stop-opacity="1" stop-color="rgb(98.429871%, 88.62915%, 47.071838%)" offset="0.828125"/><stop stop-opacity="1" stop-color="rgb(98.429871%, 88.821411%, 47.451782%)" offset="0.832031"/><stop stop-opacity="1" stop-color="rgb(98.429871%, 89.013672%, 47.833252%)" offset="0.835938"/><stop stop-opacity="1" stop-color="rgb(98.429871%, 89.198303%, 48.219299%)" offset="0.839844"/><stop stop-opacity="1" stop-color="rgb(98.429871%, 89.38446%, 48.605347%)" offset="0.84375"/><stop stop-opacity="1" stop-color="rgb(98.429871%, 89.396667%, 48.985291%)" offset="0.847656"/><stop stop-opacity="1" stop-color="rgb(98.429871%, 89.408875%, 49.36676%)" offset="0.851563"/><stop stop-opacity="1" stop-color="rgb(98.429871%, 89.604187%, 49.995422%)" offset="0.855469"/><stop stop-opacity="1" stop-color="rgb(98.429871%, 89.7995%, 50.62561%)" offset="0.859375"/><stop stop-opacity="1" stop-color="rgb(98.429871%, 89.99939%, 51.005554%)" offset="0.863281"/><stop stop-opacity="1" stop-color="rgb(98.429871%, 90.19928%, 51.387024%)" offset="0.867188"/><stop stop-opacity="1" stop-color="rgb(98.429871%, 90.19928%, 51.773071%)" offset="0.871094"/><stop stop-opacity="1" stop-color="rgb(98.429871%, 90.19928%, 52.159119%)" offset="0.875"/><stop stop-opacity="1" stop-color="rgb(98.429871%, 90.394592%, 52.734375%)" offset="0.878906"/><stop stop-opacity="1" stop-color="rgb(98.429871%, 90.589905%, 53.311157%)" offset="0.882813"/><stop stop-opacity="1" stop-color="rgb(98.429871%, 90.783691%, 53.697205%)" offset="0.886719"/><stop stop-opacity="1" stop-color="rgb(98.429871%, 90.979004%, 54.083252%)" offset="0.890625"/><stop stop-opacity="1" stop-color="rgb(98.429871%, 91.174316%, 54.512024%)" offset="0.894531"/><stop stop-opacity="1" stop-color="rgb(98.429871%, 91.369629%, 54.942322%)" offset="0.898438"/><stop stop-opacity="1" stop-color="rgb(98.429871%, 91.381836%, 55.522156%)" offset="0.902344"/><stop stop-opacity="1" stop-color="rgb(98.429871%, 91.394043%, 56.103516%)" offset="0.90625"/><stop stop-opacity="1" stop-color="rgb(98.429871%, 91.5802%, 56.483459%)" offset="0.910156"/><stop stop-opacity="1" stop-color="rgb(98.429871%, 91.766357%, 56.864929%)" offset="0.914063"/><stop stop-opacity="1" stop-color="rgb(98.429871%, 91.96167%, 57.250977%)" offset="0.917969"/><stop stop-opacity="1" stop-color="rgb(98.429871%, 92.158508%, 57.637024%)" offset="0.921875"/><stop stop-opacity="1" stop-color="rgb(98.429871%, 92.338562%, 58.197021%)" offset="0.925781"/><stop stop-opacity="1" stop-color="rgb(98.429871%, 92.518616%, 58.758545%)" offset="0.929688"/><stop stop-opacity="1" stop-color="rgb(98.429871%, 92.533875%, 59.159851%)" offset="0.933594"/><stop stop-opacity="1" stop-color="rgb(98.429871%, 92.549133%, 59.561157%)" offset="0.9375"/><stop stop-opacity="1" stop-color="rgb(98.429871%, 92.744446%, 59.989929%)" offset="0.941406"/><stop stop-opacity="1" stop-color="rgb(98.429871%, 92.939758%, 60.420227%)" offset="0.945313"/><stop stop-opacity="1" stop-color="rgb(98.623657%, 93.133545%, 60.812378%)" offset="0.949219"/><stop stop-opacity="1" stop-color="rgb(98.81897%, 93.328857%, 61.204529%)" offset="0.953125"/><stop stop-opacity="1" stop-color="rgb(98.81897%, 93.525696%, 61.773682%)" offset="0.957031"/><stop stop-opacity="1" stop-color="rgb(98.81897%, 93.722534%, 62.342834%)" offset="0.960938"/><stop stop-opacity="1" stop-color="rgb(98.81897%, 93.725586%, 62.728882%)" offset="0.964844"/><stop stop-opacity="1" stop-color="rgb(98.81897%, 93.728638%, 63.114929%)" offset="0.96875"/><stop stop-opacity="1" stop-color="rgb(98.81897%, 93.92395%, 63.494873%)" offset="0.972656"/><stop stop-opacity="1" stop-color="rgb(98.81897%, 94.119263%, 63.876343%)" offset="0.976563"/><stop stop-opacity="1" stop-color="rgb(98.81897%, 94.314575%, 64.506531%)" offset="0.980469"/><stop stop-opacity="1" stop-color="rgb(98.81897%, 94.509888%, 65.136719%)" offset="0.984375"/><stop stop-opacity="1" stop-color="rgb(98.81897%, 94.703674%, 65.516663%)" offset="0.988281"/><stop stop-opacity="1" stop-color="rgb(98.81897%, 94.898987%, 65.898132%)" offset="0.992188"/><stop stop-opacity="1" stop-color="rgb(98.81897%, 94.898987%, 66.282654%)" offset="0.996094"/><stop stop-opacity="1" stop-color="rgb(98.81897%, 94.898987%, 66.668701%)" offset="1"/></linearGradient><clipPath id="90104362a4"><path d="M 13.402344 14.894531 L 36.90625 14.894531 L 36.90625 33.601562 L 13.402344 33.601562 Z M 13.402344 14.894531 " clip-rule="nonzero"/></clipPath><clipPath id="73327de39a"><path d="M 28.574219 32.996094 C 28.816406 32.996094 29.414062 32.671875 29.832031 32.3125 C 30.015625 32.160156 30.105469 32.054688 30.195312 31.910156 L 30.183594 31.890625 L 30.140625 31.882812 C 30.035156 31.882812 29.691406 32.023438 29.351562 32.207031 C 28.742188 32.546875 28.445312 32.75 28.398438 32.882812 C 28.371094 32.964844 28.425781 32.996094 28.574219 32.996094 Z M 20.21875 31.503906 C 20.664062 31.503906 21.234375 31.171875 21.351562 30.839844 C 21.46875 30.503906 20.914062 30.191406 20.195312 30.191406 C 20.121094 30.191406 20.0625 30.195312 19.945312 30.222656 C 19.894531 30.347656 19.851562 30.453125 19.832031 30.515625 C 19.757812 30.71875 19.699219 30.953125 19.605469 31.425781 C 19.773438 31.46875 19.996094 31.503906 20.21875 31.503906 Z M 23.558594 30.589844 C 23.695312 30.589844 23.9375 30.46875 24.089844 30.316406 C 24.242188 30.164062 24.457031 29.832031 24.519531 29.652344 L 24.539062 29.597656 L 24.574219 29.445312 C 24.628906 29.242188 24.621094 29.179688 24.546875 29.175781 C 24.421875 29.175781 24.191406 29.363281 23.980469 29.632812 C 23.824219 29.832031 23.5625 30.269531 23.472656 30.527344 L 23.5625 30.585938 Z M 27.707031 30.589844 C 27.84375 30.589844 28.085938 30.46875 28.238281 30.316406 C 28.390625 30.164062 28.605469 29.832031 28.667969 29.652344 L 28.6875 29.597656 L 28.722656 29.445312 C 28.777344 29.242188 28.769531 29.179688 28.695312 29.175781 C 28.570312 29.175781 28.339844 29.363281 28.128906 29.632812 C 27.972656 29.832031 27.710938 30.269531 27.621094 30.527344 L 27.710938 30.585938 Z M 32.128906 31.609375 C 32.257812 31.609375 32.449219 31.429688 32.746094 31.027344 C 32.957031 30.746094 33.191406 30.335938 33.28125 30.082031 C 33.3125 29.988281 33.296875 29.9375 33.234375 29.863281 C 33.25 29.804688 33.28125 29.785156 33.519531 29.671875 L 33.523438 29.660156 C 33.59375 29.453125 33.519531 29.09375 33.402344 29.09375 C 33.3125 29.09375 33.144531 29.214844 32.933594 29.433594 C 32.527344 29.863281 32.234375 30.320312 32.074219 30.773438 C 31.910156 31.238281 31.933594 31.609375 32.128906 31.609375 Z M 28.4375 33.601562 C 28.214844 33.601562 27.992188 33.496094 27.910156 33.355469 C 27.847656 33.234375 27.839844 32.964844 27.894531 32.8125 C 27.902344 32.792969 27.941406 32.71875 27.988281 32.617188 L 28 32.59375 C 28.039062 32.472656 28.359375 32.242188 28.742188 32.0625 C 29.171875 31.847656 29.65625 31.703125 30.046875 31.65625 L 30.148438 31.644531 L 30.269531 31.5625 L 30.25 31.503906 C 30.214844 31.40625 30.050781 31.34375 29.796875 31.34375 L 29.691406 31.351562 C 29.488281 31.363281 29.332031 31.378906 29.273438 31.378906 C 29.105469 31.378906 29.019531 31.304688 28.984375 31.132812 C 28.949219 30.984375 28.960938 30.828125 29.011719 30.679688 C 29.070312 30.515625 29.113281 30.480469 29.355469 30.449219 C 29.640625 30.410156 30.109375 30.128906 30.609375 29.707031 C 30.796875 29.539062 30.953125 29.351562 31.007812 29.207031 L 30.90625 29.195312 C 30.65625 29.195312 30.390625 29.289062 30 29.511719 C 29.707031 29.679688 29.488281 29.859375 29.449219 29.964844 L 29.449219 30.015625 L 29.4375 30.070312 L 29.382812 30.089844 C 29.339844 30.089844 29.246094 30.035156 29.195312 29.976562 C 29.140625 29.921875 29.125 29.84375 29.152344 29.769531 L 29.191406 29.6875 L 29.199219 29.65625 L 29.203125 29.636719 C 29.214844 29.605469 29.34375 29.484375 29.492188 29.363281 C 29.925781 29.007812 30.605469 28.734375 31.042969 28.734375 C 31.507812 28.734375 31.820312 29.03125 31.707031 29.355469 C 31.5625 29.753906 31.195312 30.09375 30.105469 30.835938 L 30.179688 30.871094 C 30.570312 31.078125 30.695312 31.167969 30.777344 31.320312 C 30.867188 31.492188 30.878906 31.679688 30.808594 31.886719 C 30.71875 32.132812 30.449219 32.46875 30.125 32.753906 C 29.9375 32.914062 29.609375 33.140625 29.347656 33.292969 C 28.960938 33.511719 28.699219 33.597656 28.4375 33.597656 Z M 32.035156 32 C 31.316406 32 31.070312 31.507812 31.375 30.652344 C 31.550781 30.15625 31.828125 29.691406 32.210938 29.253906 C 32.554688 28.863281 32.703125 28.734375 32.855469 28.714844 L 33.09375 28.710938 L 33.230469 28.722656 L 33.378906 28.730469 C 34.007812 28.75 34.214844 28.957031 34.222656 29.558594 L 34.441406 29.632812 L 34.457031 29.664062 C 34.460938 29.691406 34.441406 29.796875 34.414062 29.878906 L 34.355469 29.949219 C 34.324219 29.984375 34.304688 30.015625 34.25 30.148438 L 34.125 30.46875 L 34.058594 30.660156 C 33.820312 31.324219 33.78125 31.46875 33.851562 31.628906 L 33.90625 31.660156 C 34.015625 31.660156 34.285156 31.476562 34.511719 31.308594 L 34.484375 31.410156 C 34.421875 31.582031 34.226562 31.808594 34.058594 31.886719 C 33.988281 31.921875 33.847656 31.945312 33.75 31.945312 C 33.457031 31.945312 33.324219 31.808594 33.226562 31.410156 C 32.890625 31.695312 32.757812 31.792969 32.621094 31.867188 C 32.460938 31.945312 32.226562 32 32.039062 32 Z M 23.257812 32.046875 C 23.035156 32.046875 22.78125 31.953125 22.640625 31.828125 C 22.378906 31.589844 22.359375 31.125 22.582031 30.5 C 22.753906 30.015625 23.035156 29.558594 23.472656 29.066406 C 23.78125 28.714844 23.914062 28.597656 24.003906 28.597656 L 24.046875 28.601562 L 24.070312 28.601562 L 24.128906 28.597656 L 24.558594 28.53125 C 24.710938 28.53125 24.78125 28.582031 24.863281 28.78125 L 24.890625 28.835938 L 24.941406 28.886719 C 25.023438 28.953125 25.039062 28.988281 25.0625 29.085938 C 25.101562 29.273438 25.097656 29.320312 25.058594 29.425781 C 24.851562 30.015625 24.492188 30.511719 24.125 30.710938 C 23.953125 30.8125 23.722656 30.851562 23.351562 30.851562 C 23.191406 31.390625 23.265625 31.714844 23.542969 31.714844 C 23.796875 31.714844 24.234375 31.496094 24.578125 31.175781 L 24.644531 31.148438 L 24.648438 31.214844 C 24.628906 31.269531 24.515625 31.410156 24.367188 31.5625 C 24.0625 31.867188 23.652344 32.046875 23.257812 32.046875 Z M 27.40625 32.046875 C 27.183594 32.046875 26.929688 31.953125 26.789062 31.828125 C 26.527344 31.589844 26.507812 31.125 26.730469 30.5 C 26.902344 30.015625 27.183594 29.558594 27.621094 29.066406 C 27.929688 28.714844 28.0625 28.597656 28.152344 28.597656 L 28.195312 28.601562 L 28.21875 28.601562 L 28.277344 28.597656 L 28.707031 28.53125 C 28.859375 28.53125 28.929688 28.582031 29.011719 28.78125 L 29.039062 28.835938 L 29.089844 28.886719 C 29.171875 28.953125 29.1875 28.988281 29.210938 29.085938 C 29.25 29.273438 29.246094 29.320312 29.207031 29.425781 C 28.996094 30.015625 28.636719 30.511719 28.273438 30.710938 C 28.101562 30.8125 27.871094 30.851562 27.496094 30.851562 C 27.339844 31.390625 27.414062 31.714844 27.6875 31.714844 C 27.945312 31.714844 28.382812 31.496094 28.722656 31.175781 L 28.792969 31.148438 L 28.792969 31.214844 C 28.777344 31.269531 28.660156 31.410156 28.515625 31.5625 C 28.210938 31.867188 27.800781 32.046875 27.40625 32.046875 Z M 25.832031 30.320312 C 26.433594 29.570312 26.742188 29.027344 27.019531 28.242188 C 27.140625 27.914062 27.199219 27.574219 27.148438 27.574219 C 27.113281 27.574219 27.070312 27.621094 26.976562 27.757812 C 26.625 28.285156 26.273438 29.007812 26.019531 29.71875 C 25.972656 29.855469 25.929688 29.988281 25.832031 30.320312 Z M 20.59375 29.425781 C 21.113281 29.425781 21.84375 28.933594 22.003906 28.476562 C 22.125 28.140625 22.03125 27.71875 21.796875 27.527344 C 21.652344 27.40625 21.480469 27.367188 21.152344 27.363281 C 20.949219 27.878906 20.902344 27.992188 20.648438 28.558594 C 20.488281 28.914062 20.464844 28.96875 20.296875 29.378906 C 20.4375 29.40625 20.535156 29.425781 20.59375 29.425781 Z M 19.871094 32.039062 C 19.234375 32.039062 19.003906 31.996094 18.648438 31.796875 C 18.597656 31.390625 18.65625 31.070312 18.921875 30.320312 C 19.179688 29.597656 19.445312 28.992188 19.886719 28.144531 C 20.070312 27.792969 20.070312 27.785156 20.25 27.414062 C 19.324219 27.554688 18.320312 28.183594 18.121094 28.75 C 18.019531 29.027344 18.148438 29.21875 18.550781 29.472656 L 18.507812 29.484375 C 18.40625 29.484375 18.382812 29.480469 18.039062 29.367188 C 17.71875 29.265625 17.597656 29.167969 17.519531 28.949219 C 17.472656 28.820312 17.46875 28.664062 17.507812 28.550781 C 17.550781 28.429688 17.710938 28.191406 17.863281 28.011719 C 18.203125 27.625 18.722656 27.320312 19.417969 27.101562 C 19.957031 26.929688 20.535156 26.828125 21.003906 26.828125 C 22.375 26.828125 23.21875 27.601562 22.882812 28.542969 C 22.800781 28.773438 22.5625 29.097656 22.308594 29.332031 C 22.097656 29.523438 21.875 29.667969 21.558594 29.808594 L 21.710938 29.960938 C 22.125 30.378906 22.242188 30.664062 22.128906 30.984375 C 22.027344 31.269531 21.867188 31.480469 21.636719 31.632812 C 21.179688 31.925781 20.695312 32.039062 19.867188 32.039062 Z M 25.367188 32.039062 C 25.085938 32.039062 24.867188 31.84375 24.789062 31.507812 C 24.726562 31.230469 24.867188 30.472656 25.125 29.75 C 25.378906 29.035156 25.734375 28.296875 26.097656 27.714844 L 26.460938 27.128906 C 26.609375 26.898438 26.84375 26.738281 27.03125 26.738281 C 27.203125 26.738281 27.28125 26.777344 27.429688 26.929688 L 27.515625 27.015625 C 27.660156 27.148438 27.671875 27.203125 27.671875 27.460938 C 27.671875 27.59375 27.542969 28.078125 27.417969 28.429688 C 27.28125 28.816406 26.949219 29.417969 26.628906 29.863281 C 26.421875 30.15625 26.171875 30.453125 25.65625 31.015625 C 25.589844 31.382812 25.671875 31.582031 25.867188 31.582031 C 25.972656 31.582031 26.027344 31.554688 26.265625 31.402344 L 26.40625 31.347656 L 26.398438 31.394531 C 26.371094 31.476562 26.269531 31.585938 26.144531 31.6875 C 25.777344 31.964844 25.777344 31.964844 25.648438 32 L 25.363281 32.039062 Z M 26.660156 24.726562 C 26.796875 24.726562 27.035156 24.609375 27.1875 24.457031 C 27.339844 24.304688 27.558594 23.972656 27.621094 23.792969 L 27.640625 23.738281 L 27.675781 23.585938 C 27.726562 23.378906 27.722656 23.320312 27.648438 23.316406 C 27.523438 23.316406 27.289062 23.503906 27.078125 23.773438 C 26.921875 23.972656 26.664062 24.410156 26.570312 24.667969 Z M 23.207031 25.828125 C 23.414062 25.765625 23.632812 25.605469 23.894531 25.324219 C 24.222656 24.980469 24.492188 24.527344 24.671875 24.023438 C 24.785156 23.707031 24.789062 23.527344 24.6875 23.40625 C 24.601562 23.3125 24.515625 23.269531 24.390625 23.269531 C 24.292969 23.269531 24.222656 23.3125 24.085938 23.464844 C 23.769531 23.804688 23.425781 24.363281 23.289062 24.753906 C 23.09375 25.296875 23.070312 25.496094 23.164062 25.800781 Z M 26.355469 26.1875 C 26.136719 26.1875 25.878906 26.09375 25.742188 25.96875 C 25.480469 25.730469 25.460938 25.265625 25.683594 24.640625 C 25.855469 24.15625 26.136719 23.699219 26.570312 23.207031 C 26.878906 22.855469 27.015625 22.738281 27.105469 22.738281 L 27.148438 22.742188 L 27.167969 22.742188 L 27.230469 22.738281 L 27.660156 22.671875 C 27.808594 22.671875 27.882812 22.722656 27.960938 22.921875 L 27.988281 22.976562 L 28.042969 23.027344 C 28.125 23.09375 28.136719 23.128906 28.164062 23.226562 C 28.199219 23.414062 28.195312 23.460938 28.160156 23.566406 C 27.949219 24.15625 27.589844 24.65625 27.222656 24.851562 C 27.050781 24.953125 26.820312 24.992188 26.449219 24.992188 C 26.289062 25.53125 26.363281 25.855469 26.640625 25.855469 C 26.894531 25.855469 27.332031 25.636719 27.675781 25.316406 L 27.742188 25.292969 L 27.746094 25.355469 C 27.726562 25.410156 27.609375 25.550781 27.464844 25.703125 C 27.160156 26.007812 26.75 26.1875 26.355469 26.1875 Z M 24.84375 26.308594 C 24.59375 26.308594 24.460938 26.128906 24.328125 25.625 C 23.871094 26.023438 23.582031 26.167969 23.261719 26.167969 C 22.960938 26.167969 22.726562 25.988281 22.601562 25.671875 C 22.515625 25.453125 22.539062 25.164062 22.679688 24.769531 C 22.902344 24.144531 23.21875 23.640625 23.640625 23.25 C 23.980469 22.9375 24.382812 22.742188 24.707031 22.742188 C 24.871094 22.742188 24.957031 22.796875 25.058594 22.96875 C 25.265625 22.5 25.453125 22.066406 25.519531 21.921875 C 25.574219 21.800781 25.617188 21.699219 25.644531 21.621094 C 25.679688 21.523438 25.683594 21.476562 25.648438 21.421875 L 25.625 21.34375 L 25.6875 21.210938 C 25.820312 21.175781 25.898438 21.164062 25.984375 21.164062 L 26.464844 21.191406 C 26.625 21.367188 26.652344 21.421875 26.613281 21.527344 L 26.570312 21.609375 C 26.40625 21.851562 25.875 23.109375 25.53125 24.042969 L 25.5 24.148438 L 25.15625 25.191406 C 24.976562 25.753906 24.90625 26.179688 25.007812 26.179688 L 25.078125 26.148438 L 25.074219 26.179688 C 24.941406 26.292969 24.917969 26.304688 24.84375 26.304688 Z M 34.238281 19.503906 Z M 29.863281 19.414062 Z M 33.691406 19.820312 C 33.753906 19.820312 33.914062 19.710938 34.234375 19.433594 C 34.230469 19.21875 34.285156 18.957031 34.386719 18.664062 C 34.503906 18.339844 34.667969 18.027344 34.894531 17.707031 C 34.8125 17.742188 34.664062 17.757812 34.367188 17.78125 L 34.226562 17.796875 C 34.082031 18.144531 34.019531 18.304688 33.949219 18.5 C 33.652344 19.335938 33.558594 19.820312 33.691406 19.820312 Z M 34.894531 17.707031 Z M 28.796875 18.75 C 28.933594 18.75 29.171875 18.628906 29.324219 18.476562 C 29.476562 18.324219 29.695312 17.992188 29.757812 17.8125 L 29.777344 17.761719 L 29.8125 17.609375 C 29.863281 17.402344 29.859375 17.34375 29.785156 17.335938 C 29.660156 17.335938 29.425781 17.527344 29.214844 17.792969 C 29.058594 17.992188 28.800781 18.433594 28.707031 18.691406 Z M 35.367188 18.75 C 35.503906 18.75 35.742188 18.628906 35.894531 18.476562 C 36.046875 18.324219 36.261719 17.992188 36.328125 17.8125 L 36.34375 17.761719 L 36.378906 17.609375 C 36.433594 17.402344 36.429688 17.34375 36.351562 17.335938 C 36.230469 17.335938 35.996094 17.527344 35.785156 17.792969 C 35.628906 17.992188 35.367188 18.433594 35.277344 18.691406 Z M 24.734375 19.820312 C 25.105469 19.820312 25.558594 19.34375 25.777344 18.71875 C 25.957031 18.214844 26.054688 17.570312 25.992188 17.210938 L 25.929688 17.1875 C 25.839844 17.1875 25.554688 17.433594 25.316406 17.722656 C 25.207031 17.863281 24.953125 18.226562 24.734375 18.566406 C 24.566406 18.839844 24.46875 19.035156 24.355469 19.355469 C 24.28125 19.566406 24.269531 19.636719 24.304688 19.722656 C 24.40625 19.734375 24.429688 19.742188 24.519531 19.773438 C 24.621094 19.808594 24.675781 19.820312 24.734375 19.820312 Z M 26.964844 20.207031 C 26.675781 20.207031 26.464844 19.953125 26.445312 19.582031 C 26.441406 19.398438 26.535156 18.96875 26.667969 18.589844 C 26.707031 18.484375 26.816406 18.234375 26.96875 17.875 C 27.011719 17.796875 27.097656 17.582031 27.199219 17.304688 L 27.210938 17.230469 C 27.230469 17.179688 27.421875 17.097656 27.574219 17.078125 L 27.886719 17.039062 L 27.992188 17.09375 C 28.066406 17.144531 28.109375 17.246094 28.074219 17.34375 L 28.007812 17.457031 C 27.855469 17.703125 27.457031 18.589844 27.277344 19.085938 C 27.078125 19.65625 27.042969 19.953125 27.199219 19.953125 L 27.277344 19.902344 C 27.382812 19.8125 27.441406 19.773438 27.464844 19.773438 L 27.492188 19.773438 C 27.347656 20.074219 27.183594 20.207031 26.96875 20.207031 Z M 22.785156 20.363281 C 22.566406 20.363281 22.425781 20.144531 22.433594 19.792969 C 22.4375 19.46875 22.527344 19.105469 22.769531 18.382812 C 22.554688 18.621094 22.433594 18.777344 22.03125 19.355469 L 21.742188 19.769531 L 21.695312 19.847656 C 21.625 19.988281 21.59375 20.015625 21.492188 20.015625 C 21.328125 20.015625 21.199219 19.925781 21.078125 19.734375 C 21.042969 19.675781 21.039062 19.640625 21.058594 19.515625 C 21.085938 19.382812 21.148438 19.148438 21.207031 18.992188 L 21.371094 18.578125 L 21.46875 18.359375 C 21.3125 18.5 21.210938 18.617188 21.097656 18.792969 L 20.585938 19.566406 C 20.515625 19.679688 20.300781 19.953125 20.214844 20.046875 L 20.191406 20.070312 C 20.144531 20.132812 20.074219 20.164062 20.007812 20.164062 C 19.8125 20.164062 19.636719 19.957031 19.621094 19.707031 C 19.613281 19.480469 19.667969 19.238281 19.808594 18.832031 C 19.972656 18.375 20.085938 18.074219 20.15625 17.921875 L 20.539062 17.144531 L 20.585938 17.03125 L 20.597656 16.972656 L 20.609375 16.945312 C 20.628906 16.886719 20.6875 16.855469 20.800781 16.832031 L 20.875 16.820312 L 20.996094 16.78125 C 21.027344 16.78125 21.078125 16.800781 21.140625 16.847656 L 21.390625 17.011719 C 21.40625 17.019531 21.40625 17.058594 21.378906 17.140625 L 21.328125 17.246094 C 21.144531 17.609375 21.027344 17.882812 20.933594 18.148438 L 20.851562 18.386719 L 21.632812 17.410156 C 21.738281 17.265625 21.855469 17.210938 22.097656 17.210938 C 22.308594 17.210938 22.464844 17.277344 22.488281 17.363281 C 22.507812 17.445312 22.488281 17.53125 22.394531 17.789062 C 22.375 17.847656 22.355469 17.902344 22.3125 18 C 22.242188 18.160156 22.195312 18.277344 22.179688 18.324219 C 22.152344 18.398438 22.128906 18.492188 22.089844 18.617188 L 23.214844 17.230469 C 23.328125 17.097656 23.347656 17.078125 23.425781 17.058594 C 23.472656 17.039062 23.652344 17.011719 23.703125 17.011719 C 23.863281 17.011719 23.929688 17.183594 23.863281 17.378906 L 23.851562 17.410156 L 23.425781 18.246094 C 23.257812 18.566406 23.164062 18.796875 23 19.253906 C 22.933594 19.441406 22.882812 19.699219 22.863281 19.90625 C 22.851562 20.0625 22.863281 20.136719 22.917969 20.136719 L 22.96875 20.125 L 23.152344 20.011719 C 22.988281 20.25 22.871094 20.363281 22.785156 20.363281 Z M 30.242188 20.265625 C 30.078125 20.265625 29.976562 20.21875 29.898438 20.113281 C 29.796875 19.972656 29.769531 19.921875 29.757812 19.800781 L 29.804688 19.742188 L 29.832031 19.609375 C 29.839844 19.542969 29.851562 19.480469 29.863281 19.414062 C 29.824219 19.480469 29.722656 19.601562 29.601562 19.726562 C 29.296875 20.035156 28.886719 20.210938 28.492188 20.210938 C 28.269531 20.210938 28.015625 20.121094 27.878906 19.992188 C 27.617188 19.753906 27.597656 19.289062 27.820312 18.664062 C 27.992188 18.179688 28.269531 17.722656 28.707031 17.230469 C 29.015625 16.878906 29.148438 16.761719 29.242188 16.761719 L 29.285156 16.769531 L 29.304688 16.769531 L 29.367188 16.761719 L 29.796875 16.695312 C 29.945312 16.695312 30.019531 16.75 30.097656 16.949219 L 30.125 17 L 30.179688 17.054688 C 30.261719 17.121094 30.273438 17.152344 30.296875 17.25 C 30.335938 17.4375 30.332031 17.484375 30.296875 17.589844 C 30.085938 18.179688 29.726562 18.679688 29.359375 18.878906 C 29.1875 18.976562 28.957031 19.015625 28.585938 19.015625 C 28.425781 19.554688 28.5 19.878906 28.777344 19.878906 C 29.03125 19.878906 29.46875 19.660156 29.8125 19.339844 L 29.878906 19.316406 L 29.878906 19.339844 L 29.972656 19.015625 C 30.171875 18.453125 30.496094 17.742188 30.894531 16.972656 L 30.90625 16.917969 L 30.917969 16.878906 L 30.972656 16.859375 L 31.054688 16.832031 C 31.15625 16.800781 31.3125 16.765625 31.351562 16.765625 C 31.449219 16.765625 31.53125 16.800781 31.558594 16.847656 L 31.585938 16.886719 L 31.621094 16.898438 C 31.707031 16.925781 31.757812 16.992188 31.722656 17.085938 L 31.6875 17.15625 C 31.660156 17.191406 31.59375 17.34375 31.507812 17.570312 L 31.316406 18.074219 C 31.285156 18.152344 31.273438 18.207031 31.25 18.324219 C 31.847656 17.570312 32.195312 17.164062 32.320312 17.085938 C 32.378906 17.050781 32.609375 17.003906 32.761719 17.003906 L 32.839844 17.042969 L 32.894531 17.0625 L 32.894531 17.164062 C 32.894531 17.363281 32.84375 17.617188 32.765625 17.835938 C 32.742188 17.902344 32.679688 18.046875 32.445312 18.578125 C 32.367188 18.757812 32.308594 18.902344 32.269531 19.015625 C 32.148438 19.359375 32.097656 19.613281 32.113281 19.773438 L 32.234375 19.613281 L 32.265625 19.652344 L 32.230469 19.773438 C 32.136719 20.03125 32.042969 20.152344 31.90625 20.152344 L 31.863281 20.117188 L 31.796875 20.03125 L 31.773438 20.011719 C 31.472656 19.792969 31.503906 19.335938 31.894531 18.214844 C 31.75 18.324219 31.65625 18.464844 31.242188 19.140625 C 31.003906 19.539062 30.878906 19.746094 30.78125 19.871094 C 30.667969 20.023438 30.644531 20.058594 30.589844 20.171875 L 30.539062 20.203125 C 30.480469 20.238281 30.34375 20.265625 30.242188 20.265625 Z M 18.394531 18.84375 C 18.417969 18.5 18.441406 18.28125 18.503906 17.851562 C 18.628906 16.988281 18.625 16.972656 18.65625 16.617188 C 18.054688 17.53125 17.796875 17.871094 17.027344 18.75 C 17.222656 18.746094 17.386719 18.746094 17.472656 18.746094 C 17.871094 18.746094 18.027344 18.765625 18.394531 18.84375 Z M 27.960938 16.667969 C 27.632812 16.667969 27.429688 16.394531 27.535156 16.097656 C 27.570312 15.992188 27.636719 15.878906 27.703125 15.804688 C 27.761719 15.734375 27.84375 15.699219 28.003906 15.679688 L 28.5 15.605469 L 28.609375 15.605469 C 28.703125 15.605469 28.800781 15.648438 28.84375 15.707031 C 28.875 15.746094 28.875 15.800781 28.84375 15.90625 C 28.835938 15.945312 28.8125 16.054688 28.785156 16.167969 C 28.511719 16.492188 28.226562 16.667969 27.960938 16.667969 Z M 35.0625 20.210938 C 34.839844 20.210938 34.585938 20.121094 34.449219 19.992188 C 34.324219 19.878906 34.253906 19.714844 34.238281 19.503906 C 34.171875 19.648438 34.070312 19.792969 33.945312 19.917969 C 33.824219 20.03125 33.53125 20.179688 33.421875 20.179688 C 33.289062 20.179688 33.167969 20.097656 33.035156 19.917969 C 32.945312 19.800781 32.90625 19.558594 32.921875 19.304688 C 32.941406 18.964844 33.03125 18.617188 33.335938 17.75 C 33.097656 17.730469 32.964844 17.625 33.015625 17.492188 C 33.039062 17.417969 33.148438 17.296875 33.207031 17.296875 L 33.292969 17.3125 C 33.316406 17.316406 33.355469 17.316406 33.441406 17.316406 L 33.511719 17.304688 C 33.875 16.542969 34.148438 15.929688 34.191406 15.8125 C 34.210938 15.757812 34.21875 15.699219 34.21875 15.605469 L 34.230469 15.550781 C 34.253906 15.492188 34.542969 15.417969 34.75 15.417969 C 34.941406 15.417969 35.097656 15.507812 35.160156 15.644531 C 35.183594 15.703125 35.171875 15.855469 35.121094 15.996094 C 35.113281 16.015625 35.0625 16.105469 34.992188 16.21875 C 34.898438 16.371094 34.894531 16.375 34.464844 17.273438 C 34.5625 17.273438 34.605469 17.285156 34.835938 17.390625 C 34.957031 17.449219 35.011719 17.492188 35.003906 17.5625 L 35.277344 17.230469 C 35.585938 16.878906 35.722656 16.761719 35.8125 16.761719 L 35.855469 16.769531 L 35.875 16.769531 L 35.9375 16.761719 L 36.367188 16.695312 C 36.515625 16.695312 36.589844 16.75 36.667969 16.949219 L 36.695312 17 L 36.75 17.054688 C 36.832031 17.121094 36.84375 17.152344 36.867188 17.25 C 36.90625 17.4375 36.902344 17.484375 36.867188 17.589844 C 36.65625 18.179688 36.296875 18.679688 35.929688 18.878906 C 35.757812 18.976562 35.527344 19.015625 35.15625 19.015625 C 35 19.554688 35.070312 19.878906 35.347656 19.878906 C 35.601562 19.878906 36.039062 19.660156 36.382812 19.339844 L 36.449219 19.316406 L 36.453125 19.382812 C 36.433594 19.433594 36.320312 19.574219 36.171875 19.726562 C 35.867188 20.03125 35.457031 20.210938 35.066406 20.210938 Z M 24.789062 20.238281 C 24.695312 20.238281 24.644531 20.21875 24.5 20.132812 C 24.40625 20.078125 24.371094 20.066406 24.28125 20.058594 L 24.191406 20.074219 L 24.003906 20.105469 C 23.898438 20.105469 23.820312 20.066406 23.660156 19.921875 L 23.589844 19.875 L 23.574219 19.867188 L 23.554688 19.808594 L 23.519531 19.648438 C 23.453125 19.464844 23.527344 19.058594 23.707031 18.546875 C 23.847656 18.148438 23.964844 17.863281 24.222656 17.28125 C 24.640625 16.34375 24.785156 16.046875 25.273438 15.242188 L 25.292969 15.234375 C 25.308594 15.234375 25.398438 15.222656 25.515625 15.203125 L 25.589844 15.195312 L 25.792969 15.214844 C 26.023438 15.25 26.082031 15.34375 25.972656 15.652344 L 25.476562 16.609375 C 25.449219 16.664062 25.371094 16.847656 25.324219 16.976562 L 25.363281 17.066406 L 25.480469 17.015625 C 25.695312 16.914062 25.804688 16.882812 25.941406 16.882812 C 26.261719 16.882812 26.375 16.894531 26.445312 16.941406 C 26.558594 17.019531 26.59375 17.179688 26.589844 17.527344 C 26.585938 17.9375 26.496094 18.429688 26.363281 18.804688 C 26.109375 19.515625 25.316406 20.238281 24.789062 20.238281 Z M 14.230469 20.558594 C 13.890625 20.558594 13.667969 20.398438 13.488281 20.019531 C 13.402344 19.832031 13.402344 19.574219 13.496094 19.308594 C 13.660156 18.84375 14.152344 18.273438 14.382812 18.273438 C 14.464844 18.273438 14.546875 18.433594 14.507812 18.546875 L 14.480469 18.566406 C 14.355469 18.605469 14.355469 18.605469 14.144531 19.101562 C 14.097656 19.222656 14.054688 19.695312 14.078125 19.878906 C 14.09375 19.992188 14.15625 20.070312 14.226562 20.070312 C 14.320312 20.070312 14.527344 19.980469 14.78125 19.820312 C 14.972656 19.699219 15.140625 19.558594 15.441406 19.28125 C 15.078125 19.234375 14.957031 19.070312 15.078125 18.730469 L 15.121094 18.710938 L 15.203125 18.691406 L 15.238281 18.683594 C 15.257812 18.683594 15.296875 18.703125 15.421875 18.773438 L 15.523438 18.777344 L 15.96875 18.8125 C 16.359375 18.472656 16.660156 18.140625 17.261719 17.402344 C 17.796875 16.746094 18.65625 15.433594 18.707031 15.195312 C 18.792969 14.996094 18.890625 14.894531 19.03125 14.894531 C 19.070312 14.894531 19.164062 14.910156 19.289062 14.941406 C 19.316406 14.949219 19.394531 14.957031 19.507812 14.96875 C 19.890625 15.015625 20.035156 15.082031 20.074219 15.234375 L 20.125 15.367188 C 20.027344 15.585938 19.957031 15.75 19.914062 15.863281 C 19.75 16.328125 19.371094 18.035156 19.222656 19.035156 C 19.132812 19.582031 19.125 19.859375 19.210938 19.859375 L 19.28125 19.847656 L 19.273438 19.898438 C 19.234375 20.011719 19.03125 20.160156 18.914062 20.160156 C 18.730469 20.160156 18.613281 20.085938 18.542969 19.914062 C 18.457031 19.695312 18.410156 19.480469 18.308594 19.230469 L 18.214844 19.222656 C 18.121094 19.222656 17.988281 19.230469 17.621094 19.261719 C 17.160156 19.296875 17.066406 19.300781 16.433594 19.347656 L 16.382812 19.394531 C 15.742188 19.945312 15.644531 20.019531 15.246094 20.257812 C 14.929688 20.449219 14.558594 20.554688 14.230469 20.554688 Z M 14.230469 20.558594 " clip-rule="nonzero"/></clipPath><linearGradient x1="282.85999" gradientTransform="matrix(0.094537, 0, 0, -0.0941606, -1.582015, 47.659164)" y1="149.28958" x2="282.841" gradientUnits="userSpaceOnUse" y2="347.96222" id="60eacad149"><stop stop-opacity="1" stop-color="rgb(83.139038%, 53.329468%, 8.628845%)" offset="0"/><stop stop-opacity="1" stop-color="rgb(83.139038%, 53.329468%, 8.628845%)" offset="0.000119623"/><stop stop-opacity="1" stop-color="rgb(83.139038%, 53.329468%, 8.628845%)" offset="0.015625"/><stop stop-opacity="1" stop-color="rgb(83.149719%, 53.340149%, 8.628845%)" offset="0.0234375"/><stop stop-opacity="1" stop-color="rgb(83.345032%, 53.546143%, 8.628845%)" offset="0.03125"/><stop stop-opacity="1" stop-color="rgb(83.531189%, 53.93219%, 8.628845%)" offset="0.0390625"/><stop stop-opacity="1" stop-color="rgb(83.72345%, 54.312134%, 8.628845%)" offset="0.046875"/><stop stop-opacity="1" stop-color="rgb(84.103394%, 54.693604%, 8.628845%)" offset="0.0546875"/><stop stop-opacity="1" stop-color="rgb(84.301758%, 55.075073%, 8.628845%)" offset="0.0625"/><stop stop-opacity="1" stop-color="rgb(84.509277%, 55.485535%, 8.628845%)" offset="0.0664062"/><stop stop-opacity="1" stop-color="rgb(84.709167%, 55.705261%, 8.628845%)" offset="0.0703125"/><stop stop-opacity="1" stop-color="rgb(84.712219%, 55.89447%, 8.628845%)" offset="0.078125"/><stop stop-opacity="1" stop-color="rgb(84.906006%, 56.27594%, 8.628845%)" offset="0.0859375"/><stop stop-opacity="1" stop-color="rgb(85.28595%, 56.65741%, 8.628845%)" offset="0.09375"/><stop stop-opacity="1" stop-color="rgb(85.482788%, 57.037354%, 8.444214%)" offset="0.101562"/><stop stop-opacity="1" stop-color="rgb(85.693359%, 57.447815%, 8.248901%)" offset="0.105469"/><stop stop-opacity="1" stop-color="rgb(85.897827%, 57.667542%, 8.239746%)" offset="0.109375"/><stop stop-opacity="1" stop-color="rgb(86.082458%, 57.858276%, 8.239746%)" offset="0.117188"/><stop stop-opacity="1" stop-color="rgb(86.268616%, 58.23822%, 8.239746%)" offset="0.125"/><stop stop-opacity="1" stop-color="rgb(86.465454%, 58.61969%, 8.239746%)" offset="0.132813"/><stop stop-opacity="1" stop-color="rgb(86.665344%, 59.005737%, 8.239746%)" offset="0.140625"/><stop stop-opacity="1" stop-color="rgb(86.87439%, 59.416199%, 8.239746%)" offset="0.144531"/><stop stop-opacity="1" stop-color="rgb(87.080383%, 59.631348%, 8.239746%)" offset="0.148438"/><stop stop-opacity="1" stop-color="rgb(87.265015%, 59.820557%, 8.239746%)" offset="0.15625"/><stop stop-opacity="1" stop-color="rgb(87.451172%, 60.202026%, 8.239746%)" offset="0.164062"/><stop stop-opacity="1" stop-color="rgb(87.643433%, 60.58197%, 8.239746%)" offset="0.171875"/><stop stop-opacity="1" stop-color="rgb(87.835693%, 60.968018%, 8.239746%)" offset="0.179688"/><stop stop-opacity="1" stop-color="rgb(88.026428%, 61.170959%, 8.239746%)" offset="0.1875"/><stop stop-opacity="1" stop-color="rgb(88.421631%, 61.381531%, 8.239746%)" offset="0.191406"/><stop stop-opacity="1" stop-color="rgb(88.62915%, 61.584473%, 8.239746%)" offset="0.195312"/><stop stop-opacity="1" stop-color="rgb(88.632202%, 61.775208%, 8.239746%)" offset="0.203125"/><stop stop-opacity="1" stop-color="rgb(88.825989%, 62.155151%, 8.239746%)" offset="0.210938"/><stop stop-opacity="1" stop-color="rgb(89.205933%, 62.541199%, 8.239746%)" offset="0.21875"/><stop stop-opacity="1" stop-color="rgb(89.402771%, 62.927246%, 8.239746%)" offset="0.226563"/><stop stop-opacity="1" stop-color="rgb(89.604187%, 63.33313%, 8.239746%)" offset="0.230469"/><stop stop-opacity="1" stop-color="rgb(89.7995%, 63.548279%, 8.239746%)" offset="0.234375"/><stop stop-opacity="1" stop-color="rgb(89.804077%, 63.737488%, 8.239746%)" offset="0.242188"/><stop stop-opacity="1" stop-color="rgb(90.003967%, 64.118958%, 8.239746%)" offset="0.25"/><stop stop-opacity="1" stop-color="rgb(90.390015%, 64.505005%, 8.044434%)" offset="0.257812"/><stop stop-opacity="1" stop-color="rgb(90.585327%, 64.891052%, 7.844543%)" offset="0.265625"/><stop stop-opacity="1" stop-color="rgb(90.783691%, 65.29541%, 7.839966%)" offset="0.269531"/><stop stop-opacity="1" stop-color="rgb(90.979004%, 65.510559%, 7.839966%)" offset="0.273438"/><stop stop-opacity="1" stop-color="rgb(90.985107%, 65.701294%, 7.839966%)" offset="0.28125"/><stop stop-opacity="1" stop-color="rgb(91.181946%, 66.081238%, 7.839966%)" offset="0.289063"/><stop stop-opacity="1" stop-color="rgb(91.56189%, 66.467285%, 7.839966%)" offset="0.296875"/><stop stop-opacity="1" stop-color="rgb(91.755676%, 66.853333%, 7.839966%)" offset="0.304688"/><stop stop-opacity="1" stop-color="rgb(91.946411%, 67.234802%, 7.839966%)" offset="0.3125"/><stop stop-opacity="1" stop-color="rgb(92.341614%, 67.63916%, 7.839966%)" offset="0.316406"/><stop stop-opacity="1" stop-color="rgb(92.549133%, 67.854309%, 7.839966%)" offset="0.320313"/><stop stop-opacity="1" stop-color="rgb(92.552185%, 68.049622%, 7.839966%)" offset="0.328125"/><stop stop-opacity="1" stop-color="rgb(92.745972%, 68.435669%, 7.839966%)" offset="0.335938"/><stop stop-opacity="1" stop-color="rgb(92.938232%, 68.817139%, 7.839966%)" offset="0.34375"/><stop stop-opacity="1" stop-color="rgb(93.122864%, 69.197083%, 7.839966%)" offset="0.351562"/><stop stop-opacity="1" stop-color="rgb(93.518066%, 69.602966%, 7.839966%)" offset="0.355469"/><stop stop-opacity="1" stop-color="rgb(93.728638%, 69.818115%, 7.839966%)" offset="0.359375"/><stop stop-opacity="1" stop-color="rgb(93.733215%, 70.013428%, 7.839966%)" offset="0.367188"/><stop stop-opacity="1" stop-color="rgb(93.928528%, 70.397949%, 7.839966%)" offset="0.375"/><stop stop-opacity="1" stop-color="rgb(94.119263%, 70.779419%, 7.839966%)" offset="0.382813"/><stop stop-opacity="1" stop-color="rgb(94.30542%, 71.160889%, 7.839966%)" offset="0.390625"/><stop stop-opacity="1" stop-color="rgb(94.694519%, 71.554565%, 7.839966%)" offset="0.394531"/><stop stop-opacity="1" stop-color="rgb(94.898987%, 71.759033%, 7.839966%)" offset="0.398438"/><stop stop-opacity="1" stop-color="rgb(94.90509%, 71.765137%, 7.832336%)" offset="0.40625"/><stop stop-opacity="1" stop-color="rgb(95.101929%, 71.966553%, 7.637024%)" offset="0.414063"/><stop stop-opacity="1" stop-color="rgb(95.487976%, 72.3526%, 7.449341%)" offset="0.421875"/><stop stop-opacity="1" stop-color="rgb(95.68634%, 72.73407%, 7.449341%)" offset="0.429688"/><stop stop-opacity="1" stop-color="rgb(95.872498%, 73.114014%, 7.449341%)" offset="0.4375"/><stop stop-opacity="1" stop-color="rgb(96.075439%, 73.524475%, 7.449341%)" offset="0.441406"/><stop stop-opacity="1" stop-color="rgb(96.095276%, 73.744202%, 7.449341%)" offset="0.445313"/><stop stop-opacity="1" stop-color="rgb(96.284485%, 73.934937%, 7.449341%)" offset="0.453125"/><stop stop-opacity="1" stop-color="rgb(96.665955%, 74.31488%, 7.449341%)" offset="0.460938"/><stop stop-opacity="1" stop-color="rgb(96.858215%, 74.69635%, 7.449341%)" offset="0.46875"/><stop stop-opacity="1" stop-color="rgb(97.042847%, 75.07782%, 7.449341%)" offset="0.476563"/><stop stop-opacity="1" stop-color="rgb(97.25647%, 75.497437%, 7.467651%)" offset="0.480469"/><stop stop-opacity="1" stop-color="rgb(97.286987%, 75.726318%, 7.485962%)" offset="0.484375"/><stop stop-opacity="1" stop-color="rgb(97.467041%, 75.91095%, 7.672119%)" offset="0.492188"/><stop stop-opacity="1" stop-color="rgb(97.648621%, 76.283264%, 8.43811%)" offset="0.496094"/><stop stop-opacity="1" stop-color="rgb(97.648621%, 76.469421%, 9.01947%)" offset="0.5"/><stop stop-opacity="1" stop-color="rgb(97.648621%, 76.663208%, 9.399414%)" offset="0.503906"/><stop stop-opacity="1" stop-color="rgb(97.648621%, 76.858521%, 9.780884%)" offset="0.507812"/><stop stop-opacity="1" stop-color="rgb(97.648621%, 77.035522%, 10.166931%)" offset="0.511719"/><stop stop-opacity="1" stop-color="rgb(97.648621%, 77.212524%, 10.552979%)" offset="0.515625"/><stop stop-opacity="1" stop-color="rgb(97.648621%, 77.252197%, 11.177063%)" offset="0.519531"/><stop stop-opacity="1" stop-color="rgb(97.648621%, 77.293396%, 11.802673%)" offset="0.523438"/><stop stop-opacity="1" stop-color="rgb(97.648621%, 77.470398%, 12.187195%)" offset="0.527344"/><stop stop-opacity="1" stop-color="rgb(97.648621%, 77.648926%, 12.573242%)" offset="0.53125"/><stop stop-opacity="1" stop-color="rgb(97.648621%, 77.844238%, 12.954712%)" offset="0.535156"/><stop stop-opacity="1" stop-color="rgb(97.648621%, 78.039551%, 13.336182%)" offset="0.539062"/><stop stop-opacity="1" stop-color="rgb(97.648621%, 78.227234%, 13.720703%)" offset="0.542969"/><stop stop-opacity="1" stop-color="rgb(97.648621%, 78.416443%, 14.10675%)" offset="0.546875"/><stop stop-opacity="1" stop-color="rgb(97.648621%, 78.422546%, 14.682007%)" offset="0.550781"/><stop stop-opacity="1" stop-color="rgb(97.648621%, 78.42865%, 15.258789%)" offset="0.554687"/><stop stop-opacity="1" stop-color="rgb(97.648621%, 78.623962%, 15.644836%)" offset="0.558594"/><stop stop-opacity="1" stop-color="rgb(97.648621%, 78.819275%, 16.030884%)" offset="0.5625"/><stop stop-opacity="1" stop-color="rgb(97.648621%, 79.019165%, 16.474915%)" offset="0.566406"/><stop stop-opacity="1" stop-color="rgb(97.648621%, 79.219055%, 16.920471%)" offset="0.570312"/><stop stop-opacity="1" stop-color="rgb(97.654724%, 79.414368%, 17.485046%)" offset="0.574219"/><stop stop-opacity="1" stop-color="rgb(97.660828%, 79.60968%, 18.051147%)" offset="0.578125"/><stop stop-opacity="1" stop-color="rgb(97.850037%, 79.60968%, 18.431091%)" offset="0.582031"/><stop stop-opacity="1" stop-color="rgb(98.039246%, 79.60968%, 18.812561%)" offset="0.585938"/><stop stop-opacity="1" stop-color="rgb(98.039246%, 79.803467%, 19.198608%)" offset="0.589844"/><stop stop-opacity="1" stop-color="rgb(98.039246%, 79.998779%, 19.584656%)" offset="0.59375"/><stop stop-opacity="1" stop-color="rgb(98.039246%, 80.172729%, 20.13855%)" offset="0.597656"/><stop stop-opacity="1" stop-color="rgb(98.039246%, 80.34668%, 20.69397%)" offset="0.601562"/><stop stop-opacity="1" stop-color="rgb(98.039246%, 80.386353%, 21.150208%)" offset="0.605469"/><stop stop-opacity="1" stop-color="rgb(98.039246%, 80.426025%, 21.606445%)" offset="0.609375"/><stop stop-opacity="1" stop-color="rgb(98.039246%, 80.612183%, 21.986389%)" offset="0.613281"/><stop stop-opacity="1" stop-color="rgb(98.039246%, 80.79834%, 22.367859%)" offset="0.617188"/><stop stop-opacity="1" stop-color="rgb(98.039246%, 80.989075%, 22.947693%)" offset="0.621094"/><stop stop-opacity="1" stop-color="rgb(98.039246%, 81.17981%, 23.529053%)" offset="0.625"/><stop stop-opacity="1" stop-color="rgb(98.039246%, 81.364441%, 23.908997%)" offset="0.628906"/><stop stop-opacity="1" stop-color="rgb(98.039246%, 81.550598%, 24.290466%)" offset="0.632812"/><stop stop-opacity="1" stop-color="rgb(98.039246%, 81.559753%, 24.676514%)" offset="0.636719"/><stop stop-opacity="1" stop-color="rgb(98.039246%, 81.568909%, 25.062561%)" offset="0.640625"/><stop stop-opacity="1" stop-color="rgb(98.039246%, 81.785583%, 25.514221%)" offset="0.644531"/><stop stop-opacity="1" stop-color="rgb(98.039246%, 82.002258%, 25.965881%)" offset="0.648437"/><stop stop-opacity="1" stop-color="rgb(98.039246%, 82.174683%, 26.524353%)" offset="0.652344"/><stop stop-opacity="1" stop-color="rgb(98.039246%, 82.348633%, 27.084351%)" offset="0.65625"/><stop stop-opacity="1" stop-color="rgb(98.039246%, 82.548523%, 27.464294%)" offset="0.660156"/><stop stop-opacity="1" stop-color="rgb(98.039246%, 82.749939%, 27.845764%)" offset="0.664062"/><stop stop-opacity="1" stop-color="rgb(98.039246%, 82.749939%, 28.230286%)" offset="0.667969"/><stop stop-opacity="1" stop-color="rgb(98.039246%, 82.749939%, 28.616333%)" offset="0.671875"/><stop stop-opacity="1" stop-color="rgb(98.039246%, 82.943726%, 29.191589%)" offset="0.675781"/><stop stop-opacity="1" stop-color="rgb(98.039246%, 83.139038%, 29.768372%)" offset="0.679688"/><stop stop-opacity="1" stop-color="rgb(98.039246%, 83.309937%, 30.154419%)" offset="0.683594"/><stop stop-opacity="1" stop-color="rgb(98.039246%, 83.480835%, 30.540466%)" offset="0.6875"/><stop stop-opacity="1" stop-color="rgb(98.039246%, 83.699036%, 30.969238%)" offset="0.691406"/><stop stop-opacity="1" stop-color="rgb(98.039246%, 83.918762%, 31.399536%)" offset="0.695312"/><stop stop-opacity="1" stop-color="rgb(98.039246%, 83.924866%, 31.97937%)" offset="0.699219"/><stop stop-opacity="1" stop-color="rgb(98.039246%, 83.930969%, 32.56073%)" offset="0.703125"/><stop stop-opacity="1" stop-color="rgb(98.039246%, 84.120178%, 32.9422%)" offset="0.707031"/><stop stop-opacity="1" stop-color="rgb(98.039246%, 84.309387%, 33.323669%)" offset="0.710938"/><stop stop-opacity="1" stop-color="rgb(98.039246%, 84.49707%, 33.708191%)" offset="0.714844"/><stop stop-opacity="1" stop-color="rgb(98.039246%, 84.684753%, 34.094238%)" offset="0.71875"/><stop stop-opacity="1" stop-color="rgb(98.039246%, 84.870911%, 34.648132%)" offset="0.722656"/><stop stop-opacity="1" stop-color="rgb(98.039246%, 85.057068%, 35.203552%)" offset="0.726562"/><stop stop-opacity="1" stop-color="rgb(98.039246%, 85.096741%, 35.65979%)" offset="0.730469"/><stop stop-opacity="1" stop-color="rgb(98.039246%, 85.136414%, 36.116028%)" offset="0.734375"/><stop stop-opacity="1" stop-color="rgb(98.039246%, 85.31189%, 36.495972%)" offset="0.738281"/><stop stop-opacity="1" stop-color="rgb(98.039246%, 85.488892%, 36.877441%)" offset="0.742187"/><stop stop-opacity="1" stop-color="rgb(98.039246%, 85.684204%, 37.263489%)" offset="0.746094"/><stop stop-opacity="1" stop-color="rgb(98.039246%, 85.879517%, 37.649536%)" offset="0.75"/><stop stop-opacity="1" stop-color="rgb(98.039246%, 85.879517%, 38.224792%)" offset="0.753906"/><stop stop-opacity="1" stop-color="rgb(98.039246%, 85.879517%, 38.801575%)" offset="0.757812"/><stop stop-opacity="1" stop-color="rgb(98.216248%, 86.073303%, 39.186096%)" offset="0.761719"/><stop stop-opacity="1" stop-color="rgb(98.39325%, 86.268616%, 39.572144%)" offset="0.765625"/><stop stop-opacity="1" stop-color="rgb(98.41156%, 86.468506%, 40.023804%)" offset="0.769531"/><stop stop-opacity="1" stop-color="rgb(98.429871%, 86.669922%, 40.475464%)" offset="0.773438"/><stop stop-opacity="1" stop-color="rgb(98.429871%, 86.863708%, 41.033936%)" offset="0.777344"/><stop stop-opacity="1" stop-color="rgb(98.429871%, 87.059021%, 41.593933%)" offset="0.78125"/><stop stop-opacity="1" stop-color="rgb(98.429871%, 87.062073%, 41.973877%)" offset="0.785156"/><stop stop-opacity="1" stop-color="rgb(98.429871%, 87.065125%, 42.355347%)" offset="0.789062"/><stop stop-opacity="1" stop-color="rgb(98.429871%, 87.257385%, 42.741394%)" offset="0.792969"/><stop stop-opacity="1" stop-color="rgb(98.429871%, 87.449646%, 43.127441%)" offset="0.796875"/><stop stop-opacity="1" stop-color="rgb(98.429871%, 87.628174%, 43.687439%)" offset="0.800781"/><stop stop-opacity="1" stop-color="rgb(98.429871%, 87.808228%, 44.247437%)" offset="0.804688"/><stop stop-opacity="1" stop-color="rgb(98.429871%, 87.998962%, 44.648743%)" offset="0.808594"/><stop stop-opacity="1" stop-color="rgb(98.429871%, 88.189697%, 45.050049%)" offset="0.8125"/><stop stop-opacity="1" stop-color="rgb(98.429871%, 88.22937%, 45.478821%)" offset="0.816406"/><stop stop-opacity="1" stop-color="rgb(98.429871%, 88.269043%, 45.909119%)" offset="0.820312"/><stop stop-opacity="1" stop-color="rgb(98.429871%, 88.449097%, 46.490479%)" offset="0.824219"/><stop stop-opacity="1" stop-color="rgb(98.429871%, 88.62915%, 47.071838%)" offset="0.828125"/><stop stop-opacity="1" stop-color="rgb(98.429871%, 88.821411%, 47.451782%)" offset="0.832031"/><stop stop-opacity="1" stop-color="rgb(98.429871%, 89.013672%, 47.833252%)" offset="0.835937"/><stop stop-opacity="1" stop-color="rgb(98.429871%, 89.198303%, 48.219299%)" offset="0.839844"/><stop stop-opacity="1" stop-color="rgb(98.429871%, 89.38446%, 48.605347%)" offset="0.84375"/><stop stop-opacity="1" stop-color="rgb(98.429871%, 89.396667%, 48.985291%)" offset="0.847656"/><stop stop-opacity="1" stop-color="rgb(98.429871%, 89.408875%, 49.36676%)" offset="0.851562"/><stop stop-opacity="1" stop-color="rgb(98.429871%, 89.604187%, 49.995422%)" offset="0.855469"/><stop stop-opacity="1" stop-color="rgb(98.429871%, 89.7995%, 50.62561%)" offset="0.859375"/><stop stop-opacity="1" stop-color="rgb(98.429871%, 89.99939%, 51.005554%)" offset="0.863281"/><stop stop-opacity="1" stop-color="rgb(98.429871%, 90.19928%, 51.387024%)" offset="0.867188"/><stop stop-opacity="1" stop-color="rgb(98.429871%, 90.19928%, 51.773071%)" offset="0.871094"/><stop stop-opacity="1" stop-color="rgb(98.429871%, 90.19928%, 52.159119%)" offset="0.875"/><stop stop-opacity="1" stop-color="rgb(98.429871%, 90.394592%, 52.734375%)" offset="0.878906"/><stop stop-opacity="1" stop-color="rgb(98.429871%, 90.589905%, 53.311157%)" offset="0.882812"/><stop stop-opacity="1" stop-color="rgb(98.429871%, 90.783691%, 53.695679%)" offset="0.886719"/><stop stop-opacity="1" stop-color="rgb(98.429871%, 90.979004%, 54.081726%)" offset="0.890625"/><stop stop-opacity="1" stop-color="rgb(98.429871%, 91.174316%, 54.512024%)" offset="0.894531"/><stop stop-opacity="1" stop-color="rgb(98.429871%, 91.369629%, 54.942322%)" offset="0.898438"/><stop stop-opacity="1" stop-color="rgb(98.429871%, 91.381836%, 55.522156%)" offset="0.902344"/><stop stop-opacity="1" stop-color="rgb(98.429871%, 91.394043%, 56.103516%)" offset="0.90625"/><stop stop-opacity="1" stop-color="rgb(98.429871%, 91.578674%, 56.483459%)" offset="0.910156"/><stop stop-opacity="1" stop-color="rgb(98.429871%, 91.764832%, 56.864929%)" offset="0.914062"/><stop stop-opacity="1" stop-color="rgb(98.429871%, 91.96167%, 57.250977%)" offset="0.917969"/><stop stop-opacity="1" stop-color="rgb(98.429871%, 92.158508%, 57.637024%)" offset="0.921875"/><stop stop-opacity="1" stop-color="rgb(98.429871%, 92.338562%, 58.197021%)" offset="0.925781"/><stop stop-opacity="1" stop-color="rgb(98.429871%, 92.518616%, 58.757019%)" offset="0.929687"/><stop stop-opacity="1" stop-color="rgb(98.429871%, 92.533875%, 59.158325%)" offset="0.933594"/><stop stop-opacity="1" stop-color="rgb(98.429871%, 92.549133%, 59.559631%)" offset="0.9375"/><stop stop-opacity="1" stop-color="rgb(98.429871%, 92.744446%, 59.988403%)" offset="0.941406"/><stop stop-opacity="1" stop-color="rgb(98.429871%, 92.939758%, 60.418701%)" offset="0.945312"/><stop stop-opacity="1" stop-color="rgb(98.623657%, 93.133545%, 60.810852%)" offset="0.949219"/><stop stop-opacity="1" stop-color="rgb(98.81897%, 93.328857%, 61.203003%)" offset="0.953125"/><stop stop-opacity="1" stop-color="rgb(98.81897%, 93.525696%, 61.772156%)" offset="0.957031"/><stop stop-opacity="1" stop-color="rgb(98.81897%, 93.722534%, 62.342834%)" offset="0.960938"/><stop stop-opacity="1" stop-color="rgb(98.81897%, 93.725586%, 62.728882%)" offset="0.964844"/><stop stop-opacity="1" stop-color="rgb(98.81897%, 93.728638%, 63.114929%)" offset="0.96875"/><stop stop-opacity="1" stop-color="rgb(98.81897%, 93.92395%, 63.494873%)" offset="0.972656"/><stop stop-opacity="1" stop-color="rgb(98.81897%, 94.119263%, 63.876343%)" offset="0.976562"/><stop stop-opacity="1" stop-color="rgb(98.81897%, 94.314575%, 64.505005%)" offset="0.980469"/><stop stop-opacity="1" stop-color="rgb(98.81897%, 94.509888%, 65.135193%)" offset="0.984375"/><stop stop-opacity="1" stop-color="rgb(98.81897%, 94.703674%, 65.515137%)" offset="0.988281"/><stop stop-opacity="1" stop-color="rgb(98.81897%, 94.898987%, 65.896606%)" offset="0.992188"/><stop stop-opacity="1" stop-color="rgb(98.81897%, 94.898987%, 66.282654%)" offset="0.996094"/><stop stop-opacity="1" stop-color="rgb(98.81897%, 94.898987%, 66.668701%)" offset="1"/></linearGradient><clipPath id="8f6868bf94"><rect x="0" width="48" y="0" height="48"/></clipPath></defs><g clip-path="url(#e676c1b761)"><g transform="matrix(1, 0, 0, 1, 0.000000000000000056, 0.000000000000005041)"><g clip-path="url(#8f6868bf94)"><g clip-path="url(#79e3bbaced)"><g clip-path="url(#2e3cd118a2)"><g transform="matrix(1, 0, 0, 1, 2, 1)"><g clip-path="url(#2baff8a021)"><g clip-path="url(#524daa8914)"><g clip-path="url(#c92f770d44)"><path fill="#000000" d="M 0.253906 0.363281 L 45.058594 0.363281 L 45.058594 45.167969 L 0.253906 45.167969 Z M 0.253906 0.363281 " fill-opacity="1" fill-rule="nonzero"/></g></g></g></g></g></g><g clip-path="url(#dc628f7a60)"><g clip-path="url(#75c201d8f3)"><path fill="url(#526597307b)" d="M 1.648438 46.476562 L 1.648438 0.640625 L 47.511719 0.640625 L 47.511719 46.476562 Z M 1.648438 46.476562 " fill-rule="nonzero"/></g></g><g clip-path="url(#90104362a4)"><g clip-path="url(#73327de39a)"><path fill="url(#60eacad149)" d="M 13.402344 33.601562 L 13.402344 14.894531 L 36.90625 14.894531 L 36.90625 33.601562 Z M 13.402344 33.601562 " fill-rule="nonzero"/></g></g></g></g></g></svg>