<svg xmlns="http://www.w3.org/2000/svg" xmlns:xlink="http://www.w3.org/1999/xlink" width="64" zoomAndPan="magnify" viewBox="0 0 48 48" height="64" preserveAspectRatio="xMidYMid meet" version="1.0"><defs><clipPath id="8fb9cf3582"><path d="M 1.796875 1.261719 L 46.570312 1.261719 L 46.570312 45.851562 L 1.796875 45.851562 Z M 1.796875 1.261719 " clip-rule="nonzero"/></clipPath><clipPath id="adcf881212"><path d="M 29.4375 38.503906 C 29.121094 38.503906 28.863281 38.25 28.863281 37.933594 C 28.863281 37.617188 29.121094 37.363281 29.4375 37.363281 C 29.753906 37.363281 30.011719 37.617188 30.011719 37.933594 C 30.011719 38.25 29.753906 38.503906 29.4375 38.503906 Z M 32.558594 36.4375 C 32.242188 36.4375 31.988281 36.179688 31.988281 35.867188 C 31.988281 35.550781 32.242188 35.292969 32.558594 35.292969 C 32.875 35.292969 33.132812 35.550781 33.132812 35.867188 C 33.132812 36.179688 32.875 36.4375 32.558594 36.4375 Z M 35.128906 34.328125 C 34.8125 34.328125 34.558594 34.074219 34.558594 33.757812 C 34.558594 33.441406 34.8125 33.1875 35.128906 33.1875 C 35.445312 33.1875 35.703125 33.441406 35.703125 33.757812 C 35.703125 34.074219 35.445312 34.328125 35.128906 34.328125 Z M 37.085938 32.242188 C 36.769531 32.242188 36.515625 31.988281 36.515625 31.671875 C 36.515625 31.355469 36.769531 31.101562 37.085938 31.101562 C 37.402344 31.101562 37.660156 31.355469 37.660156 31.671875 C 37.660156 31.988281 37.402344 32.242188 37.085938 32.242188 Z M 9.183594 20.730469 C 9.183594 20.730469 9.980469 19.792969 10.347656 19.34375 C 10.714844 18.894531 10.859375 18.386719 10.859375 18.386719 C 10.859375 18.386719 9.652344 19.222656 9.53125 19.652344 C 9.40625 20.078125 9.183594 20.730469 9.183594 20.730469 Z M 7.996094 21.6875 C 7.996094 21.6875 7.8125 20.996094 7.628906 19.855469 C 7.445312 18.710938 6.644531 18.082031 6.644531 18.082031 C 6.644531 18.082031 7.199219 20.324219 7.464844 20.976562 C 7.730469 21.628906 7.996094 21.6875 7.996094 21.6875 Z M 9.578125 18.777344 C 9.699219 18.5625 9.882812 18.246094 10.082031 17.917969 C 10.429688 17.347656 10.796875 16.859375 10.796875 16.859375 C 10.796875 16.859375 10.449219 17.070312 10.125 17.359375 C 9.921875 17.820312 9.738281 18.292969 9.578125 18.777344 Z M 8.527344 17.980469 C 8.527344 17.980469 8.753906 16.144531 8.566406 15.699219 C 8.566406 15.699219 8.234375 16.695312 8.304688 17.199219 C 8.375 17.707031 8.527344 17.980469 8.527344 17.980469 Z M 10.800781 16.023438 C 10.976562 16.011719 11.628906 15.941406 12.007812 15.601562 C 12.445312 15.203125 12.59375 14.832031 12.59375 14.832031 C 12.59375 14.832031 12.210938 15.175781 11.855469 15.316406 C 11.496094 15.457031 11.375 15.691406 11.132812 15.8125 C 10.988281 15.882812 10.886719 15.945312 10.824219 15.984375 Z M 11.945312 14.496094 C 11.945312 14.496094 12.292969 14.160156 12.578125 14.039062 C 12.863281 13.917969 13.390625 13.757812 13.390625 13.757812 C 13.390625 13.757812 13.234375 13.738281 13.039062 13.738281 C 12.828125 13.738281 12.578125 13.757812 12.414062 13.847656 C 12.097656 14.019531 11.945312 14.496094 11.945312 14.496094 Z M 10.015625 15.089844 C 10.105469 14.996094 10.941406 13.144531 10.847656 12.628906 L 10.695312 12.445312 C 10.695312 12.445312 10.683594 12.429688 10.660156 12.429688 C 10.609375 12.429688 10.519531 12.5 10.441406 12.953125 C 10.332031 13.609375 9.902344 14.9375 9.902344 14.9375 Z M 24.183594 39.632812 C 19.726562 39.632812 15.691406 37.835938 12.769531 34.925781 C 9.847656 32.015625 8.042969 27.996094 8.042969 23.558594 C 8.042969 23.285156 8.046875 23.015625 8.0625 22.746094 L 7.867188 22.886719 C 6.832031 22.332031 6.65625 21.375 6.480469 20.433594 C 6.304688 19.492188 5.832031 18.324219 5.605469 17.820312 C 5.375 17.316406 5.113281 16.671875 5.359375 16.515625 C 5.460938 16.449219 5.554688 16.410156 5.671875 16.410156 C 5.839844 16.410156 6.050781 16.492188 6.390625 16.707031 C 6.96875 17.074219 7.480469 17.9375 7.480469 17.9375 C 7.132812 16.714844 7.460938 12.886719 8.421875 12.761719 C 8.449219 12.761719 8.472656 12.757812 8.5 12.757812 C 9.296875 12.757812 9.148438 14.484375 9.121094 14.761719 C 9.246094 13.65625 9.507812 12.570312 9.8125 11.910156 C 10.339844 10.765625 9.316406 9.023438 10.285156 8.953125 C 11.65625 9.179688 11.492188 13.191406 11.492188 13.191406 L 11.820312 12.804688 C 11.550781 10.234375 14.171875 8.851562 14.683594 8.707031 C 15.195312 8.566406 16.113281 8.117188 16.378906 7.28125 C 16.644531 6.445312 17.199219 6.386719 17.199219 6.386719 C 17.210938 6.386719 17.21875 6.386719 17.230469 6.386719 C 18.5 6.386719 17.488281 8.289062 16.941406 9.1875 C 19.121094 8.09375 21.578125 7.480469 24.183594 7.480469 C 28.640625 7.480469 32.675781 9.28125 35.59375 12.1875 C 38.515625 15.097656 40.324219 19.117188 40.324219 23.558594 C 40.324219 24.804688 40.175781 26.039062 39.890625 27.246094 C 39.605469 28.453125 39.179688 29.625 38.621094 30.742188 C 38.554688 30.875 38.417969 30.953125 38.277344 30.953125 C 38.21875 30.953125 38.160156 30.941406 38.105469 30.914062 C 37.914062 30.820312 37.839844 30.589844 37.933594 30.398438 C 38.464844 29.335938 38.871094 28.21875 39.144531 27.074219 C 39.414062 25.925781 39.554688 24.746094 39.554688 23.558594 C 39.554688 19.328125 37.832031 15.503906 35.050781 12.730469 C 32.269531 9.960938 28.425781 8.25 24.183594 8.25 C 20.648438 8.25 17.394531 9.4375 14.800781 11.433594 C 14.558594 11.804688 14.449219 12.074219 14.449219 12.074219 C 14.808594 11.875 15.1875 11.816406 15.574219 11.816406 C 16.109375 11.816406 16.660156 11.929688 17.175781 11.929688 C 17.285156 11.929688 17.398438 11.921875 17.507812 11.910156 C 18.277344 11.816406 19.050781 11.035156 19.421875 11.035156 C 19.519531 11.035156 19.585938 11.085938 19.625 11.207031 C 19.8125 11.816406 19.578125 11.746094 18.46875 12.851562 C 17.769531 13.546875 16.421875 13.675781 15.515625 13.675781 C 14.980469 13.675781 14.597656 13.632812 14.597656 13.632812 C 14.597656 14.941406 11.679688 16.621094 11.679688 16.621094 C 12.929688 18.355469 9.859375 21.257812 8.878906 22.113281 C 8.835938 22.589844 8.8125 23.070312 8.8125 23.558594 C 8.8125 27.785156 10.53125 31.613281 13.3125 34.382812 C 16.09375 37.152344 19.9375 38.867188 24.183594 38.867188 C 24.789062 38.867188 25.390625 38.832031 25.988281 38.761719 C 26.589844 38.691406 27.1875 38.582031 27.765625 38.445312 C 27.796875 38.4375 27.828125 38.4375 27.855469 38.4375 C 28.03125 38.4375 28.1875 38.554688 28.230469 38.730469 C 28.277344 38.933594 28.152344 39.140625 27.945312 39.191406 C 27.320312 39.339844 26.699219 39.449219 26.078125 39.523438 C 25.445312 39.597656 24.8125 39.636719 24.183594 39.636719 Z M 24.183594 45.074219 C 30.148438 45.074219 35.550781 42.664062 39.457031 38.773438 C 43.367188 34.878906 45.785156 29.5 45.785156 23.558594 C 45.785156 17.617188 43.367188 12.234375 39.457031 8.34375 C 35.546875 4.449219 30.148438 2.039062 24.183594 2.039062 C 18.21875 2.039062 12.816406 4.449219 8.90625 8.34375 C 4.996094 12.238281 2.578125 17.617188 2.578125 23.558594 C 2.578125 29.5 4.996094 34.878906 8.90625 38.773438 C 12.816406 42.664062 18.21875 45.074219 24.183594 45.074219 Z M 24.183594 45.851562 C 18 45.851562 12.40625 43.359375 8.355469 39.324219 C 4.304688 35.289062 1.796875 29.714844 1.796875 23.558594 C 1.796875 17.402344 4.304688 11.828125 8.355469 7.792969 C 12.40625 3.757812 18 1.261719 24.183594 1.261719 C 30.363281 1.261719 35.960938 3.757812 40.011719 7.792969 C 44.0625 11.828125 46.570312 17.402344 46.570312 23.558594 C 46.570312 29.714844 44.0625 35.289062 40.011719 39.324219 C 35.960938 43.355469 30.363281 45.851562 24.183594 45.851562 Z M 24.183594 45.851562 " clip-rule="nonzero"/></clipPath><linearGradient x1="277.57101" gradientTransform="matrix(0.0919702, 0, 0, -0.091604, -1.345082, 47.003475)" y1="12.53072" x2="277.51199" gradientUnits="userSpaceOnUse" y2="499.371043" id="a1234998b0"><stop stop-opacity="1" stop-color="rgb(83.139038%, 53.329468%, 8.628845%)" offset="0"/><stop stop-opacity="1" stop-color="rgb(83.139038%, 53.329468%, 8.628845%)" offset="0.000121218"/><stop stop-opacity="1" stop-color="rgb(83.139038%, 53.329468%, 8.628845%)" offset="0.015625"/><stop stop-opacity="1" stop-color="rgb(83.149719%, 53.340149%, 8.628845%)" offset="0.0234375"/><stop stop-opacity="1" stop-color="rgb(83.345032%, 53.546143%, 8.628845%)" offset="0.03125"/><stop stop-opacity="1" stop-color="rgb(83.531189%, 53.93219%, 8.628845%)" offset="0.0390625"/><stop stop-opacity="1" stop-color="rgb(83.721924%, 54.312134%, 8.628845%)" offset="0.046875"/><stop stop-opacity="1" stop-color="rgb(84.103394%, 54.693604%, 8.628845%)" offset="0.0546875"/><stop stop-opacity="1" stop-color="rgb(84.301758%, 55.073547%, 8.628845%)" offset="0.0625"/><stop stop-opacity="1" stop-color="rgb(84.509277%, 55.484009%, 8.628845%)" offset="0.0664062"/><stop stop-opacity="1" stop-color="rgb(84.709167%, 55.703735%, 8.628845%)" offset="0.0703125"/><stop stop-opacity="1" stop-color="rgb(84.712219%, 55.89447%, 8.628845%)" offset="0.078125"/><stop stop-opacity="1" stop-color="rgb(84.906006%, 56.27594%, 8.628845%)" offset="0.0859375"/><stop stop-opacity="1" stop-color="rgb(85.28595%, 56.655884%, 8.628845%)" offset="0.09375"/><stop stop-opacity="1" stop-color="rgb(85.482788%, 57.037354%, 8.444214%)" offset="0.101563"/><stop stop-opacity="1" stop-color="rgb(85.693359%, 57.447815%, 8.250427%)" offset="0.105469"/><stop stop-opacity="1" stop-color="rgb(85.897827%, 57.667542%, 8.239746%)" offset="0.109375"/><stop stop-opacity="1" stop-color="rgb(86.082458%, 57.858276%, 8.239746%)" offset="0.117188"/><stop stop-opacity="1" stop-color="rgb(86.268616%, 58.23822%, 8.239746%)" offset="0.125"/><stop stop-opacity="1" stop-color="rgb(86.463928%, 58.61969%, 8.239746%)" offset="0.132812"/><stop stop-opacity="1" stop-color="rgb(86.663818%, 59.005737%, 8.239746%)" offset="0.140625"/><stop stop-opacity="1" stop-color="rgb(86.87439%, 59.414673%, 8.239746%)" offset="0.144531"/><stop stop-opacity="1" stop-color="rgb(87.080383%, 59.629822%, 8.239746%)" offset="0.148437"/><stop stop-opacity="1" stop-color="rgb(87.265015%, 59.820557%, 8.239746%)" offset="0.15625"/><stop stop-opacity="1" stop-color="rgb(87.451172%, 60.202026%, 8.239746%)" offset="0.164062"/><stop stop-opacity="1" stop-color="rgb(87.641907%, 60.58197%, 8.239746%)" offset="0.171875"/><stop stop-opacity="1" stop-color="rgb(87.835693%, 60.968018%, 8.239746%)" offset="0.179687"/><stop stop-opacity="1" stop-color="rgb(88.026428%, 61.170959%, 8.239746%)" offset="0.1875"/><stop stop-opacity="1" stop-color="rgb(88.421631%, 61.381531%, 8.239746%)" offset="0.191406"/><stop stop-opacity="1" stop-color="rgb(88.62915%, 61.584473%, 8.239746%)" offset="0.195312"/><stop stop-opacity="1" stop-color="rgb(88.632202%, 61.775208%, 8.239746%)" offset="0.203125"/><stop stop-opacity="1" stop-color="rgb(88.825989%, 62.155151%, 8.239746%)" offset="0.210938"/><stop stop-opacity="1" stop-color="rgb(89.205933%, 62.541199%, 8.239746%)" offset="0.21875"/><stop stop-opacity="1" stop-color="rgb(89.402771%, 62.927246%, 8.239746%)" offset="0.226562"/><stop stop-opacity="1" stop-color="rgb(89.604187%, 63.33313%, 8.239746%)" offset="0.230469"/><stop stop-opacity="1" stop-color="rgb(89.7995%, 63.548279%, 8.239746%)" offset="0.234375"/><stop stop-opacity="1" stop-color="rgb(89.804077%, 63.737488%, 8.239746%)" offset="0.242188"/><stop stop-opacity="1" stop-color="rgb(90.003967%, 64.118958%, 8.239746%)" offset="0.25"/><stop stop-opacity="1" stop-color="rgb(90.390015%, 64.505005%, 8.044434%)" offset="0.257813"/><stop stop-opacity="1" stop-color="rgb(90.585327%, 64.889526%, 7.844543%)" offset="0.265625"/><stop stop-opacity="1" stop-color="rgb(90.783691%, 65.29541%, 7.839966%)" offset="0.269531"/><stop stop-opacity="1" stop-color="rgb(90.979004%, 65.510559%, 7.839966%)" offset="0.273438"/><stop stop-opacity="1" stop-color="rgb(90.985107%, 65.701294%, 7.839966%)" offset="0.28125"/><stop stop-opacity="1" stop-color="rgb(91.181946%, 66.081238%, 7.839966%)" offset="0.289063"/><stop stop-opacity="1" stop-color="rgb(91.56189%, 66.467285%, 7.839966%)" offset="0.296875"/><stop stop-opacity="1" stop-color="rgb(91.755676%, 66.853333%, 7.839966%)" offset="0.304688"/><stop stop-opacity="1" stop-color="rgb(91.946411%, 67.234802%, 7.839966%)" offset="0.3125"/><stop stop-opacity="1" stop-color="rgb(92.341614%, 67.63916%, 7.839966%)" offset="0.316406"/><stop stop-opacity="1" stop-color="rgb(92.549133%, 67.854309%, 7.839966%)" offset="0.320313"/><stop stop-opacity="1" stop-color="rgb(92.552185%, 68.049622%, 7.839966%)" offset="0.328125"/><stop stop-opacity="1" stop-color="rgb(92.745972%, 68.435669%, 7.839966%)" offset="0.335938"/><stop stop-opacity="1" stop-color="rgb(92.938232%, 68.815613%, 7.839966%)" offset="0.34375"/><stop stop-opacity="1" stop-color="rgb(93.122864%, 69.197083%, 7.839966%)" offset="0.351563"/><stop stop-opacity="1" stop-color="rgb(93.518066%, 69.602966%, 7.839966%)" offset="0.355469"/><stop stop-opacity="1" stop-color="rgb(93.728638%, 69.818115%, 7.839966%)" offset="0.359375"/><stop stop-opacity="1" stop-color="rgb(93.733215%, 70.013428%, 7.839966%)" offset="0.367188"/><stop stop-opacity="1" stop-color="rgb(93.928528%, 70.397949%, 7.839966%)" offset="0.375"/><stop stop-opacity="1" stop-color="rgb(94.119263%, 70.779419%, 7.839966%)" offset="0.382813"/><stop stop-opacity="1" stop-color="rgb(94.30542%, 71.160889%, 7.839966%)" offset="0.390625"/><stop stop-opacity="1" stop-color="rgb(94.694519%, 71.554565%, 7.839966%)" offset="0.394531"/><stop stop-opacity="1" stop-color="rgb(94.898987%, 71.759033%, 7.839966%)" offset="0.398438"/><stop stop-opacity="1" stop-color="rgb(94.90509%, 71.765137%, 7.833862%)" offset="0.40625"/><stop stop-opacity="1" stop-color="rgb(95.101929%, 71.966553%, 7.63855%)" offset="0.414063"/><stop stop-opacity="1" stop-color="rgb(95.487976%, 72.3526%, 7.449341%)" offset="0.421875"/><stop stop-opacity="1" stop-color="rgb(95.68634%, 72.732544%, 7.449341%)" offset="0.429688"/><stop stop-opacity="1" stop-color="rgb(95.872498%, 73.114014%, 7.449341%)" offset="0.4375"/><stop stop-opacity="1" stop-color="rgb(96.073914%, 73.524475%, 7.449341%)" offset="0.441406"/><stop stop-opacity="1" stop-color="rgb(96.09375%, 73.744202%, 7.449341%)" offset="0.445313"/><stop stop-opacity="1" stop-color="rgb(96.284485%, 73.934937%, 7.449341%)" offset="0.453125"/><stop stop-opacity="1" stop-color="rgb(96.665955%, 74.31488%, 7.449341%)" offset="0.460938"/><stop stop-opacity="1" stop-color="rgb(96.858215%, 74.69635%, 7.449341%)" offset="0.46875"/><stop stop-opacity="1" stop-color="rgb(97.042847%, 75.07782%, 7.449341%)" offset="0.476563"/><stop stop-opacity="1" stop-color="rgb(97.25647%, 75.497437%, 7.467651%)" offset="0.480469"/><stop stop-opacity="1" stop-color="rgb(97.286987%, 75.726318%, 7.485962%)" offset="0.484375"/><stop stop-opacity="1" stop-color="rgb(97.467041%, 75.91095%, 7.672119%)" offset="0.492188"/><stop stop-opacity="1" stop-color="rgb(97.648621%, 76.283264%, 8.43811%)" offset="0.496094"/><stop stop-opacity="1" stop-color="rgb(97.648621%, 76.469421%, 9.01947%)" offset="0.5"/><stop stop-opacity="1" stop-color="rgb(97.648621%, 76.663208%, 9.399414%)" offset="0.503906"/><stop stop-opacity="1" stop-color="rgb(97.648621%, 76.858521%, 9.780884%)" offset="0.507812"/><stop stop-opacity="1" stop-color="rgb(97.648621%, 77.035522%, 10.166931%)" offset="0.511719"/><stop stop-opacity="1" stop-color="rgb(97.648621%, 77.212524%, 10.552979%)" offset="0.515625"/><stop stop-opacity="1" stop-color="rgb(97.648621%, 77.252197%, 11.177063%)" offset="0.519531"/><stop stop-opacity="1" stop-color="rgb(97.648621%, 77.293396%, 11.802673%)" offset="0.523438"/><stop stop-opacity="1" stop-color="rgb(97.648621%, 77.470398%, 12.187195%)" offset="0.527344"/><stop stop-opacity="1" stop-color="rgb(97.648621%, 77.648926%, 12.573242%)" offset="0.53125"/><stop stop-opacity="1" stop-color="rgb(97.648621%, 77.844238%, 12.954712%)" offset="0.535156"/><stop stop-opacity="1" stop-color="rgb(97.648621%, 78.039551%, 13.336182%)" offset="0.539063"/><stop stop-opacity="1" stop-color="rgb(97.648621%, 78.227234%, 13.720703%)" offset="0.542969"/><stop stop-opacity="1" stop-color="rgb(97.648621%, 78.416443%, 14.10675%)" offset="0.546875"/><stop stop-opacity="1" stop-color="rgb(97.648621%, 78.422546%, 14.682007%)" offset="0.550781"/><stop stop-opacity="1" stop-color="rgb(97.648621%, 78.42865%, 15.258789%)" offset="0.554688"/><stop stop-opacity="1" stop-color="rgb(97.648621%, 78.623962%, 15.644836%)" offset="0.558594"/><stop stop-opacity="1" stop-color="rgb(97.648621%, 78.819275%, 16.030884%)" offset="0.5625"/><stop stop-opacity="1" stop-color="rgb(97.648621%, 79.019165%, 16.474915%)" offset="0.566406"/><stop stop-opacity="1" stop-color="rgb(97.648621%, 79.219055%, 16.920471%)" offset="0.570312"/><stop stop-opacity="1" stop-color="rgb(97.654724%, 79.414368%, 17.485046%)" offset="0.574219"/><stop stop-opacity="1" stop-color="rgb(97.660828%, 79.60968%, 18.051147%)" offset="0.578125"/><stop stop-opacity="1" stop-color="rgb(97.850037%, 79.60968%, 18.431091%)" offset="0.582031"/><stop stop-opacity="1" stop-color="rgb(98.039246%, 79.60968%, 18.812561%)" offset="0.585938"/><stop stop-opacity="1" stop-color="rgb(98.039246%, 79.803467%, 19.198608%)" offset="0.589844"/><stop stop-opacity="1" stop-color="rgb(98.039246%, 79.998779%, 19.584656%)" offset="0.59375"/><stop stop-opacity="1" stop-color="rgb(98.039246%, 80.172729%, 20.13855%)" offset="0.597656"/><stop stop-opacity="1" stop-color="rgb(98.039246%, 80.34668%, 20.69397%)" offset="0.601562"/><stop stop-opacity="1" stop-color="rgb(98.039246%, 80.386353%, 21.150208%)" offset="0.605469"/><stop stop-opacity="1" stop-color="rgb(98.039246%, 80.426025%, 21.606445%)" offset="0.609375"/><stop stop-opacity="1" stop-color="rgb(98.039246%, 80.612183%, 21.986389%)" offset="0.613281"/><stop stop-opacity="1" stop-color="rgb(98.039246%, 80.79834%, 22.367859%)" offset="0.617188"/><stop stop-opacity="1" stop-color="rgb(98.039246%, 80.989075%, 22.947693%)" offset="0.621094"/><stop stop-opacity="1" stop-color="rgb(98.039246%, 81.17981%, 23.529053%)" offset="0.625"/><stop stop-opacity="1" stop-color="rgb(98.039246%, 81.364441%, 23.908997%)" offset="0.628906"/><stop stop-opacity="1" stop-color="rgb(98.039246%, 81.550598%, 24.290466%)" offset="0.632813"/><stop stop-opacity="1" stop-color="rgb(98.039246%, 81.559753%, 24.676514%)" offset="0.636719"/><stop stop-opacity="1" stop-color="rgb(98.039246%, 81.568909%, 25.062561%)" offset="0.640625"/><stop stop-opacity="1" stop-color="rgb(98.039246%, 81.785583%, 25.514221%)" offset="0.644531"/><stop stop-opacity="1" stop-color="rgb(98.039246%, 82.002258%, 25.965881%)" offset="0.648438"/><stop stop-opacity="1" stop-color="rgb(98.039246%, 82.174683%, 26.524353%)" offset="0.652344"/><stop stop-opacity="1" stop-color="rgb(98.039246%, 82.348633%, 27.084351%)" offset="0.65625"/><stop stop-opacity="1" stop-color="rgb(98.039246%, 82.548523%, 27.464294%)" offset="0.660156"/><stop stop-opacity="1" stop-color="rgb(98.039246%, 82.749939%, 27.845764%)" offset="0.664062"/><stop stop-opacity="1" stop-color="rgb(98.039246%, 82.749939%, 28.231812%)" offset="0.667969"/><stop stop-opacity="1" stop-color="rgb(98.039246%, 82.749939%, 28.617859%)" offset="0.671875"/><stop stop-opacity="1" stop-color="rgb(98.039246%, 82.943726%, 29.193115%)" offset="0.675781"/><stop stop-opacity="1" stop-color="rgb(98.039246%, 83.139038%, 29.768372%)" offset="0.679688"/><stop stop-opacity="1" stop-color="rgb(98.039246%, 83.309937%, 30.154419%)" offset="0.683594"/><stop stop-opacity="1" stop-color="rgb(98.039246%, 83.480835%, 30.540466%)" offset="0.6875"/><stop stop-opacity="1" stop-color="rgb(98.039246%, 83.699036%, 30.969238%)" offset="0.691406"/><stop stop-opacity="1" stop-color="rgb(98.039246%, 83.918762%, 31.399536%)" offset="0.695313"/><stop stop-opacity="1" stop-color="rgb(98.039246%, 83.924866%, 31.980896%)" offset="0.699219"/><stop stop-opacity="1" stop-color="rgb(98.039246%, 83.930969%, 32.562256%)" offset="0.703125"/><stop stop-opacity="1" stop-color="rgb(98.039246%, 84.120178%, 32.9422%)" offset="0.707031"/><stop stop-opacity="1" stop-color="rgb(98.039246%, 84.309387%, 33.323669%)" offset="0.710938"/><stop stop-opacity="1" stop-color="rgb(98.039246%, 84.49707%, 33.708191%)" offset="0.714844"/><stop stop-opacity="1" stop-color="rgb(98.039246%, 84.684753%, 34.094238%)" offset="0.71875"/><stop stop-opacity="1" stop-color="rgb(98.039246%, 84.870911%, 34.648132%)" offset="0.722656"/><stop stop-opacity="1" stop-color="rgb(98.039246%, 85.057068%, 35.203552%)" offset="0.726562"/><stop stop-opacity="1" stop-color="rgb(98.039246%, 85.096741%, 35.65979%)" offset="0.730469"/><stop stop-opacity="1" stop-color="rgb(98.039246%, 85.136414%, 36.116028%)" offset="0.734375"/><stop stop-opacity="1" stop-color="rgb(98.039246%, 85.31189%, 36.495972%)" offset="0.738281"/><stop stop-opacity="1" stop-color="rgb(98.039246%, 85.488892%, 36.877441%)" offset="0.742188"/><stop stop-opacity="1" stop-color="rgb(98.039246%, 85.684204%, 37.263489%)" offset="0.746094"/><stop stop-opacity="1" stop-color="rgb(98.039246%, 85.879517%, 37.649536%)" offset="0.75"/><stop stop-opacity="1" stop-color="rgb(98.039246%, 85.879517%, 38.224792%)" offset="0.753906"/><stop stop-opacity="1" stop-color="rgb(98.039246%, 85.879517%, 38.801575%)" offset="0.757813"/><stop stop-opacity="1" stop-color="rgb(98.216248%, 86.073303%, 39.186096%)" offset="0.761719"/><stop stop-opacity="1" stop-color="rgb(98.39325%, 86.268616%, 39.572144%)" offset="0.765625"/><stop stop-opacity="1" stop-color="rgb(98.41156%, 86.468506%, 40.023804%)" offset="0.769531"/><stop stop-opacity="1" stop-color="rgb(98.429871%, 86.669922%, 40.475464%)" offset="0.773438"/><stop stop-opacity="1" stop-color="rgb(98.429871%, 86.863708%, 41.033936%)" offset="0.777344"/><stop stop-opacity="1" stop-color="rgb(98.429871%, 87.059021%, 41.593933%)" offset="0.78125"/><stop stop-opacity="1" stop-color="rgb(98.429871%, 87.062073%, 41.973877%)" offset="0.785156"/><stop stop-opacity="1" stop-color="rgb(98.429871%, 87.065125%, 42.355347%)" offset="0.789062"/><stop stop-opacity="1" stop-color="rgb(98.429871%, 87.257385%, 42.741394%)" offset="0.792969"/><stop stop-opacity="1" stop-color="rgb(98.429871%, 87.449646%, 43.127441%)" offset="0.796875"/><stop stop-opacity="1" stop-color="rgb(98.429871%, 87.628174%, 43.687439%)" offset="0.800781"/><stop stop-opacity="1" stop-color="rgb(98.429871%, 87.808228%, 44.248962%)" offset="0.804688"/><stop stop-opacity="1" stop-color="rgb(98.429871%, 87.998962%, 44.648743%)" offset="0.808594"/><stop stop-opacity="1" stop-color="rgb(98.429871%, 88.189697%, 45.050049%)" offset="0.8125"/><stop stop-opacity="1" stop-color="rgb(98.429871%, 88.22937%, 45.478821%)" offset="0.816406"/><stop stop-opacity="1" stop-color="rgb(98.429871%, 88.270569%, 45.909119%)" offset="0.820313"/><stop stop-opacity="1" stop-color="rgb(98.429871%, 88.449097%, 46.490479%)" offset="0.824219"/><stop stop-opacity="1" stop-color="rgb(98.429871%, 88.62915%, 47.071838%)" offset="0.828125"/><stop stop-opacity="1" stop-color="rgb(98.429871%, 88.821411%, 47.451782%)" offset="0.832031"/><stop stop-opacity="1" stop-color="rgb(98.429871%, 89.013672%, 47.833252%)" offset="0.835938"/><stop stop-opacity="1" stop-color="rgb(98.429871%, 89.198303%, 48.219299%)" offset="0.839844"/><stop stop-opacity="1" stop-color="rgb(98.429871%, 89.38446%, 48.605347%)" offset="0.84375"/><stop stop-opacity="1" stop-color="rgb(98.429871%, 89.396667%, 48.985291%)" offset="0.847656"/><stop stop-opacity="1" stop-color="rgb(98.429871%, 89.408875%, 49.36676%)" offset="0.851562"/><stop stop-opacity="1" stop-color="rgb(98.429871%, 89.604187%, 49.995422%)" offset="0.855469"/><stop stop-opacity="1" stop-color="rgb(98.429871%, 89.7995%, 50.62561%)" offset="0.859375"/><stop stop-opacity="1" stop-color="rgb(98.429871%, 89.99939%, 51.005554%)" offset="0.863281"/><stop stop-opacity="1" stop-color="rgb(98.429871%, 90.19928%, 51.387024%)" offset="0.867188"/><stop stop-opacity="1" stop-color="rgb(98.429871%, 90.19928%, 51.773071%)" offset="0.871094"/><stop stop-opacity="1" stop-color="rgb(98.429871%, 90.19928%, 52.159119%)" offset="0.875"/><stop stop-opacity="1" stop-color="rgb(98.429871%, 90.394592%, 52.734375%)" offset="0.878906"/><stop stop-opacity="1" stop-color="rgb(98.429871%, 90.589905%, 53.311157%)" offset="0.882813"/><stop stop-opacity="1" stop-color="rgb(98.429871%, 90.783691%, 53.697205%)" offset="0.886719"/><stop stop-opacity="1" stop-color="rgb(98.429871%, 90.979004%, 54.083252%)" offset="0.890625"/><stop stop-opacity="1" stop-color="rgb(98.429871%, 91.174316%, 54.512024%)" offset="0.894531"/><stop stop-opacity="1" stop-color="rgb(98.429871%, 91.369629%, 54.942322%)" offset="0.898438"/><stop stop-opacity="1" stop-color="rgb(98.429871%, 91.381836%, 55.522156%)" offset="0.902344"/><stop stop-opacity="1" stop-color="rgb(98.429871%, 91.394043%, 56.103516%)" offset="0.90625"/><stop stop-opacity="1" stop-color="rgb(98.429871%, 91.5802%, 56.483459%)" offset="0.910156"/><stop stop-opacity="1" stop-color="rgb(98.429871%, 91.766357%, 56.864929%)" offset="0.914062"/><stop stop-opacity="1" stop-color="rgb(98.429871%, 91.96167%, 57.250977%)" offset="0.917969"/><stop stop-opacity="1" stop-color="rgb(98.429871%, 92.158508%, 57.637024%)" offset="0.921875"/><stop stop-opacity="1" stop-color="rgb(98.429871%, 92.338562%, 58.197021%)" offset="0.925781"/><stop stop-opacity="1" stop-color="rgb(98.429871%, 92.518616%, 58.758545%)" offset="0.929688"/><stop stop-opacity="1" stop-color="rgb(98.429871%, 92.533875%, 59.159851%)" offset="0.933594"/><stop stop-opacity="1" stop-color="rgb(98.429871%, 92.549133%, 59.561157%)" offset="0.9375"/><stop stop-opacity="1" stop-color="rgb(98.429871%, 92.744446%, 59.989929%)" offset="0.941406"/><stop stop-opacity="1" stop-color="rgb(98.429871%, 92.939758%, 60.420227%)" offset="0.945313"/><stop stop-opacity="1" stop-color="rgb(98.623657%, 93.133545%, 60.812378%)" offset="0.949219"/><stop stop-opacity="1" stop-color="rgb(98.81897%, 93.328857%, 61.204529%)" offset="0.953125"/><stop stop-opacity="1" stop-color="rgb(98.81897%, 93.525696%, 61.773682%)" offset="0.957031"/><stop stop-opacity="1" stop-color="rgb(98.81897%, 93.722534%, 62.342834%)" offset="0.960938"/><stop stop-opacity="1" stop-color="rgb(98.81897%, 93.725586%, 62.728882%)" offset="0.964844"/><stop stop-opacity="1" stop-color="rgb(98.81897%, 93.728638%, 63.114929%)" offset="0.96875"/><stop stop-opacity="1" stop-color="rgb(98.81897%, 93.92395%, 63.494873%)" offset="0.972656"/><stop stop-opacity="1" stop-color="rgb(98.81897%, 94.119263%, 63.876343%)" offset="0.976562"/><stop stop-opacity="1" stop-color="rgb(98.81897%, 94.314575%, 64.506531%)" offset="0.980469"/><stop stop-opacity="1" stop-color="rgb(98.81897%, 94.509888%, 65.136719%)" offset="0.984375"/><stop stop-opacity="1" stop-color="rgb(98.81897%, 94.703674%, 65.516663%)" offset="0.988281"/><stop stop-opacity="1" stop-color="rgb(98.81897%, 94.898987%, 65.898132%)" offset="0.992188"/><stop stop-opacity="1" stop-color="rgb(98.81897%, 94.898987%, 66.282654%)" offset="0.996094"/><stop stop-opacity="1" stop-color="rgb(98.81897%, 94.898987%, 66.668701%)" offset="1"/></linearGradient><clipPath id="3386b2858d"><path d="M 13.230469 15.128906 L 36.097656 15.128906 L 36.097656 33.328125 L 13.230469 33.328125 Z M 13.230469 15.128906 " clip-rule="nonzero"/></clipPath><clipPath id="a589c348ba"><path d="M 27.992188 32.738281 C 28.226562 32.738281 28.8125 32.421875 29.214844 32.074219 C 29.394531 31.925781 29.480469 31.824219 29.570312 31.679688 L 29.558594 31.660156 L 29.515625 31.65625 C 29.414062 31.65625 29.078125 31.789062 28.75 31.972656 C 28.15625 32.300781 27.867188 32.5 27.820312 32.628906 C 27.792969 32.707031 27.847656 32.738281 27.992188 32.738281 Z M 19.863281 31.285156 C 20.296875 31.285156 20.851562 30.964844 20.964844 30.640625 C 21.082031 30.3125 20.539062 30.007812 19.839844 30.007812 C 19.769531 30.007812 19.710938 30.015625 19.597656 30.039062 C 19.550781 30.164062 19.507812 30.265625 19.484375 30.324219 C 19.414062 30.523438 19.359375 30.75 19.265625 31.210938 C 19.429688 31.253906 19.648438 31.285156 19.863281 31.285156 Z M 23.113281 30.394531 C 23.246094 30.394531 23.480469 30.28125 23.628906 30.132812 C 23.777344 29.984375 23.984375 29.660156 24.046875 29.484375 L 24.066406 29.433594 L 24.101562 29.285156 C 24.152344 29.085938 24.148438 29.027344 24.074219 29.019531 C 23.953125 29.019531 23.726562 29.207031 23.523438 29.464844 C 23.371094 29.660156 23.117188 30.085938 23.027344 30.335938 Z M 27.148438 30.394531 C 27.285156 30.394531 27.515625 30.28125 27.664062 30.132812 C 27.8125 29.984375 28.023438 29.660156 28.085938 29.484375 L 28.101562 29.433594 L 28.136719 29.285156 C 28.1875 29.085938 28.183594 29.027344 28.109375 29.019531 C 27.988281 29.019531 27.761719 29.207031 27.558594 29.464844 C 27.40625 29.660156 27.152344 30.085938 27.0625 30.335938 L 27.152344 30.394531 Z M 31.449219 31.390625 C 31.578125 31.390625 31.761719 31.214844 32.054688 30.820312 C 32.257812 30.550781 32.484375 30.148438 32.570312 29.90625 C 32.601562 29.8125 32.589844 29.761719 32.523438 29.691406 C 32.539062 29.632812 32.570312 29.613281 32.800781 29.503906 L 32.804688 29.492188 C 32.875 29.292969 32.804688 28.941406 32.6875 28.941406 C 32.601562 28.941406 32.4375 29.058594 32.234375 29.273438 C 31.835938 29.691406 31.550781 30.136719 31.394531 30.574219 C 31.234375 31.027344 31.261719 31.390625 31.453125 31.390625 Z M 27.859375 33.328125 C 27.644531 33.328125 27.425781 33.222656 27.347656 33.089844 C 27.285156 32.972656 27.277344 32.707031 27.332031 32.558594 C 27.335938 32.539062 27.375 32.46875 27.421875 32.371094 L 27.433594 32.347656 C 27.472656 32.230469 27.78125 32.003906 28.15625 31.828125 C 28.574219 31.621094 29.042969 31.480469 29.421875 31.433594 L 29.523438 31.421875 L 29.640625 31.34375 L 29.621094 31.285156 C 29.585938 31.191406 29.429688 31.132812 29.183594 31.132812 L 29.078125 31.140625 C 28.882812 31.152344 28.730469 31.164062 28.675781 31.164062 C 28.507812 31.164062 28.425781 31.09375 28.390625 30.925781 C 28.359375 30.78125 28.367188 30.628906 28.417969 30.484375 C 28.476562 30.324219 28.519531 30.292969 28.753906 30.261719 C 29.027344 30.222656 29.488281 29.949219 29.972656 29.539062 C 30.15625 29.375 30.308594 29.195312 30.359375 29.054688 L 30.261719 29.039062 C 30.019531 29.039062 29.757812 29.128906 29.382812 29.347656 C 29.09375 29.511719 28.878906 29.6875 28.84375 29.789062 L 28.84375 29.839844 L 28.832031 29.890625 L 28.78125 29.910156 C 28.734375 29.910156 28.644531 29.859375 28.597656 29.800781 C 28.546875 29.75 28.527344 29.671875 28.554688 29.601562 L 28.59375 29.523438 L 28.597656 29.488281 L 28.605469 29.46875 C 28.617188 29.4375 28.742188 29.320312 28.882812 29.207031 C 29.308594 28.855469 29.96875 28.59375 30.394531 28.59375 C 30.847656 28.59375 31.152344 28.882812 31.039062 29.199219 C 30.902344 29.585938 30.542969 29.914062 29.484375 30.636719 L 29.554688 30.671875 C 29.933594 30.871094 30.054688 30.960938 30.136719 31.109375 C 30.222656 31.277344 30.234375 31.457031 30.164062 31.65625 C 30.082031 31.898438 29.816406 32.226562 29.5 32.503906 C 29.320312 32.660156 29 32.878906 28.742188 33.027344 C 28.367188 33.238281 28.117188 33.324219 27.859375 33.324219 Z M 31.359375 31.769531 C 30.660156 31.769531 30.421875 31.292969 30.71875 30.460938 C 30.890625 29.976562 31.15625 29.523438 31.53125 29.097656 C 31.863281 28.714844 32.011719 28.59375 32.15625 28.574219 L 32.390625 28.566406 L 32.523438 28.582031 L 32.667969 28.585938 C 33.277344 28.605469 33.480469 28.808594 33.488281 29.394531 L 33.699219 29.464844 L 33.714844 29.496094 C 33.71875 29.523438 33.699219 29.628906 33.671875 29.703125 L 33.617188 29.777344 C 33.585938 29.808594 33.566406 29.839844 33.515625 29.96875 L 33.394531 30.277344 L 33.328125 30.464844 C 33.097656 31.113281 33.058594 31.253906 33.125 31.410156 L 33.179688 31.441406 C 33.285156 31.441406 33.546875 31.261719 33.769531 31.097656 L 33.742188 31.195312 C 33.683594 31.363281 33.492188 31.582031 33.328125 31.660156 C 33.261719 31.691406 33.125 31.71875 33.027344 31.71875 C 32.742188 31.71875 32.613281 31.582031 32.519531 31.195312 C 32.191406 31.472656 32.0625 31.570312 31.929688 31.640625 C 31.773438 31.71875 31.546875 31.769531 31.363281 31.769531 Z M 22.820312 31.816406 C 22.605469 31.816406 22.355469 31.726562 22.222656 31.601562 C 21.964844 31.371094 21.949219 30.917969 22.164062 30.3125 C 22.332031 29.839844 22.605469 29.394531 23.027344 28.917969 C 23.328125 28.574219 23.460938 28.457031 23.546875 28.457031 L 23.589844 28.464844 L 23.609375 28.464844 L 23.667969 28.457031 L 24.085938 28.394531 C 24.234375 28.394531 24.304688 28.445312 24.382812 28.640625 L 24.410156 28.691406 L 24.460938 28.742188 C 24.539062 28.804688 24.550781 28.839844 24.574219 28.933594 C 24.613281 29.117188 24.609375 29.160156 24.574219 29.265625 C 24.371094 29.839844 24.019531 30.324219 23.664062 30.515625 C 23.496094 30.613281 23.273438 30.652344 22.910156 30.652344 C 22.757812 31.175781 22.828125 31.492188 23.097656 31.492188 C 23.34375 31.492188 23.769531 31.277344 24.101562 30.96875 L 24.167969 30.941406 L 24.171875 31.007812 C 24.152344 31.058594 24.042969 31.195312 23.898438 31.34375 C 23.605469 31.640625 23.203125 31.8125 22.820312 31.8125 Z M 26.855469 31.816406 C 26.640625 31.816406 26.390625 31.726562 26.257812 31.601562 C 26.003906 31.371094 25.984375 30.917969 26.199219 30.3125 C 26.367188 29.839844 26.640625 29.394531 27.0625 28.917969 C 27.363281 28.574219 27.496094 28.457031 27.582031 28.457031 L 27.625 28.464844 L 27.644531 28.464844 L 27.703125 28.457031 L 28.121094 28.394531 C 28.269531 28.394531 28.339844 28.445312 28.417969 28.640625 L 28.445312 28.691406 L 28.496094 28.742188 C 28.574219 28.804688 28.589844 28.839844 28.609375 28.933594 C 28.648438 29.117188 28.644531 29.160156 28.609375 29.265625 C 28.40625 29.839844 28.054688 30.324219 27.699219 30.515625 C 27.53125 30.613281 27.308594 30.652344 26.945312 30.652344 C 26.792969 31.175781 26.863281 31.492188 27.128906 31.492188 C 27.378906 31.492188 27.804688 31.277344 28.136719 30.96875 L 28.203125 30.941406 L 28.207031 31.007812 C 28.1875 31.058594 28.074219 31.195312 27.933594 31.34375 C 27.636719 31.640625 27.238281 31.8125 26.855469 31.8125 Z M 25.324219 30.136719 C 25.910156 29.40625 26.210938 28.878906 26.480469 28.117188 C 26.597656 27.792969 26.65625 27.464844 26.605469 27.464844 C 26.574219 27.464844 26.53125 27.507812 26.4375 27.644531 C 26.097656 28.152344 25.753906 28.859375 25.507812 29.546875 C 25.460938 29.683594 25.421875 29.8125 25.324219 30.136719 Z M 20.230469 29.265625 C 20.734375 29.265625 21.441406 28.785156 21.601562 28.34375 C 21.71875 28.011719 21.628906 27.605469 21.402344 27.417969 C 21.257812 27.300781 21.09375 27.265625 20.769531 27.257812 C 20.574219 27.761719 20.527344 27.871094 20.28125 28.417969 C 20.125 28.769531 20.101562 28.820312 19.941406 29.21875 C 20.078125 29.246094 20.171875 29.265625 20.230469 29.265625 Z M 19.523438 31.808594 C 18.90625 31.808594 18.679688 31.765625 18.335938 31.570312 C 18.285156 31.175781 18.34375 30.867188 18.601562 30.136719 C 18.851562 29.433594 19.113281 28.84375 19.539062 28.019531 C 19.71875 27.675781 19.722656 27.667969 19.894531 27.308594 C 18.992188 27.445312 18.015625 28.058594 17.824219 28.605469 C 17.726562 28.878906 17.851562 29.066406 18.242188 29.308594 L 18.199219 29.324219 C 18.101562 29.324219 18.078125 29.316406 17.742188 29.207031 C 17.433594 29.109375 17.316406 29.011719 17.238281 28.800781 C 17.191406 28.675781 17.191406 28.523438 17.226562 28.414062 C 17.269531 28.296875 17.421875 28.0625 17.574219 27.890625 C 17.902344 27.515625 18.410156 27.21875 19.085938 27.003906 C 19.609375 26.835938 20.171875 26.738281 20.628906 26.738281 C 21.960938 26.738281 22.78125 27.488281 22.457031 28.40625 C 22.375 28.632812 22.144531 28.949219 21.898438 29.171875 C 21.691406 29.359375 21.476562 29.503906 21.164062 29.636719 L 21.316406 29.785156 C 21.71875 30.191406 21.832031 30.472656 21.722656 30.78125 C 21.621094 31.058594 21.464844 31.265625 21.242188 31.414062 C 20.796875 31.699219 20.324219 31.808594 19.523438 31.808594 Z M 24.871094 31.808594 C 24.597656 31.808594 24.386719 31.617188 24.308594 31.292969 C 24.246094 31.019531 24.386719 30.285156 24.636719 29.582031 C 24.882812 28.882812 25.230469 28.167969 25.582031 27.597656 L 25.9375 27.03125 C 26.082031 26.804688 26.308594 26.648438 26.492188 26.648438 C 26.65625 26.648438 26.734375 26.6875 26.878906 26.835938 L 26.960938 26.921875 C 27.101562 27.050781 27.113281 27.101562 27.113281 27.355469 C 27.113281 27.484375 26.988281 27.953125 26.867188 28.296875 C 26.734375 28.671875 26.414062 29.257812 26.097656 29.691406 C 25.898438 29.972656 25.652344 30.265625 25.152344 30.8125 C 25.089844 31.167969 25.167969 31.363281 25.359375 31.363281 C 25.460938 31.363281 25.515625 31.335938 25.746094 31.1875 L 25.882812 31.136719 L 25.875 31.179688 C 25.847656 31.257812 25.75 31.367188 25.628906 31.464844 C 25.269531 31.738281 25.269531 31.738281 25.144531 31.769531 Z M 26.128906 24.695312 C 26.261719 24.695312 26.496094 24.578125 26.644531 24.429688 C 26.792969 24.28125 27.003906 23.957031 27.0625 23.785156 L 27.082031 23.734375 L 27.117188 23.585938 C 27.167969 23.382812 27.164062 23.328125 27.089844 23.320312 C 26.96875 23.320312 26.742188 23.503906 26.539062 23.765625 C 26.386719 23.960938 26.132812 24.386719 26.042969 24.636719 L 26.132812 24.695312 Z M 22.769531 25.765625 C 22.972656 25.703125 23.1875 25.546875 23.441406 25.277344 C 23.757812 24.941406 24.019531 24.5 24.195312 24.011719 C 24.304688 23.703125 24.3125 23.527344 24.210938 23.410156 C 24.128906 23.320312 24.042969 23.273438 23.921875 23.273438 C 23.828125 23.273438 23.761719 23.320312 23.625 23.46875 C 23.316406 23.796875 22.984375 24.339844 22.847656 24.71875 C 22.660156 25.25 22.636719 25.441406 22.730469 25.742188 Z M 25.835938 26.117188 C 25.621094 26.117188 25.371094 26.023438 25.238281 25.902344 C 24.980469 25.667969 24.964844 25.21875 25.179688 24.609375 C 25.347656 24.140625 25.621094 23.695312 26.042969 23.214844 C 26.34375 22.875 26.476562 22.757812 26.5625 22.757812 L 26.605469 22.765625 L 26.625 22.765625 L 26.683594 22.757812 L 27.101562 22.695312 C 27.25 22.695312 27.320312 22.746094 27.398438 22.9375 L 27.425781 22.992188 L 27.476562 23.042969 C 27.554688 23.105469 27.570312 23.140625 27.589844 23.234375 C 27.628906 23.417969 27.625 23.460938 27.589844 23.566406 C 27.382812 24.140625 27.035156 24.625 26.679688 24.816406 C 26.511719 24.914062 26.285156 24.953125 25.925781 24.953125 C 25.769531 25.476562 25.84375 25.792969 26.109375 25.792969 C 26.359375 25.792969 26.785156 25.578125 27.117188 25.269531 L 27.183594 25.242188 L 27.1875 25.308594 C 27.167969 25.359375 27.054688 25.492188 26.914062 25.644531 C 26.617188 25.941406 26.21875 26.113281 25.835938 26.113281 Z M 24.363281 26.230469 C 24.121094 26.230469 23.992188 26.058594 23.859375 25.566406 C 23.417969 25.953125 23.136719 26.097656 22.824219 26.097656 C 22.53125 26.097656 22.300781 25.921875 22.183594 25.613281 C 22.097656 25.398438 22.121094 25.121094 22.257812 24.734375 C 22.472656 24.128906 22.78125 23.636719 23.191406 23.253906 C 23.523438 22.953125 23.914062 22.765625 24.230469 22.765625 C 24.390625 22.765625 24.476562 22.816406 24.574219 22.984375 C 24.773438 22.527344 24.957031 22.105469 25.019531 21.964844 C 25.074219 21.847656 25.113281 21.75 25.140625 21.671875 C 25.175781 21.574219 25.179688 21.53125 25.148438 21.480469 L 25.125 21.402344 L 25.183594 21.273438 C 25.316406 21.238281 25.390625 21.226562 25.472656 21.226562 L 25.941406 21.253906 C 26.09375 21.425781 26.121094 21.480469 26.085938 21.582031 L 26.042969 21.660156 C 25.882812 21.898438 25.367188 23.117188 25.03125 24.03125 L 25 24.132812 L 24.667969 25.144531 C 24.492188 25.695312 24.421875 26.109375 24.523438 26.109375 L 24.59375 26.074219 L 24.585938 26.109375 C 24.457031 26.21875 24.433594 26.230469 24.363281 26.230469 Z M 33.503906 19.609375 Z M 29.246094 19.523438 Z M 32.96875 19.917969 C 33.03125 19.917969 33.1875 19.8125 33.5 19.542969 C 33.496094 19.332031 33.546875 19.082031 33.648438 18.796875 C 33.761719 18.480469 33.921875 18.175781 34.140625 17.863281 C 34.0625 17.898438 33.917969 17.914062 33.628906 17.9375 L 33.492188 17.949219 C 33.347656 18.292969 33.289062 18.449219 33.222656 18.632812 C 32.933594 19.449219 32.84375 19.917969 32.96875 19.917969 Z M 34.140625 17.863281 Z M 28.207031 18.878906 C 28.34375 18.878906 28.574219 18.761719 28.722656 18.613281 C 28.871094 18.464844 29.082031 18.144531 29.144531 17.96875 L 29.160156 17.917969 L 29.195312 17.769531 C 29.246094 17.570312 29.242188 17.511719 29.167969 17.503906 C 29.046875 17.503906 28.820312 17.6875 28.617188 17.949219 C 28.464844 18.144531 28.210938 18.570312 28.121094 18.820312 L 28.210938 18.878906 Z M 34.597656 18.878906 C 34.734375 18.878906 34.964844 18.761719 35.113281 18.613281 C 35.261719 18.464844 35.472656 18.144531 35.535156 17.96875 L 35.550781 17.917969 L 35.585938 17.769531 C 35.636719 17.570312 35.632812 17.511719 35.558594 17.503906 C 35.4375 17.503906 35.210938 17.6875 35.007812 17.949219 C 34.855469 18.144531 34.601562 18.570312 34.511719 18.820312 L 34.601562 18.878906 Z M 24.253906 19.921875 C 24.617188 19.921875 25.058594 19.457031 25.273438 18.847656 C 25.445312 18.359375 25.542969 17.730469 25.480469 17.382812 L 25.421875 17.359375 C 25.332031 17.359375 25.054688 17.597656 24.820312 17.878906 C 24.714844 18.015625 24.46875 18.371094 24.257812 18.699219 C 24.09375 18.964844 23.996094 19.160156 23.890625 19.46875 C 23.816406 19.675781 23.804688 19.738281 23.839844 19.824219 C 23.9375 19.835938 23.960938 19.84375 24.050781 19.875 C 24.144531 19.90625 24.199219 19.921875 24.257812 19.921875 Z M 26.425781 20.296875 C 26.144531 20.296875 25.941406 20.050781 25.921875 19.691406 C 25.917969 19.507812 26.007812 19.089844 26.140625 18.722656 C 26.175781 18.621094 26.28125 18.375 26.429688 18.027344 C 26.472656 17.949219 26.554688 17.742188 26.652344 17.472656 L 26.667969 17.402344 C 26.683594 17.351562 26.871094 17.273438 27.019531 17.253906 L 27.324219 17.214844 L 27.425781 17.265625 C 27.5 17.316406 27.539062 17.414062 27.507812 17.511719 L 27.441406 17.621094 C 27.292969 17.859375 26.90625 18.722656 26.730469 19.207031 C 26.535156 19.761719 26.503906 20.050781 26.65625 20.050781 L 26.730469 20 C 26.832031 19.914062 26.890625 19.875 26.914062 19.875 L 26.941406 19.875 C 26.800781 20.167969 26.636719 20.296875 26.429688 20.296875 Z M 22.363281 20.449219 C 22.144531 20.449219 22.011719 20.238281 22.019531 19.894531 C 22.023438 19.578125 22.109375 19.222656 22.347656 18.519531 C 22.136719 18.753906 22.019531 18.90625 21.628906 19.46875 L 21.34375 19.871094 L 21.296875 19.949219 C 21.230469 20.082031 21.203125 20.109375 21.101562 20.109375 C 20.941406 20.109375 20.820312 20.023438 20.699219 19.835938 C 20.664062 19.78125 20.664062 19.746094 20.679688 19.625 C 20.707031 19.496094 20.769531 19.269531 20.824219 19.113281 L 20.984375 18.714844 L 21.078125 18.5 C 20.929688 18.636719 20.832031 18.75 20.71875 18.917969 L 20.222656 19.675781 C 20.152344 19.785156 19.941406 20.050781 19.859375 20.140625 L 19.839844 20.164062 C 19.792969 20.222656 19.722656 20.257812 19.660156 20.257812 C 19.46875 20.257812 19.296875 20.054688 19.285156 19.8125 C 19.273438 19.589844 19.324219 19.351562 19.464844 18.957031 C 19.621094 18.511719 19.734375 18.222656 19.804688 18.074219 L 20.175781 17.316406 L 20.21875 17.207031 L 20.242188 17.125 C 20.261719 17.066406 20.320312 17.035156 20.429688 17.015625 L 20.503906 17.003906 L 20.621094 16.964844 C 20.652344 16.964844 20.699219 16.984375 20.761719 17.027344 L 21.003906 17.1875 C 21.019531 17.195312 21.019531 17.234375 20.992188 17.3125 L 20.941406 17.414062 C 20.765625 17.769531 20.652344 18.035156 20.558594 18.292969 L 20.476562 18.527344 L 21.242188 17.578125 C 21.34375 17.433594 21.457031 17.382812 21.691406 17.382812 C 21.894531 17.382812 22.050781 17.449219 22.070312 17.53125 C 22.089844 17.609375 22.070312 17.691406 21.980469 17.945312 C 21.960938 18 21.945312 18.054688 21.902344 18.148438 C 21.835938 18.304688 21.789062 18.421875 21.769531 18.464844 C 21.746094 18.535156 21.71875 18.628906 21.683594 18.75 L 22.777344 17.402344 C 22.886719 17.273438 22.90625 17.253906 22.984375 17.234375 C 23.03125 17.214844 23.203125 17.1875 23.253906 17.1875 C 23.40625 17.1875 23.476562 17.355469 23.410156 17.542969 L 23.398438 17.574219 L 22.984375 18.390625 C 22.820312 18.699219 22.730469 18.925781 22.570312 19.371094 C 22.507812 19.550781 22.457031 19.800781 22.4375 20.003906 C 22.425781 20.15625 22.4375 20.230469 22.488281 20.230469 L 22.539062 20.214844 L 22.71875 20.105469 C 22.558594 20.339844 22.441406 20.449219 22.359375 20.449219 Z M 29.613281 20.351562 C 29.457031 20.351562 29.355469 20.308594 29.277344 20.203125 C 29.179688 20.070312 29.15625 20.019531 29.144531 19.902344 L 29.191406 19.84375 L 29.21875 19.714844 C 29.226562 19.652344 29.234375 19.589844 29.246094 19.527344 C 29.207031 19.589844 29.109375 19.707031 28.992188 19.832031 C 28.695312 20.128906 28.296875 20.300781 27.914062 20.300781 C 27.695312 20.300781 27.449219 20.210938 27.316406 20.089844 C 27.058594 19.855469 27.042969 19.402344 27.257812 18.796875 C 27.425781 18.324219 27.695312 17.878906 28.121094 17.402344 C 28.421875 17.058594 28.550781 16.945312 28.640625 16.945312 L 28.683594 16.949219 L 28.703125 16.949219 L 28.761719 16.945312 L 29.179688 16.878906 C 29.328125 16.878906 29.398438 16.933594 29.476562 17.125 L 29.5 17.175781 L 29.554688 17.230469 C 29.632812 17.292969 29.644531 17.324219 29.667969 17.421875 C 29.707031 17.601562 29.703125 17.648438 29.667969 17.75 C 29.464844 18.324219 29.113281 18.808594 28.757812 19.003906 C 28.589844 19.101562 28.367188 19.136719 28.003906 19.136719 C 27.847656 19.660156 27.921875 19.976562 28.1875 19.976562 C 28.4375 19.976562 28.863281 19.765625 29.195312 19.453125 L 29.261719 19.429688 L 29.261719 19.453125 L 29.351562 19.136719 C 29.546875 18.589844 29.863281 17.898438 30.25 17.148438 L 30.261719 17.097656 L 30.273438 17.058594 L 30.324219 17.039062 L 30.40625 17.015625 C 30.503906 16.980469 30.65625 16.949219 30.695312 16.949219 C 30.789062 16.949219 30.867188 16.980469 30.898438 17.027344 L 30.921875 17.066406 L 30.957031 17.078125 C 31.042969 17.105469 31.089844 17.167969 31.058594 17.257812 L 31.019531 17.332031 C 30.996094 17.363281 30.929688 17.511719 30.84375 17.730469 L 30.660156 18.222656 C 30.632812 18.300781 30.621094 18.351562 30.597656 18.46875 C 31.175781 17.730469 31.515625 17.335938 31.636719 17.261719 C 31.691406 17.226562 31.917969 17.183594 32.066406 17.183594 L 32.140625 17.21875 L 32.195312 17.238281 L 32.195312 17.335938 C 32.195312 17.53125 32.148438 17.773438 32.070312 17.988281 C 32.046875 18.054688 31.984375 18.195312 31.757812 18.710938 C 31.683594 18.886719 31.625 19.027344 31.585938 19.136719 C 31.46875 19.472656 31.417969 19.71875 31.433594 19.875 L 31.554688 19.71875 L 31.582031 19.757812 L 31.546875 19.875 C 31.460938 20.125 31.367188 20.242188 31.234375 20.242188 L 31.195312 20.210938 L 31.128906 20.125 L 31.105469 20.105469 C 30.808594 19.894531 30.839844 19.449219 31.222656 18.355469 C 31.082031 18.46875 30.988281 18.601562 30.589844 19.261719 C 30.355469 19.648438 30.234375 19.847656 30.140625 19.972656 C 30.03125 20.121094 30.003906 20.152344 29.953125 20.261719 L 29.90625 20.292969 C 29.847656 20.324219 29.710938 20.351562 29.617188 20.351562 Z M 18.085938 18.972656 C 18.109375 18.636719 18.136719 18.421875 18.195312 18.003906 C 18.316406 17.164062 18.3125 17.152344 18.34375 16.800781 C 17.757812 17.695312 17.507812 18.023438 16.757812 18.882812 C 16.949219 18.875 17.109375 18.875 17.191406 18.875 C 17.582031 18.875 17.734375 18.894531 18.085938 18.972656 Z M 27.394531 16.851562 C 27.078125 16.851562 26.878906 16.585938 26.980469 16.300781 C 27.015625 16.195312 27.082031 16.085938 27.144531 16.015625 C 27.203125 15.945312 27.285156 15.914062 27.4375 15.894531 L 27.917969 15.820312 L 28.027344 15.820312 C 28.117188 15.820312 28.210938 15.859375 28.253906 15.917969 C 28.285156 15.957031 28.285156 16.007812 28.253906 16.113281 C 28.25 16.152344 28.222656 16.253906 28.199219 16.367188 C 27.933594 16.683594 27.65625 16.851562 27.394531 16.851562 Z M 34.304688 20.300781 C 34.089844 20.300781 33.839844 20.210938 33.707031 20.089844 C 33.585938 19.976562 33.515625 19.816406 33.503906 19.613281 C 33.441406 19.753906 33.339844 19.894531 33.214844 20.015625 C 33.101562 20.125 32.816406 20.269531 32.707031 20.269531 C 32.578125 20.269531 32.460938 20.191406 32.332031 20.015625 C 32.246094 19.902344 32.207031 19.667969 32.21875 19.417969 C 32.242188 19.085938 32.328125 18.75 32.625 17.90625 C 32.394531 17.886719 32.265625 17.785156 32.3125 17.65625 C 32.335938 17.582031 32.441406 17.464844 32.5 17.464844 L 32.582031 17.480469 C 32.605469 17.484375 32.644531 17.484375 32.726562 17.484375 L 32.796875 17.472656 C 33.148438 16.730469 33.417969 16.136719 33.457031 16.019531 C 33.476562 15.96875 33.484375 15.910156 33.484375 15.820312 L 33.496094 15.769531 C 33.515625 15.710938 33.796875 15.640625 34 15.640625 C 34.1875 15.640625 34.339844 15.722656 34.398438 15.859375 C 34.421875 15.917969 34.410156 16.066406 34.363281 16.203125 C 34.355469 16.222656 34.304688 16.304688 34.234375 16.414062 C 34.144531 16.5625 34.140625 16.570312 33.722656 17.441406 C 33.820312 17.441406 33.859375 17.453125 34.082031 17.558594 C 34.203125 17.613281 34.253906 17.65625 34.25 17.722656 L 34.515625 17.402344 C 34.816406 17.058594 34.945312 16.945312 35.035156 16.945312 L 35.074219 16.949219 L 35.09375 16.949219 L 35.15625 16.945312 L 35.574219 16.878906 C 35.71875 16.878906 35.789062 16.933594 35.867188 17.125 L 35.894531 17.175781 L 35.945312 17.230469 C 36.023438 17.292969 36.039062 17.324219 36.0625 17.421875 C 36.097656 17.601562 36.097656 17.648438 36.058594 17.75 C 35.855469 18.324219 35.503906 18.808594 35.148438 19.003906 C 34.980469 19.101562 34.757812 19.136719 34.394531 19.136719 C 34.242188 19.660156 34.3125 19.976562 34.582031 19.976562 C 34.828125 19.976562 35.253906 19.765625 35.589844 19.453125 L 35.65625 19.429688 L 35.65625 19.492188 C 35.640625 19.542969 35.527344 19.679688 35.386719 19.828125 C 35.089844 20.125 34.691406 20.300781 34.308594 20.300781 Z M 24.308594 20.328125 C 24.21875 20.328125 24.167969 20.308594 24.027344 20.222656 C 23.9375 20.171875 23.902344 20.160156 23.816406 20.152344 L 23.730469 20.167969 L 23.546875 20.199219 C 23.445312 20.199219 23.367188 20.160156 23.210938 20.019531 L 23.144531 19.972656 L 23.125 19.964844 L 23.109375 19.910156 L 23.074219 19.753906 C 23.011719 19.574219 23.082031 19.179688 23.257812 18.683594 C 23.394531 18.292969 23.507812 18.015625 23.757812 17.449219 C 24.164062 16.539062 24.304688 16.25 24.78125 15.46875 L 24.800781 15.460938 C 24.816406 15.460938 24.902344 15.449219 25.015625 15.429688 L 25.089844 15.421875 L 25.285156 15.441406 C 25.511719 15.472656 25.566406 15.5625 25.460938 15.867188 L 24.976562 16.796875 C 24.953125 16.847656 24.875 17.03125 24.832031 17.152344 L 24.871094 17.242188 L 24.984375 17.191406 C 25.191406 17.09375 25.296875 17.0625 25.429688 17.0625 C 25.742188 17.0625 25.851562 17.074219 25.917969 17.121094 C 26.03125 17.199219 26.066406 17.351562 26.0625 17.6875 C 26.058594 18.089844 25.972656 18.566406 25.839844 18.933594 C 25.597656 19.625 24.824219 20.328125 24.308594 20.328125 Z M 14.039062 20.636719 C 13.707031 20.636719 13.488281 20.480469 13.316406 20.113281 C 13.230469 19.933594 13.234375 19.679688 13.324219 19.421875 C 13.484375 18.972656 13.960938 18.414062 14.183594 18.414062 C 14.265625 18.414062 14.347656 18.570312 14.308594 18.679688 L 14.28125 18.699219 C 14.160156 18.738281 14.160156 18.738281 13.957031 19.222656 C 13.90625 19.339844 13.867188 19.796875 13.890625 19.976562 C 13.902344 20.089844 13.964844 20.164062 14.035156 20.164062 C 14.125 20.164062 14.328125 20.074219 14.574219 19.917969 C 14.761719 19.804688 14.925781 19.667969 15.21875 19.398438 C 14.863281 19.351562 14.746094 19.191406 14.859375 18.859375 L 14.90625 18.839844 L 14.984375 18.824219 L 15.015625 18.816406 C 15.035156 18.816406 15.074219 18.835938 15.199219 18.898438 L 15.296875 18.90625 L 15.730469 18.9375 C 16.109375 18.609375 16.402344 18.285156 16.988281 17.570312 C 17.507812 16.929688 18.34375 15.652344 18.394531 15.421875 C 18.476562 15.226562 18.574219 15.128906 18.707031 15.128906 C 18.746094 15.128906 18.835938 15.144531 18.957031 15.175781 C 18.988281 15.179688 19.0625 15.1875 19.171875 15.199219 C 19.542969 15.246094 19.6875 15.308594 19.722656 15.457031 L 19.773438 15.585938 C 19.675781 15.800781 19.609375 15.960938 19.566406 16.074219 C 19.40625 16.523438 19.039062 18.183594 18.894531 19.160156 C 18.804688 19.6875 18.800781 19.960938 18.882812 19.960938 L 18.949219 19.945312 L 18.945312 19.996094 C 18.90625 20.109375 18.710938 20.25 18.59375 20.25 C 18.417969 20.25 18.300781 20.179688 18.234375 20.011719 C 18.152344 19.796875 18.101562 19.589844 18.003906 19.34375 L 17.914062 19.339844 C 17.824219 19.339844 17.695312 19.34375 17.339844 19.378906 C 16.886719 19.410156 16.796875 19.417969 16.179688 19.460938 L 16.132812 19.507812 C 15.511719 20.042969 15.414062 20.113281 15.027344 20.347656 C 14.71875 20.53125 14.359375 20.636719 14.039062 20.636719 Z M 14.039062 20.636719 " clip-rule="nonzero"/></clipPath><linearGradient x1="282.85999" gradientTransform="matrix(0.0919702, 0, 0, -0.091604, -1.345082, 47.003475)" y1="149.289586" x2="282.841" gradientUnits="userSpaceOnUse" y2="347.962218" id="e414675636"><stop stop-opacity="1" stop-color="rgb(83.139038%, 53.329468%, 8.628845%)" offset="0"/><stop stop-opacity="1" stop-color="rgb(83.139038%, 53.329468%, 8.628845%)" offset="0.000119623"/><stop stop-opacity="1" stop-color="rgb(83.139038%, 53.329468%, 8.628845%)" offset="0.015625"/><stop stop-opacity="1" stop-color="rgb(83.149719%, 53.340149%, 8.628845%)" offset="0.0234375"/><stop stop-opacity="1" stop-color="rgb(83.345032%, 53.546143%, 8.628845%)" offset="0.03125"/><stop stop-opacity="1" stop-color="rgb(83.531189%, 53.93219%, 8.628845%)" offset="0.0390625"/><stop stop-opacity="1" stop-color="rgb(83.72345%, 54.312134%, 8.628845%)" offset="0.046875"/><stop stop-opacity="1" stop-color="rgb(84.103394%, 54.693604%, 8.628845%)" offset="0.0546875"/><stop stop-opacity="1" stop-color="rgb(84.301758%, 55.075073%, 8.628845%)" offset="0.0625"/><stop stop-opacity="1" stop-color="rgb(84.509277%, 55.485535%, 8.628845%)" offset="0.0664062"/><stop stop-opacity="1" stop-color="rgb(84.709167%, 55.705261%, 8.628845%)" offset="0.0703125"/><stop stop-opacity="1" stop-color="rgb(84.712219%, 55.89447%, 8.628845%)" offset="0.078125"/><stop stop-opacity="1" stop-color="rgb(84.906006%, 56.27594%, 8.628845%)" offset="0.0859375"/><stop stop-opacity="1" stop-color="rgb(85.28595%, 56.65741%, 8.628845%)" offset="0.09375"/><stop stop-opacity="1" stop-color="rgb(85.482788%, 57.037354%, 8.444214%)" offset="0.101562"/><stop stop-opacity="1" stop-color="rgb(85.693359%, 57.447815%, 8.248901%)" offset="0.105469"/><stop stop-opacity="1" stop-color="rgb(85.897827%, 57.667542%, 8.239746%)" offset="0.109375"/><stop stop-opacity="1" stop-color="rgb(86.082458%, 57.858276%, 8.239746%)" offset="0.117188"/><stop stop-opacity="1" stop-color="rgb(86.268616%, 58.23822%, 8.239746%)" offset="0.125"/><stop stop-opacity="1" stop-color="rgb(86.465454%, 58.61969%, 8.239746%)" offset="0.132812"/><stop stop-opacity="1" stop-color="rgb(86.665344%, 59.005737%, 8.239746%)" offset="0.140625"/><stop stop-opacity="1" stop-color="rgb(86.87439%, 59.416199%, 8.239746%)" offset="0.144531"/><stop stop-opacity="1" stop-color="rgb(87.080383%, 59.631348%, 8.239746%)" offset="0.148438"/><stop stop-opacity="1" stop-color="rgb(87.265015%, 59.820557%, 8.239746%)" offset="0.15625"/><stop stop-opacity="1" stop-color="rgb(87.451172%, 60.202026%, 8.239746%)" offset="0.164062"/><stop stop-opacity="1" stop-color="rgb(87.643433%, 60.58197%, 8.239746%)" offset="0.171875"/><stop stop-opacity="1" stop-color="rgb(87.835693%, 60.968018%, 8.239746%)" offset="0.179688"/><stop stop-opacity="1" stop-color="rgb(88.026428%, 61.170959%, 8.239746%)" offset="0.1875"/><stop stop-opacity="1" stop-color="rgb(88.421631%, 61.381531%, 8.239746%)" offset="0.191406"/><stop stop-opacity="1" stop-color="rgb(88.62915%, 61.584473%, 8.239746%)" offset="0.195313"/><stop stop-opacity="1" stop-color="rgb(88.632202%, 61.775208%, 8.239746%)" offset="0.203125"/><stop stop-opacity="1" stop-color="rgb(88.825989%, 62.155151%, 8.239746%)" offset="0.210938"/><stop stop-opacity="1" stop-color="rgb(89.205933%, 62.541199%, 8.239746%)" offset="0.21875"/><stop stop-opacity="1" stop-color="rgb(89.402771%, 62.927246%, 8.239746%)" offset="0.226563"/><stop stop-opacity="1" stop-color="rgb(89.604187%, 63.33313%, 8.239746%)" offset="0.230469"/><stop stop-opacity="1" stop-color="rgb(89.7995%, 63.548279%, 8.239746%)" offset="0.234375"/><stop stop-opacity="1" stop-color="rgb(89.804077%, 63.737488%, 8.239746%)" offset="0.242188"/><stop stop-opacity="1" stop-color="rgb(90.003967%, 64.118958%, 8.239746%)" offset="0.25"/><stop stop-opacity="1" stop-color="rgb(90.390015%, 64.505005%, 8.044434%)" offset="0.257813"/><stop stop-opacity="1" stop-color="rgb(90.585327%, 64.891052%, 7.844543%)" offset="0.265625"/><stop stop-opacity="1" stop-color="rgb(90.783691%, 65.29541%, 7.839966%)" offset="0.269531"/><stop stop-opacity="1" stop-color="rgb(90.979004%, 65.510559%, 7.839966%)" offset="0.273438"/><stop stop-opacity="1" stop-color="rgb(90.985107%, 65.701294%, 7.839966%)" offset="0.28125"/><stop stop-opacity="1" stop-color="rgb(91.181946%, 66.081238%, 7.839966%)" offset="0.289062"/><stop stop-opacity="1" stop-color="rgb(91.56189%, 66.467285%, 7.839966%)" offset="0.296875"/><stop stop-opacity="1" stop-color="rgb(91.755676%, 66.853333%, 7.839966%)" offset="0.304688"/><stop stop-opacity="1" stop-color="rgb(91.946411%, 67.234802%, 7.839966%)" offset="0.3125"/><stop stop-opacity="1" stop-color="rgb(92.341614%, 67.63916%, 7.839966%)" offset="0.316406"/><stop stop-opacity="1" stop-color="rgb(92.549133%, 67.854309%, 7.839966%)" offset="0.320313"/><stop stop-opacity="1" stop-color="rgb(92.552185%, 68.049622%, 7.839966%)" offset="0.328125"/><stop stop-opacity="1" stop-color="rgb(92.745972%, 68.435669%, 7.839966%)" offset="0.335938"/><stop stop-opacity="1" stop-color="rgb(92.938232%, 68.817139%, 7.839966%)" offset="0.34375"/><stop stop-opacity="1" stop-color="rgb(93.122864%, 69.197083%, 7.839966%)" offset="0.351562"/><stop stop-opacity="1" stop-color="rgb(93.518066%, 69.602966%, 7.839966%)" offset="0.355469"/><stop stop-opacity="1" stop-color="rgb(93.728638%, 69.818115%, 7.839966%)" offset="0.359375"/><stop stop-opacity="1" stop-color="rgb(93.733215%, 70.013428%, 7.839966%)" offset="0.367188"/><stop stop-opacity="1" stop-color="rgb(93.928528%, 70.397949%, 7.839966%)" offset="0.375"/><stop stop-opacity="1" stop-color="rgb(94.119263%, 70.779419%, 7.839966%)" offset="0.382812"/><stop stop-opacity="1" stop-color="rgb(94.30542%, 71.160889%, 7.839966%)" offset="0.390625"/><stop stop-opacity="1" stop-color="rgb(94.694519%, 71.554565%, 7.839966%)" offset="0.394531"/><stop stop-opacity="1" stop-color="rgb(94.898987%, 71.759033%, 7.839966%)" offset="0.398438"/><stop stop-opacity="1" stop-color="rgb(94.90509%, 71.765137%, 7.832336%)" offset="0.40625"/><stop stop-opacity="1" stop-color="rgb(95.101929%, 71.966553%, 7.637024%)" offset="0.414063"/><stop stop-opacity="1" stop-color="rgb(95.487976%, 72.3526%, 7.449341%)" offset="0.421875"/><stop stop-opacity="1" stop-color="rgb(95.68634%, 72.73407%, 7.449341%)" offset="0.429687"/><stop stop-opacity="1" stop-color="rgb(95.872498%, 73.114014%, 7.449341%)" offset="0.4375"/><stop stop-opacity="1" stop-color="rgb(96.075439%, 73.524475%, 7.449341%)" offset="0.441406"/><stop stop-opacity="1" stop-color="rgb(96.095276%, 73.744202%, 7.449341%)" offset="0.445312"/><stop stop-opacity="1" stop-color="rgb(96.284485%, 73.934937%, 7.449341%)" offset="0.453125"/><stop stop-opacity="1" stop-color="rgb(96.665955%, 74.31488%, 7.449341%)" offset="0.460938"/><stop stop-opacity="1" stop-color="rgb(96.858215%, 74.69635%, 7.449341%)" offset="0.46875"/><stop stop-opacity="1" stop-color="rgb(97.042847%, 75.07782%, 7.449341%)" offset="0.476562"/><stop stop-opacity="1" stop-color="rgb(97.25647%, 75.497437%, 7.467651%)" offset="0.480469"/><stop stop-opacity="1" stop-color="rgb(97.286987%, 75.726318%, 7.485962%)" offset="0.484375"/><stop stop-opacity="1" stop-color="rgb(97.467041%, 75.91095%, 7.672119%)" offset="0.492188"/><stop stop-opacity="1" stop-color="rgb(97.648621%, 76.283264%, 8.43811%)" offset="0.496094"/><stop stop-opacity="1" stop-color="rgb(97.648621%, 76.469421%, 9.01947%)" offset="0.5"/><stop stop-opacity="1" stop-color="rgb(97.648621%, 76.663208%, 9.399414%)" offset="0.503906"/><stop stop-opacity="1" stop-color="rgb(97.648621%, 76.858521%, 9.780884%)" offset="0.507812"/><stop stop-opacity="1" stop-color="rgb(97.648621%, 77.035522%, 10.166931%)" offset="0.511719"/><stop stop-opacity="1" stop-color="rgb(97.648621%, 77.212524%, 10.552979%)" offset="0.515625"/><stop stop-opacity="1" stop-color="rgb(97.648621%, 77.252197%, 11.177063%)" offset="0.519531"/><stop stop-opacity="1" stop-color="rgb(97.648621%, 77.293396%, 11.802673%)" offset="0.523438"/><stop stop-opacity="1" stop-color="rgb(97.648621%, 77.470398%, 12.187195%)" offset="0.527344"/><stop stop-opacity="1" stop-color="rgb(97.648621%, 77.648926%, 12.573242%)" offset="0.53125"/><stop stop-opacity="1" stop-color="rgb(97.648621%, 77.844238%, 12.954712%)" offset="0.535156"/><stop stop-opacity="1" stop-color="rgb(97.648621%, 78.039551%, 13.336182%)" offset="0.539062"/><stop stop-opacity="1" stop-color="rgb(97.648621%, 78.227234%, 13.720703%)" offset="0.542969"/><stop stop-opacity="1" stop-color="rgb(97.648621%, 78.416443%, 14.10675%)" offset="0.546875"/><stop stop-opacity="1" stop-color="rgb(97.648621%, 78.422546%, 14.682007%)" offset="0.550781"/><stop stop-opacity="1" stop-color="rgb(97.648621%, 78.42865%, 15.258789%)" offset="0.554688"/><stop stop-opacity="1" stop-color="rgb(97.648621%, 78.623962%, 15.644836%)" offset="0.558594"/><stop stop-opacity="1" stop-color="rgb(97.648621%, 78.819275%, 16.030884%)" offset="0.5625"/><stop stop-opacity="1" stop-color="rgb(97.648621%, 79.019165%, 16.474915%)" offset="0.566406"/><stop stop-opacity="1" stop-color="rgb(97.648621%, 79.219055%, 16.920471%)" offset="0.570312"/><stop stop-opacity="1" stop-color="rgb(97.654724%, 79.414368%, 17.485046%)" offset="0.574219"/><stop stop-opacity="1" stop-color="rgb(97.660828%, 79.60968%, 18.051147%)" offset="0.578125"/><stop stop-opacity="1" stop-color="rgb(97.850037%, 79.60968%, 18.431091%)" offset="0.582031"/><stop stop-opacity="1" stop-color="rgb(98.039246%, 79.60968%, 18.812561%)" offset="0.585937"/><stop stop-opacity="1" stop-color="rgb(98.039246%, 79.803467%, 19.198608%)" offset="0.589844"/><stop stop-opacity="1" stop-color="rgb(98.039246%, 79.998779%, 19.584656%)" offset="0.59375"/><stop stop-opacity="1" stop-color="rgb(98.039246%, 80.172729%, 20.13855%)" offset="0.597656"/><stop stop-opacity="1" stop-color="rgb(98.039246%, 80.34668%, 20.69397%)" offset="0.601562"/><stop stop-opacity="1" stop-color="rgb(98.039246%, 80.386353%, 21.150208%)" offset="0.605469"/><stop stop-opacity="1" stop-color="rgb(98.039246%, 80.426025%, 21.606445%)" offset="0.609375"/><stop stop-opacity="1" stop-color="rgb(98.039246%, 80.612183%, 21.986389%)" offset="0.613281"/><stop stop-opacity="1" stop-color="rgb(98.039246%, 80.79834%, 22.367859%)" offset="0.617188"/><stop stop-opacity="1" stop-color="rgb(98.039246%, 80.989075%, 22.947693%)" offset="0.621094"/><stop stop-opacity="1" stop-color="rgb(98.039246%, 81.17981%, 23.529053%)" offset="0.625"/><stop stop-opacity="1" stop-color="rgb(98.039246%, 81.364441%, 23.908997%)" offset="0.628906"/><stop stop-opacity="1" stop-color="rgb(98.039246%, 81.550598%, 24.290466%)" offset="0.632812"/><stop stop-opacity="1" stop-color="rgb(98.039246%, 81.559753%, 24.676514%)" offset="0.636719"/><stop stop-opacity="1" stop-color="rgb(98.039246%, 81.568909%, 25.062561%)" offset="0.640625"/><stop stop-opacity="1" stop-color="rgb(98.039246%, 81.785583%, 25.514221%)" offset="0.644531"/><stop stop-opacity="1" stop-color="rgb(98.039246%, 82.002258%, 25.965881%)" offset="0.648438"/><stop stop-opacity="1" stop-color="rgb(98.039246%, 82.174683%, 26.524353%)" offset="0.652344"/><stop stop-opacity="1" stop-color="rgb(98.039246%, 82.348633%, 27.084351%)" offset="0.65625"/><stop stop-opacity="1" stop-color="rgb(98.039246%, 82.548523%, 27.464294%)" offset="0.660156"/><stop stop-opacity="1" stop-color="rgb(98.039246%, 82.749939%, 27.845764%)" offset="0.664063"/><stop stop-opacity="1" stop-color="rgb(98.039246%, 82.749939%, 28.230286%)" offset="0.667969"/><stop stop-opacity="1" stop-color="rgb(98.039246%, 82.749939%, 28.616333%)" offset="0.671875"/><stop stop-opacity="1" stop-color="rgb(98.039246%, 82.943726%, 29.191589%)" offset="0.675781"/><stop stop-opacity="1" stop-color="rgb(98.039246%, 83.139038%, 29.768372%)" offset="0.679688"/><stop stop-opacity="1" stop-color="rgb(98.039246%, 83.309937%, 30.154419%)" offset="0.683594"/><stop stop-opacity="1" stop-color="rgb(98.039246%, 83.480835%, 30.540466%)" offset="0.6875"/><stop stop-opacity="1" stop-color="rgb(98.039246%, 83.699036%, 30.969238%)" offset="0.691406"/><stop stop-opacity="1" stop-color="rgb(98.039246%, 83.918762%, 31.399536%)" offset="0.695312"/><stop stop-opacity="1" stop-color="rgb(98.039246%, 83.924866%, 31.97937%)" offset="0.699219"/><stop stop-opacity="1" stop-color="rgb(98.039246%, 83.930969%, 32.56073%)" offset="0.703125"/><stop stop-opacity="1" stop-color="rgb(98.039246%, 84.120178%, 32.9422%)" offset="0.707031"/><stop stop-opacity="1" stop-color="rgb(98.039246%, 84.309387%, 33.323669%)" offset="0.710938"/><stop stop-opacity="1" stop-color="rgb(98.039246%, 84.49707%, 33.708191%)" offset="0.714844"/><stop stop-opacity="1" stop-color="rgb(98.039246%, 84.684753%, 34.094238%)" offset="0.71875"/><stop stop-opacity="1" stop-color="rgb(98.039246%, 84.870911%, 34.648132%)" offset="0.722656"/><stop stop-opacity="1" stop-color="rgb(98.039246%, 85.057068%, 35.203552%)" offset="0.726562"/><stop stop-opacity="1" stop-color="rgb(98.039246%, 85.096741%, 35.65979%)" offset="0.730469"/><stop stop-opacity="1" stop-color="rgb(98.039246%, 85.136414%, 36.116028%)" offset="0.734375"/><stop stop-opacity="1" stop-color="rgb(98.039246%, 85.31189%, 36.495972%)" offset="0.738281"/><stop stop-opacity="1" stop-color="rgb(98.039246%, 85.488892%, 36.877441%)" offset="0.742188"/><stop stop-opacity="1" stop-color="rgb(98.039246%, 85.684204%, 37.263489%)" offset="0.746094"/><stop stop-opacity="1" stop-color="rgb(98.039246%, 85.879517%, 37.649536%)" offset="0.75"/><stop stop-opacity="1" stop-color="rgb(98.039246%, 85.879517%, 38.224792%)" offset="0.753906"/><stop stop-opacity="1" stop-color="rgb(98.039246%, 85.879517%, 38.801575%)" offset="0.757812"/><stop stop-opacity="1" stop-color="rgb(98.216248%, 86.073303%, 39.186096%)" offset="0.761719"/><stop stop-opacity="1" stop-color="rgb(98.39325%, 86.268616%, 39.572144%)" offset="0.765625"/><stop stop-opacity="1" stop-color="rgb(98.41156%, 86.468506%, 40.023804%)" offset="0.769531"/><stop stop-opacity="1" stop-color="rgb(98.429871%, 86.669922%, 40.475464%)" offset="0.773438"/><stop stop-opacity="1" stop-color="rgb(98.429871%, 86.863708%, 41.033936%)" offset="0.777344"/><stop stop-opacity="1" stop-color="rgb(98.429871%, 87.059021%, 41.593933%)" offset="0.78125"/><stop stop-opacity="1" stop-color="rgb(98.429871%, 87.062073%, 41.973877%)" offset="0.785156"/><stop stop-opacity="1" stop-color="rgb(98.429871%, 87.065125%, 42.355347%)" offset="0.789063"/><stop stop-opacity="1" stop-color="rgb(98.429871%, 87.257385%, 42.741394%)" offset="0.792969"/><stop stop-opacity="1" stop-color="rgb(98.429871%, 87.449646%, 43.127441%)" offset="0.796875"/><stop stop-opacity="1" stop-color="rgb(98.429871%, 87.628174%, 43.687439%)" offset="0.800781"/><stop stop-opacity="1" stop-color="rgb(98.429871%, 87.808228%, 44.247437%)" offset="0.804688"/><stop stop-opacity="1" stop-color="rgb(98.429871%, 87.998962%, 44.648743%)" offset="0.808594"/><stop stop-opacity="1" stop-color="rgb(98.429871%, 88.189697%, 45.050049%)" offset="0.8125"/><stop stop-opacity="1" stop-color="rgb(98.429871%, 88.22937%, 45.478821%)" offset="0.816406"/><stop stop-opacity="1" stop-color="rgb(98.429871%, 88.269043%, 45.909119%)" offset="0.820313"/><stop stop-opacity="1" stop-color="rgb(98.429871%, 88.449097%, 46.490479%)" offset="0.824219"/><stop stop-opacity="1" stop-color="rgb(98.429871%, 88.62915%, 47.071838%)" offset="0.828125"/><stop stop-opacity="1" stop-color="rgb(98.429871%, 88.821411%, 47.451782%)" offset="0.832031"/><stop stop-opacity="1" stop-color="rgb(98.429871%, 89.013672%, 47.833252%)" offset="0.835938"/><stop stop-opacity="1" stop-color="rgb(98.429871%, 89.198303%, 48.219299%)" offset="0.839844"/><stop stop-opacity="1" stop-color="rgb(98.429871%, 89.38446%, 48.605347%)" offset="0.84375"/><stop stop-opacity="1" stop-color="rgb(98.429871%, 89.396667%, 48.985291%)" offset="0.847656"/><stop stop-opacity="1" stop-color="rgb(98.429871%, 89.408875%, 49.36676%)" offset="0.851562"/><stop stop-opacity="1" stop-color="rgb(98.429871%, 89.604187%, 49.995422%)" offset="0.855469"/><stop stop-opacity="1" stop-color="rgb(98.429871%, 89.7995%, 50.62561%)" offset="0.859375"/><stop stop-opacity="1" stop-color="rgb(98.429871%, 89.99939%, 51.005554%)" offset="0.863281"/><stop stop-opacity="1" stop-color="rgb(98.429871%, 90.19928%, 51.387024%)" offset="0.867188"/><stop stop-opacity="1" stop-color="rgb(98.429871%, 90.19928%, 51.773071%)" offset="0.871094"/><stop stop-opacity="1" stop-color="rgb(98.429871%, 90.19928%, 52.159119%)" offset="0.875"/><stop stop-opacity="1" stop-color="rgb(98.429871%, 90.394592%, 52.734375%)" offset="0.878906"/><stop stop-opacity="1" stop-color="rgb(98.429871%, 90.589905%, 53.311157%)" offset="0.882813"/><stop stop-opacity="1" stop-color="rgb(98.429871%, 90.783691%, 53.695679%)" offset="0.886719"/><stop stop-opacity="1" stop-color="rgb(98.429871%, 90.979004%, 54.081726%)" offset="0.890625"/><stop stop-opacity="1" stop-color="rgb(98.429871%, 91.174316%, 54.512024%)" offset="0.894531"/><stop stop-opacity="1" stop-color="rgb(98.429871%, 91.369629%, 54.942322%)" offset="0.898438"/><stop stop-opacity="1" stop-color="rgb(98.429871%, 91.381836%, 55.522156%)" offset="0.902344"/><stop stop-opacity="1" stop-color="rgb(98.429871%, 91.394043%, 56.103516%)" offset="0.90625"/><stop stop-opacity="1" stop-color="rgb(98.429871%, 91.578674%, 56.483459%)" offset="0.910156"/><stop stop-opacity="1" stop-color="rgb(98.429871%, 91.764832%, 56.864929%)" offset="0.914062"/><stop stop-opacity="1" stop-color="rgb(98.429871%, 91.96167%, 57.250977%)" offset="0.917969"/><stop stop-opacity="1" stop-color="rgb(98.429871%, 92.158508%, 57.637024%)" offset="0.921875"/><stop stop-opacity="1" stop-color="rgb(98.429871%, 92.338562%, 58.197021%)" offset="0.925781"/><stop stop-opacity="1" stop-color="rgb(98.429871%, 92.518616%, 58.757019%)" offset="0.929688"/><stop stop-opacity="1" stop-color="rgb(98.429871%, 92.533875%, 59.158325%)" offset="0.933594"/><stop stop-opacity="1" stop-color="rgb(98.429871%, 92.549133%, 59.559631%)" offset="0.9375"/><stop stop-opacity="1" stop-color="rgb(98.429871%, 92.744446%, 59.988403%)" offset="0.941406"/><stop stop-opacity="1" stop-color="rgb(98.429871%, 92.939758%, 60.418701%)" offset="0.945312"/><stop stop-opacity="1" stop-color="rgb(98.623657%, 93.133545%, 60.810852%)" offset="0.949219"/><stop stop-opacity="1" stop-color="rgb(98.81897%, 93.328857%, 61.203003%)" offset="0.953125"/><stop stop-opacity="1" stop-color="rgb(98.81897%, 93.525696%, 61.772156%)" offset="0.957031"/><stop stop-opacity="1" stop-color="rgb(98.81897%, 93.722534%, 62.342834%)" offset="0.960938"/><stop stop-opacity="1" stop-color="rgb(98.81897%, 93.725586%, 62.728882%)" offset="0.964844"/><stop stop-opacity="1" stop-color="rgb(98.81897%, 93.728638%, 63.114929%)" offset="0.96875"/><stop stop-opacity="1" stop-color="rgb(98.81897%, 93.92395%, 63.494873%)" offset="0.972656"/><stop stop-opacity="1" stop-color="rgb(98.81897%, 94.119263%, 63.876343%)" offset="0.976563"/><stop stop-opacity="1" stop-color="rgb(98.81897%, 94.314575%, 64.505005%)" offset="0.980469"/><stop stop-opacity="1" stop-color="rgb(98.81897%, 94.509888%, 65.135193%)" offset="0.984375"/><stop stop-opacity="1" stop-color="rgb(98.81897%, 94.703674%, 65.515137%)" offset="0.988281"/><stop stop-opacity="1" stop-color="rgb(98.81897%, 94.898987%, 65.896606%)" offset="0.992188"/><stop stop-opacity="1" stop-color="rgb(98.81897%, 94.898987%, 66.282654%)" offset="0.996094"/><stop stop-opacity="1" stop-color="rgb(98.81897%, 94.898987%, 66.668701%)" offset="1"/></linearGradient></defs><g clip-path="url(#8fb9cf3582)"><g clip-path="url(#adcf881212)"><path fill="url(#a1234998b0)" d="M 1.796875 45.851562 L 1.796875 1.261719 L 46.570312 1.261719 L 46.570312 45.851562 Z M 1.796875 45.851562 " fill-rule="nonzero"/></g></g><g clip-path="url(#3386b2858d)"><g clip-path="url(#a589c348ba)"><path fill="url(#e414675636)" d="M 13.230469 33.328125 L 13.230469 15.128906 L 36.097656 15.128906 L 36.097656 33.328125 Z M 13.230469 33.328125 " fill-rule="nonzero"/></g></g></svg>