<svg xmlns="http://www.w3.org/2000/svg" xmlns:xlink="http://www.w3.org/1999/xlink" width="741" zoomAndPan="magnify" viewBox="0 0 555.75 567.000005" height="756" preserveAspectRatio="xMidYMid meet" version="1.0"><defs><clipPath id="9c90e556ac"><path d="M 0.0625 0.207031 L 529.769531 0.207031 L 529.769531 529.914062 L 0.0625 529.914062 Z M 0.0625 0.207031 " clip-rule="nonzero"/></clipPath><clipPath id="3dfeefe025"><path d="M 326.84375 442.226562 C 323.105469 442.226562 320.070312 439.195312 320.070312 435.457031 C 320.070312 431.71875 323.105469 428.683594 326.84375 428.683594 C 330.582031 428.683594 333.617188 431.71875 333.617188 435.457031 C 333.617188 439.195312 330.582031 442.226562 326.84375 442.226562 Z M 363.757812 417.695312 C 360.019531 417.695312 356.984375 414.664062 356.984375 410.921875 C 356.984375 407.183594 360.019531 404.152344 363.757812 404.152344 C 367.496094 404.152344 370.53125 407.183594 370.53125 410.921875 C 370.53125 414.664062 367.496094 417.695312 363.757812 417.695312 Z M 394.128906 392.695312 C 390.390625 392.695312 387.355469 389.660156 387.355469 385.921875 C 387.355469 382.183594 390.390625 379.152344 394.128906 379.152344 C 397.867188 379.152344 400.898438 382.183594 400.898438 385.921875 C 400.898438 389.660156 397.867188 392.695312 394.128906 392.695312 Z M 417.257812 367.933594 C 413.519531 367.933594 410.488281 364.898438 410.488281 361.160156 C 410.488281 357.421875 413.519531 354.390625 417.257812 354.390625 C 421 354.390625 424.03125 357.421875 424.03125 361.160156 C 424.03125 364.898438 421 367.933594 417.257812 367.933594 Z M 87.457031 231.332031 C 87.457031 231.332031 96.890625 220.210938 101.238281 214.886719 C 105.589844 209.558594 107.285156 203.527344 107.285156 203.527344 C 107.285156 203.527344 93.023438 213.441406 91.566406 218.515625 C 90.109375 223.59375 87.457031 231.332031 87.457031 231.332031 Z M 73.433594 242.691406 C 73.433594 242.691406 71.261719 234.472656 69.085938 220.929688 C 66.914062 207.386719 57.476562 199.894531 57.476562 199.894531 C 57.476562 199.894531 64.011719 226.496094 67.152344 234.234375 C 70.292969 241.972656 73.433594 242.703125 73.433594 242.703125 Z M 92.121094 208.144531 C 93.566406 205.613281 95.75 201.832031 98.085938 197.972656 C 102.195312 191.199219 106.554688 185.394531 106.554688 185.394531 C 106.554688 185.394531 102.4375 187.90625 98.597656 191.320312 C 96.175781 196.789062 94.011719 202.40625 92.121094 208.144531 Z M 79.71875 198.6875 C 79.71875 198.6875 82.378906 176.929688 80.195312 171.613281 C 80.195312 171.613281 76.226562 183.4375 77.066406 189.449219 C 77.902344 195.460938 79.707031 198.6875 79.707031 198.6875 Z M 106.566406 175.472656 C 108.640625 175.320312 116.382812 174.480469 120.828125 170.449219 C 126 165.765625 127.796875 161.320312 127.796875 161.320312 C 127.796875 161.320312 123.230469 165.40625 119.023438 167.089844 C 114.816406 168.777344 113.371094 171.535156 110.492188 172.980469 C 108.804688 173.820312 107.578125 174.535156 106.839844 174.992188 Z M 120.109375 157.351562 C 120.109375 157.351562 124.195312 153.382812 127.566406 151.9375 C 130.9375 150.492188 137.1875 148.570312 137.1875 148.570312 C 137.1875 148.570312 135.351562 148.339844 133.035156 148.339844 C 130.566406 148.339844 127.566406 148.589844 125.652344 149.644531 C 121.925781 151.6875 120.121094 157.339844 120.121094 157.339844 Z M 97.292969 164.382812 C 98.382812 163.296875 108.230469 141.308594 107.152344 135.175781 L 105.347656 133.015625 C 105.347656 133.015625 105.1875 132.828125 104.914062 132.828125 C 104.328125 132.828125 103.25 133.675781 102.347656 139.023438 C 101.023438 146.839844 95.980469 162.589844 95.980469 162.589844 L 97.304688 164.394531 Z M 264.746094 455.640625 C 212.070312 455.640625 164.371094 434.292969 129.847656 399.769531 C 95.328125 365.25 73.976562 317.5625 73.976562 264.875 C 73.976562 261.648438 74.054688 258.441406 74.21875 255.246094 L 71.914062 256.941406 C 59.652344 250.34375 57.574219 238.972656 55.5 227.808594 C 53.421875 216.644531 47.859375 202.796875 45.164062 196.808594 C 42.464844 190.820312 39.378906 183.167969 42.269531 181.308594 C 43.464844 180.535156 44.585938 180.058594 45.976562 180.058594 C 47.957031 180.058594 50.457031 181.035156 54.457031 183.589844 C 61.273438 187.929688 67.347656 198.210938 67.347656 198.210938 C 63.238281 183.699219 67.109375 138.253906 78.46875 136.796875 C 78.78125 136.753906 79.085938 136.742188 79.371094 136.742188 C 88.828125 136.742188 87.078125 157.210938 86.738281 160.523438 C 88.207031 147.382812 91.304688 134.492188 94.914062 126.644531 C 101.152344 113.066406 89.03125 92.402344 100.480469 91.589844 C 116.675781 94.25 114.742188 141.871094 114.742188 141.871094 L 118.609375 137.273438 C 115.46875 106.804688 146.414062 90.371094 152.457031 88.675781 C 158.503906 86.980469 169.382812 81.664062 172.523438 71.75 C 175.664062 61.839844 182.199219 61.109375 182.199219 61.109375 C 182.316406 61.109375 182.449219 61.109375 182.566406 61.109375 C 197.558594 61.109375 185.621094 83.6875 179.164062 94.339844 C 204.90625 81.402344 233.972656 74.109375 264.734375 74.109375 C 317.410156 74.109375 365.105469 95.457031 399.628906 129.980469 C 434.152344 164.503906 455.5 212.191406 455.5 264.875 C 455.5 279.660156 453.78125 294.34375 450.402344 308.660156 C 447.019531 322.976562 442 336.898438 435.390625 350.117188 C 434.597656 351.714844 432.988281 352.640625 431.3125 352.640625 C 430.628906 352.640625 429.945312 352.488281 429.292969 352.160156 C 427.042969 351.042969 426.128906 348.3125 427.25 346.0625 C 433.554688 333.441406 438.335938 320.203125 441.554688 306.59375 C 444.769531 292.984375 446.402344 278.984375 446.402344 264.875 C 446.402344 214.710938 426.0625 169.296875 393.195312 136.425781 C 360.324219 103.554688 314.910156 83.21875 264.746094 83.21875 C 222.980469 83.21875 184.515625 97.304688 153.839844 120.992188 C 151.003906 125.4375 149.707031 128.601562 149.707031 128.601562 C 153.9375 126.230469 158.425781 125.546875 162.992188 125.546875 C 169.339844 125.546875 175.816406 126.882812 181.90625 126.882812 C 183.242188 126.882812 184.558594 126.816406 185.851562 126.664062 C 194.960938 125.558594 204.070312 116.285156 208.492188 116.285156 C 209.613281 116.285156 210.425781 116.871094 210.875 118.328125 C 213.101562 125.558594 210.320312 124.71875 197.1875 137.851562 C 188.949219 146.089844 173.035156 147.632812 162.328125 147.632812 C 155.992188 147.632812 151.480469 147.089844 151.480469 147.089844 C 151.480469 162.65625 116.957031 182.589844 116.957031 182.589844 C 131.761719 203.136719 95.445312 237.601562 83.882812 247.757812 C 83.347656 253.398438 83.078125 259.105469 83.078125 264.875 C 83.078125 315.039062 103.414062 360.453125 136.285156 393.324219 C 169.15625 426.195312 214.570312 446.53125 264.734375 446.53125 C 271.886719 446.53125 279.015625 446.109375 286.058594 445.28125 C 293.210938 444.433594 300.246094 443.183594 307.105469 441.542969 C 307.453125 441.457031 307.8125 441.425781 308.160156 441.425781 C 310.214844 441.425781 312.070312 442.828125 312.5625 444.914062 C 313.136719 447.347656 311.636719 449.792969 309.203125 450.371094 C 301.84375 452.132812 294.460938 453.457031 287.125 454.328125 C 279.679688 455.207031 272.199219 455.652344 264.734375 455.652344 Z M 264.746094 520.199219 C 335.246094 520.199219 399.085938 491.621094 445.28125 445.414062 C 491.480469 399.207031 520.066406 335.378906 520.066406 264.875 C 520.066406 194.375 491.488281 130.535156 445.28125 84.339844 C 399.074219 38.140625 335.257812 9.554688 264.746094 9.554688 C 194.230469 9.554688 130.414062 38.128906 84.207031 84.339844 C 38 130.546875 9.421875 194.375 9.421875 264.875 C 9.421875 335.378906 38 399.214844 84.207031 445.414062 C 130.414062 491.609375 194.242188 520.199219 264.746094 520.199219 Z M 264.746094 529.4375 C 191.6875 529.4375 125.546875 499.828125 77.675781 451.945312 C 29.804688 404.0625 0.183594 337.933594 0.183594 264.875 C 0.183594 191.820312 29.792969 125.675781 77.675781 77.804688 C 125.554688 29.933594 191.6875 0.316406 264.746094 0.316406 C 337.800781 0.316406 403.945312 29.925781 451.824219 77.804688 C 499.707031 125.6875 529.316406 191.820312 529.316406 264.875 C 529.316406 337.933594 499.707031 404.074219 451.824219 451.945312 C 403.945312 499.816406 337.8125 529.4375 264.753906 529.4375 Z M 264.746094 529.4375 " clip-rule="nonzero"/></clipPath><linearGradient x1="277.571038" gradientTransform="matrix(1.086985, 0, 0, -1.086985, -36.96907, 543.090256)" y1="12.531002" x2="277.512336" gradientUnits="userSpaceOnUse" y2="499.369722" id="eebc0f5cdf"><stop stop-opacity="1" stop-color="rgb(83.139038%, 53.329468%, 8.628845%)" offset="0"/><stop stop-opacity="1" stop-color="rgb(83.139038%, 53.329468%, 8.628845%)" offset="0.000120567"/><stop stop-opacity="1" stop-color="rgb(83.139038%, 53.329468%, 8.628845%)" offset="0.25"/><stop stop-opacity="1" stop-color="rgb(83.139038%, 53.329468%, 8.628845%)" offset="0.375"/><stop stop-opacity="1" stop-color="rgb(83.139038%, 53.329468%, 8.628845%)" offset="0.4375"/><stop stop-opacity="1" stop-color="rgb(83.139038%, 53.329468%, 8.628845%)" offset="0.46875"/><stop stop-opacity="1" stop-color="rgb(83.139038%, 53.329468%, 8.628845%)" offset="0.484375"/><stop stop-opacity="1" stop-color="rgb(83.198547%, 53.421021%, 8.624268%)" offset="0.492188"/><stop stop-opacity="1" stop-color="rgb(83.360291%, 53.674316%, 8.610535%)" offset="0.5"/><stop stop-opacity="1" stop-color="rgb(83.564758%, 53.996277%, 8.59375%)" offset="0.507813"/><stop stop-opacity="1" stop-color="rgb(83.770752%, 54.319763%, 8.576965%)" offset="0.515625"/><stop stop-opacity="1" stop-color="rgb(83.97522%, 54.641724%, 8.560181%)" offset="0.523438"/><stop stop-opacity="1" stop-color="rgb(84.181213%, 54.963684%, 8.543396%)" offset="0.53125"/><stop stop-opacity="1" stop-color="rgb(84.387207%, 55.285645%, 8.526611%)" offset="0.539062"/><stop stop-opacity="1" stop-color="rgb(84.591675%, 55.607605%, 8.509827%)" offset="0.546875"/><stop stop-opacity="1" stop-color="rgb(84.797668%, 55.929565%, 8.493042%)" offset="0.554688"/><stop stop-opacity="1" stop-color="rgb(85.002136%, 56.251526%, 8.476257%)" offset="0.5625"/><stop stop-opacity="1" stop-color="rgb(85.20813%, 56.573486%, 8.459473%)" offset="0.570312"/><stop stop-opacity="1" stop-color="rgb(85.414124%, 56.895447%, 8.444214%)" offset="0.578125"/><stop stop-opacity="1" stop-color="rgb(85.618591%, 57.217407%, 8.427429%)" offset="0.585938"/><stop stop-opacity="1" stop-color="rgb(85.824585%, 57.539368%, 8.410645%)" offset="0.59375"/><stop stop-opacity="1" stop-color="rgb(86.029053%, 57.861328%, 8.39386%)" offset="0.601562"/><stop stop-opacity="1" stop-color="rgb(86.235046%, 58.183289%, 8.377075%)" offset="0.609375"/><stop stop-opacity="1" stop-color="rgb(86.44104%, 58.505249%, 8.360291%)" offset="0.617188"/><stop stop-opacity="1" stop-color="rgb(86.645508%, 58.827209%, 8.343506%)" offset="0.625"/><stop stop-opacity="1" stop-color="rgb(86.851501%, 59.14917%, 8.326721%)" offset="0.632812"/><stop stop-opacity="1" stop-color="rgb(87.055969%, 59.47113%, 8.309937%)" offset="0.640625"/><stop stop-opacity="1" stop-color="rgb(87.261963%, 59.793091%, 8.293152%)" offset="0.648438"/><stop stop-opacity="1" stop-color="rgb(87.467957%, 60.115051%, 8.276367%)" offset="0.65625"/><stop stop-opacity="1" stop-color="rgb(87.672424%, 60.437012%, 8.259583%)" offset="0.664062"/><stop stop-opacity="1" stop-color="rgb(87.878418%, 60.758972%, 8.242798%)" offset="0.671875"/><stop stop-opacity="1" stop-color="rgb(88.082886%, 61.080933%, 8.226013%)" offset="0.679688"/><stop stop-opacity="1" stop-color="rgb(88.288879%, 61.402893%, 8.209229%)" offset="0.6875"/><stop stop-opacity="1" stop-color="rgb(88.494873%, 61.724854%, 8.192444%)" offset="0.695312"/><stop stop-opacity="1" stop-color="rgb(88.699341%, 62.046814%, 8.175659%)" offset="0.703125"/><stop stop-opacity="1" stop-color="rgb(88.905334%, 62.3703%, 8.158875%)" offset="0.710938"/><stop stop-opacity="1" stop-color="rgb(89.109802%, 62.692261%, 8.143616%)" offset="0.71875"/><stop stop-opacity="1" stop-color="rgb(89.315796%, 63.014221%, 8.126831%)" offset="0.726562"/><stop stop-opacity="1" stop-color="rgb(89.52179%, 63.336182%, 8.110046%)" offset="0.734375"/><stop stop-opacity="1" stop-color="rgb(89.726257%, 63.658142%, 8.093262%)" offset="0.742188"/><stop stop-opacity="1" stop-color="rgb(89.932251%, 63.980103%, 8.076477%)" offset="0.75"/><stop stop-opacity="1" stop-color="rgb(90.138245%, 64.302063%, 8.059692%)" offset="0.757812"/><stop stop-opacity="1" stop-color="rgb(90.342712%, 64.624023%, 8.042908%)" offset="0.765625"/><stop stop-opacity="1" stop-color="rgb(90.548706%, 64.945984%, 8.026123%)" offset="0.773438"/><stop stop-opacity="1" stop-color="rgb(90.753174%, 65.267944%, 8.009338%)" offset="0.78125"/><stop stop-opacity="1" stop-color="rgb(90.959167%, 65.589905%, 7.992554%)" offset="0.789062"/><stop stop-opacity="1" stop-color="rgb(91.165161%, 65.911865%, 7.975769%)" offset="0.796875"/><stop stop-opacity="1" stop-color="rgb(91.369629%, 66.233826%, 7.958984%)" offset="0.804688"/><stop stop-opacity="1" stop-color="rgb(91.575623%, 66.555786%, 7.9422%)" offset="0.8125"/><stop stop-opacity="1" stop-color="rgb(91.78009%, 66.877747%, 7.925415%)" offset="0.820312"/><stop stop-opacity="1" stop-color="rgb(91.986084%, 67.199707%, 7.90863%)" offset="0.828125"/><stop stop-opacity="1" stop-color="rgb(92.192078%, 67.521667%, 7.891846%)" offset="0.835937"/><stop stop-opacity="1" stop-color="rgb(92.396545%, 67.843628%, 7.875061%)" offset="0.84375"/><stop stop-opacity="1" stop-color="rgb(92.602539%, 68.165588%, 7.858276%)" offset="0.851562"/><stop stop-opacity="1" stop-color="rgb(92.807007%, 68.487549%, 7.841492%)" offset="0.859375"/><stop stop-opacity="1" stop-color="rgb(93.013%, 68.809509%, 7.826233%)" offset="0.867187"/><stop stop-opacity="1" stop-color="rgb(93.218994%, 69.13147%, 7.809448%)" offset="0.875"/><stop stop-opacity="1" stop-color="rgb(93.423462%, 69.45343%, 7.792664%)" offset="0.882812"/><stop stop-opacity="1" stop-color="rgb(93.629456%, 69.775391%, 7.775879%)" offset="0.890625"/><stop stop-opacity="1" stop-color="rgb(93.833923%, 70.097351%, 7.759094%)" offset="0.898437"/><stop stop-opacity="1" stop-color="rgb(94.039917%, 70.419312%, 7.74231%)" offset="0.90625"/><stop stop-opacity="1" stop-color="rgb(94.245911%, 70.742798%, 7.725525%)" offset="0.914062"/><stop stop-opacity="1" stop-color="rgb(94.450378%, 71.064758%, 7.70874%)" offset="0.921875"/><stop stop-opacity="1" stop-color="rgb(94.656372%, 71.386719%, 7.691956%)" offset="0.929687"/><stop stop-opacity="1" stop-color="rgb(94.86084%, 71.708679%, 7.675171%)" offset="0.9375"/><stop stop-opacity="1" stop-color="rgb(95.066833%, 72.03064%, 7.658386%)" offset="0.945312"/><stop stop-opacity="1" stop-color="rgb(95.272827%, 72.3526%, 7.641602%)" offset="0.953125"/><stop stop-opacity="1" stop-color="rgb(95.477295%, 72.674561%, 7.624817%)" offset="0.960937"/><stop stop-opacity="1" stop-color="rgb(95.683289%, 72.996521%, 7.608032%)" offset="0.96875"/><stop stop-opacity="1" stop-color="rgb(95.887756%, 73.318481%, 7.591248%)" offset="0.976562"/><stop stop-opacity="1" stop-color="rgb(96.09375%, 73.640442%, 7.574463%)" offset="0.984375"/><stop stop-opacity="1" stop-color="rgb(96.299744%, 73.962402%, 7.557678%)" offset="0.992188"/><stop stop-opacity="1" stop-color="rgb(96.504211%, 74.284363%, 7.540894%)" offset="0.999879"/><stop stop-opacity="1" stop-color="rgb(96.607971%, 74.446106%, 7.533264%)" offset="1"/></linearGradient><clipPath id="be2c5904de"><path d="M 135 164 L 406 164 L 406 381 L 135 381 Z M 135 164 " clip-rule="nonzero"/></clipPath><clipPath id="3841b08aec"><path d="M 309.765625 373.835938 C 312.550781 373.835938 319.441406 370.085938 324.214844 365.945312 C 326.34375 364.183594 327.375 362.953125 328.421875 361.269531 L 328.277344 361.042969 L 327.777344 360.964844 C 326.570312 360.964844 322.617188 362.574219 318.703125 364.714844 C 311.679688 368.617188 308.277344 371 307.746094 372.53125 C 307.417969 373.453125 308.039062 373.835938 309.765625 373.835938 Z M 213.699219 356.597656 C 218.820312 356.597656 225.363281 352.769531 226.710938 348.933594 C 228.089844 345.03125 221.6875 341.421875 213.417969 341.421875 C 212.589844 341.421875 211.882812 341.496094 210.570312 341.800781 C 209.980469 343.257812 209.472656 344.488281 209.230469 345.171875 C 208.394531 347.550781 207.742188 350.226562 206.644531 355.671875 C 208.558594 356.203125 211.132812 356.585938 213.6875 356.585938 Z M 252.113281 346.019531 C 253.691406 346.019531 256.441406 344.640625 258.191406 342.878906 C 259.941406 341.117188 262.417969 337.289062 263.15625 335.214844 L 263.375 334.605469 L 263.777344 332.84375 C 264.386719 330.464844 264.332031 329.78125 263.460938 329.703125 C 262.039062 329.703125 259.351562 331.898438 256.929688 334.988281 C 255.136719 337.28125 252.144531 342.34375 251.09375 345.324219 L 252.125 346.007812 Z M 299.808594 346.019531 C 301.386719 346.019531 304.136719 344.640625 305.886719 342.878906 C 307.636719 341.117188 310.125 337.289062 310.855469 335.214844 L 311.070312 334.605469 L 311.472656 332.84375 C 312.082031 330.464844 312.027344 329.78125 311.160156 329.703125 C 309.734375 329.703125 307.050781 331.898438 304.625 334.988281 C 302.832031 337.28125 299.84375 342.34375 298.789062 345.324219 L 299.820312 346.007812 Z M 350.636719 357.8125 C 352.136719 357.8125 354.300781 355.746094 357.757812 351.074219 C 360.171875 347.855469 362.832031 343.105469 363.867188 340.191406 C 364.246094 339.117188 364.082031 338.507812 363.332031 337.660156 C 363.507812 336.976562 363.886719 336.738281 366.605469 335.441406 L 366.660156 335.289062 C 367.496094 332.910156 366.628906 328.78125 365.28125 328.78125 C 364.226562 328.78125 362.3125 330.160156 359.910156 332.683594 C 355.214844 337.660156 351.84375 342.941406 349.996094 348.160156 C 348.105469 353.519531 348.386719 357.8125 350.648438 357.8125 Z M 308.203125 380.804688 C 305.648438 380.804688 303.070312 379.574219 302.136719 377.964844 C 301.417969 376.585938 301.320312 373.445312 301.953125 371.683594 C 302.027344 371.453125 302.484375 370.605469 303.039062 369.464844 L 303.148438 369.160156 C 303.636719 367.78125 307.289062 365.097656 311.714844 363.03125 C 316.648438 360.574219 322.203125 358.890625 326.679688 358.355469 L 327.867188 358.203125 L 329.246094 357.28125 L 329.039062 356.597656 C 328.617188 355.445312 326.757812 354.757812 323.820312 354.757812 L 322.59375 354.835938 C 320.277344 354.988281 318.496094 355.140625 317.820312 355.140625 C 315.867188 355.140625 314.886719 354.300781 314.464844 352.300781 C 314.082031 350.617188 314.203125 348.78125 314.800781 347.09375 C 315.472656 345.183594 315.984375 344.792969 318.757812 344.410156 C 322.007812 343.953125 327.429688 340.738281 333.148438 335.835938 C 335.332031 333.921875 337.136719 331.769531 337.734375 330.085938 L 336.582031 329.933594 C 333.722656 329.933594 330.636719 331.007812 326.179688 333.605469 C 322.789062 335.519531 320.257812 337.59375 319.820312 338.8125 L 319.832031 339.421875 L 319.691406 340.03125 L 319.082031 340.257812 C 318.550781 340.257812 317.496094 339.648438 316.910156 338.953125 C 316.300781 338.34375 316.09375 337.421875 316.398438 336.574219 L 316.875 335.648438 L 316.941406 335.269531 L 317.015625 335.039062 C 317.148438 334.660156 318.617188 333.28125 320.3125 331.898438 C 325.3125 327.757812 333.117188 324.617188 338.160156 324.617188 C 343.496094 324.617188 347.09375 328.0625 345.769531 331.8125 C 344.136719 336.410156 339.910156 340.3125 327.386719 348.898438 L 328.222656 349.28125 C 332.722656 351.660156 334.148438 352.726562 335.105469 354.488281 C 336.136719 356.476562 336.277344 358.628906 335.441406 360.996094 C 334.441406 363.835938 331.332031 367.738281 327.605469 371.03125 C 325.453125 372.867188 321.667969 375.476562 318.636719 377.238281 C 314.214844 379.769531 311.222656 380.757812 308.210938 380.757812 Z M 349.5625 362.335938 C 341.289062 362.335938 338.472656 356.660156 341.976562 346.78125 C 344.007812 341.03125 347.179688 335.671875 351.605469 330.617188 C 355.539062 326.09375 357.257812 324.636719 358.984375 324.410156 L 361.726562 324.335938 L 363.324219 324.484375 L 365.03125 324.5625 C 372.246094 324.789062 374.636719 327.171875 374.738281 334.140625 L 377.226562 334.988281 L 377.386719 335.367188 C 377.433594 335.671875 377.226562 336.898438 376.898438 337.824219 L 376.226562 338.660156 C 375.867188 339.042969 375.648438 339.433594 375.039062 340.953125 L 373.59375 344.628906 L 372.8125 346.855469 C 370.105469 354.519531 369.660156 356.203125 370.433594 358.042969 L 371.050781 358.421875 C 372.335938 358.421875 375.421875 356.28125 378.050781 354.355469 L 377.726562 355.507812 C 377.019531 357.496094 374.746094 360.105469 372.84375 361.019531 C 372.03125 361.398438 370.421875 361.703125 369.289062 361.703125 C 365.898438 361.703125 364.367188 360.097656 363.28125 355.496094 C 359.410156 358.792969 357.878906 359.945312 356.289062 360.78125 C 354.464844 361.703125 351.757812 362.3125 349.582031 362.3125 Z M 248.636719 362.867188 C 246.082031 362.867188 243.144531 361.792969 241.558594 360.335938 C 238.546875 357.574219 238.332031 352.214844 240.886719 345.007812 C 242.863281 339.421875 246.082031 334.128906 251.101562 328.464844 C 254.644531 324.398438 256.191406 323.03125 257.234375 323.03125 L 257.734375 323.105469 L 257.960938 323.105469 L 258.667969 323.03125 L 263.601562 322.269531 C 265.332031 322.269531 266.167969 322.878906 267.09375 325.183594 L 267.40625 325.789062 L 268.015625 326.398438 C 268.949219 327.160156 269.113281 327.550781 269.386719 328.691406 C 269.832031 330.835938 269.789062 331.378906 269.363281 332.59375 C 266.949219 339.410156 262.820312 345.160156 258.613281 347.453125 C 256.625 348.605469 253.984375 349.0625 249.699219 349.0625 C 247.886719 355.269531 248.734375 359.019531 251.894531 359.019531 C 254.832031 359.019531 259.863281 356.488281 263.796875 352.8125 L 264.582031 352.507812 L 264.613281 353.28125 C 264.398438 353.890625 263.082031 355.496094 261.394531 357.257812 C 257.894531 360.78125 253.179688 362.855469 248.65625 362.855469 Z M 296.332031 362.867188 C 293.777344 362.867188 290.84375 361.792969 289.253906 360.335938 C 286.246094 357.574219 286.027344 352.214844 288.582031 345.007812 C 290.558594 339.421875 293.777344 334.128906 298.800781 328.464844 C 302.34375 324.398438 303.886719 323.03125 304.929688 323.03125 L 305.429688 323.105469 L 305.660156 323.105469 L 306.363281 323.03125 L 311.300781 322.269531 C 313.027344 322.269531 313.863281 322.878906 314.789062 325.183594 L 315.105469 325.789062 L 315.714844 326.398438 C 316.648438 327.160156 316.8125 327.550781 317.082031 328.691406 C 317.527344 330.835938 317.484375 331.378906 317.050781 332.59375 C 314.636719 339.410156 310.507812 345.160156 306.300781 347.453125 C 304.3125 348.605469 301.667969 349.0625 297.386719 349.0625 C 295.570312 355.269531 296.417969 359.019531 299.582031 359.019531 C 302.515625 359.019531 307.550781 356.488281 311.484375 352.8125 L 312.265625 352.507812 L 312.300781 353.28125 C 312.082031 353.890625 310.757812 355.496094 309.082031 357.257812 C 305.582031 360.78125 300.863281 362.855469 296.34375 362.855469 Z M 278.246094 342.941406 C 285.148438 334.289062 288.710938 328.007812 291.90625 318.964844 C 293.265625 315.136719 293.960938 311.226562 293.363281 311.226562 C 292.984375 311.226562 292.496094 311.757812 291.398438 313.367188 C 287.375 319.421875 283.300781 327.769531 280.398438 335.964844 C 279.832031 337.574219 279.363281 339.105469 278.234375 342.933594 Z M 218.027344 332.605469 C 223.972656 332.605469 232.363281 326.933594 234.234375 321.648438 C 235.613281 317.746094 234.535156 312.921875 231.863281 310.691406 C 230.167969 309.3125 228.222656 308.855469 224.417969 308.78125 C 222.082031 314.757812 221.546875 316.0625 218.632812 322.574219 C 216.796875 326.714844 216.503906 327.324219 214.601562 332.074219 C 216.222656 332.378906 217.351562 332.605469 218.027344 332.605469 Z M 209.6875 362.792969 C 202.394531 362.792969 199.722656 362.257812 195.644531 359.953125 C 195.035156 355.28125 195.742188 351.605469 198.796875 342.941406 C 201.753906 334.59375 204.820312 327.617188 209.863281 317.8125 C 211.972656 313.757812 212.003906 313.671875 214.046875 309.386719 C 203.394531 310.996094 191.871094 318.28125 189.570312 324.789062 C 188.425781 328.007812 189.90625 330.226562 194.515625 333.136719 L 194.003906 333.289062 C 192.871094 333.289062 192.601562 333.214844 188.621094 331.910156 C 184.96875 330.757812 183.566406 329.617188 182.65625 327.085938 C 182.113281 325.628906 182.089844 323.789062 182.546875 322.484375 C 183.035156 321.105469 184.839844 318.34375 186.621094 316.28125 C 190.523438 311.832031 196.515625 308.3125 204.480469 305.777344 C 210.675781 303.789062 217.328125 302.636719 222.742188 302.636719 C 238.472656 302.636719 248.191406 311.53125 244.339844 322.398438 C 243.394531 325.085938 240.636719 328.835938 237.734375 331.519531 C 235.285156 333.738281 232.742188 335.421875 229.082031 337.03125 L 230.863281 338.789062 C 235.625 343.617188 236.9375 346.910156 235.644531 350.585938 C 234.484375 353.878906 232.636719 356.335938 229.984375 358.097656 C 224.730469 361.464844 219.15625 362.769531 209.667969 362.769531 Z M 272.886719 362.792969 C 269.648438 362.792969 267.15625 360.5 266.246094 356.660156 C 265.503906 353.445312 267.15625 344.703125 270.113281 336.355469 C 273.039062 328.085938 277.101562 319.574219 281.289062 312.832031 L 285.472656 306.09375 C 287.167969 303.410156 289.855469 301.574219 292.039062 301.574219 C 293.996094 301.574219 294.886719 302.027344 296.59375 303.789062 L 297.59375 304.789062 C 299.234375 306.324219 299.398438 306.929688 299.386719 309.921875 C 299.375 311.453125 297.917969 317.039062 296.484375 321.105469 C 294.917969 325.550781 291.09375 332.519531 287.398438 337.648438 C 285.003906 341.019531 282.125 344.464844 276.210938 350.976562 C 275.472656 355.195312 276.398438 357.488281 278.648438 357.488281 C 279.851562 357.488281 280.484375 357.183594 283.210938 355.421875 L 284.855469 354.8125 L 284.746094 355.347656 C 284.417969 356.269531 283.277344 357.5625 281.820312 358.714844 C 277.601562 361.933594 277.601562 361.933594 276.113281 362.3125 L 272.863281 362.769531 Z M 287.753906 278.375 C 289.332031 278.375 292.082031 276.996094 293.832031 275.234375 C 295.582031 273.472656 298.070312 269.636719 298.800781 267.570312 L 299.015625 266.964844 L 299.417969 265.203125 C 300.027344 262.820312 299.972656 262.136719 299.105469 262.0625 C 297.679688 262.0625 294.996094 264.257812 292.570312 267.34375 C 290.777344 269.648438 287.789062 274.703125 286.734375 277.691406 L 287.765625 278.375 Z M 248.046875 291.09375 C 250.429688 290.332031 252.960938 288.484375 255.972656 285.269531 C 259.710938 281.289062 262.832031 276.070312 264.898438 270.257812 C 266.199219 266.582031 266.253906 264.507812 265.082031 263.125 C 264.101562 262.050781 263.09375 261.515625 261.667969 261.515625 C 260.539062 261.515625 259.746094 262.050781 258.144531 263.8125 C 254.503906 267.714844 250.582031 274.148438 248.984375 278.667969 C 246.765625 284.953125 246.472656 287.246094 247.558594 290.777344 L 248.046875 291.082031 Z M 284.277344 295.234375 C 281.722656 295.234375 278.789062 294.160156 277.203125 292.703125 C 274.191406 289.941406 273.972656 284.582031 276.527344 277.375 C 278.503906 271.789062 281.734375 266.496094 286.746094 260.832031 C 290.289062 256.765625 291.832031 255.386719 292.875 255.386719 L 293.375 255.460938 L 293.605469 255.460938 L 294.308594 255.386719 L 299.246094 254.625 C 300.972656 254.625 301.808594 255.234375 302.734375 257.539062 L 303.050781 258.148438 L 303.660156 258.757812 C 304.59375 259.527344 304.757812 259.910156 305.027344 261.0625 C 305.472656 263.203125 305.429688 263.746094 304.996094 264.964844 C 302.582031 271.777344 298.453125 277.527344 294.246094 279.820312 C 292.257812 280.972656 289.613281 281.429688 285.320312 281.429688 C 283.503906 287.636719 284.355469 291.386719 287.515625 291.386719 C 290.453125 291.386719 295.484375 288.855469 299.417969 285.179688 L 300.203125 284.875 L 300.234375 285.636719 C 300.015625 286.246094 298.691406 287.855469 297.015625 289.625 C 293.515625 293.148438 288.800781 295.226562 284.277344 295.226562 Z M 266.863281 296.617188 C 264.003906 296.617188 262.484375 294.550781 260.929688 288.722656 C 255.691406 293.324219 252.386719 295.007812 248.699219 295.007812 C 245.242188 295.007812 242.515625 292.941406 241.101562 289.257812 C 240.113281 286.722656 240.375 283.429688 242.003906 278.832031 C 244.546875 271.636719 248.191406 265.8125 253.027344 261.289062 C 256.929688 257.691406 261.558594 255.460938 265.320312 255.460938 C 267.199219 255.460938 268.191406 256.070312 269.363281 258.070312 C 271.734375 252.636719 273.875 247.648438 274.625 245.960938 C 275.265625 244.582031 275.746094 243.429688 276.070312 242.515625 C 276.472656 241.363281 276.515625 240.832031 276.136719 240.210938 L 275.863281 239.289062 L 276.558594 237.753906 C 278.125 237.375 279.003906 237.222656 279.984375 237.222656 L 285.515625 237.527344 C 287.34375 239.59375 287.65625 240.210938 287.222656 241.429688 L 286.746094 242.355469 C 284.84375 245.191406 278.746094 259.667969 274.777344 270.472656 L 274.417969 271.703125 L 270.472656 283.722656 C 268.398438 290.234375 267.570312 295.136719 268.765625 295.136719 L 269.582031 294.757812 L 269.515625 295.136719 C 268.003906 296.441406 267.722656 296.59375 266.898438 296.59375 Z M 374.886719 218.046875 Z M 324.59375 217.027344 Z M 368.59375 221.699219 C 369.335938 221.699219 371.183594 220.441406 374.855469 217.253906 C 374.824219 214.753906 375.410156 211.765625 376.617188 208.375 C 377.941406 204.625 379.835938 201.003906 382.441406 197.320312 C 381.507812 197.710938 379.789062 197.917969 376.378906 198.1875 L 374.746094 198.339844 C 373.085938 202.394531 372.367188 204.242188 371.574219 206.460938 C 368.160156 216.113281 367.085938 221.710938 368.59375 221.710938 Z M 382.453125 197.308594 Z M 312.320312 209.363281 C 313.898438 209.363281 316.648438 207.984375 318.398438 206.222656 C 320.148438 204.460938 322.636719 200.636719 323.367188 198.558594 L 323.582031 197.949219 L 323.984375 196.1875 C 324.59375 193.820312 324.539062 193.125 323.667969 193.046875 C 322.246094 193.046875 319.5625 195.242188 317.136719 198.332031 C 315.34375 200.625 312.355469 205.691406 311.300781 208.667969 L 312.332031 209.351562 Z M 387.855469 209.363281 C 389.433594 209.363281 392.183594 207.984375 393.933594 206.222656 C 395.683594 204.460938 398.171875 200.636719 398.898438 198.558594 L 399.117188 197.949219 L 399.519531 196.1875 C 400.128906 193.820312 400.074219 193.125 399.203125 193.046875 C 397.78125 193.046875 395.09375 195.242188 392.671875 198.332031 C 390.878906 200.625 387.890625 205.691406 386.835938 208.667969 L 387.867188 209.351562 Z M 265.601562 221.722656 C 269.886719 221.722656 275.082031 216.210938 277.625 209.003906 C 279.679688 203.179688 280.808594 195.753906 280.09375 191.613281 L 279.375 191.308594 C 278.320312 191.308594 275.058594 194.144531 272.289062 197.515625 C 271.039062 199.125 268.125 203.339844 265.613281 207.242188 C 263.679688 210.386719 262.558594 212.679688 261.265625 216.363281 C 260.394531 218.808594 260.277344 219.582031 260.679688 220.582031 C 261.832031 220.734375 262.101562 220.808594 263.167969 221.191406 C 264.308594 221.570312 264.929688 221.722656 265.613281 221.722656 Z M 291.265625 226.167969 C 287.953125 226.167969 285.527344 223.253906 285.308594 218.984375 C 285.246094 216.84375 286.320312 211.875 287.863281 207.515625 C 288.300781 206.289062 289.550781 203.394531 291.308594 199.265625 C 291.789062 198.339844 292.800781 195.894531 293.941406 192.6875 L 294.09375 191.839844 C 294.308594 191.234375 296.515625 190.308594 298.257812 190.082031 L 301.875 189.625 L 303.09375 190.234375 C 303.929688 190.839844 304.429688 191.992188 304.015625 193.144531 L 303.257812 194.4375 C 301.507812 197.277344 296.910156 207.515625 294.875 213.242188 C 292.550781 219.820312 292.15625 223.253906 293.972656 223.253906 L 294.863281 222.648438 C 296.050781 221.648438 296.734375 221.199219 297.027344 221.199219 L 297.332031 221.199219 C 295.667969 224.636719 293.765625 226.167969 291.289062 226.167969 Z M 243.222656 228.003906 C 240.667969 228.003906 239.082031 225.472656 239.15625 221.417969 C 239.199219 217.667969 240.242188 213.449219 243.046875 205.101562 C 240.570312 207.863281 239.167969 209.699219 234.546875 216.363281 L 231.210938 221.113281 L 230.65625 222.039062 C 229.863281 223.648438 229.527344 223.949219 228.320312 223.949219 C 226.4375 223.949219 224.980469 222.949219 223.589844 220.734375 C 223.15625 220.046875 223.144531 219.65625 223.351562 218.199219 C 223.667969 216.667969 224.394531 213.984375 225.035156 212.144531 L 226.9375 207.394531 L 228.058594 204.863281 C 226.285156 206.472656 225.125 207.851562 223.820312 209.84375 L 217.9375 218.808594 C 217.101562 220.113281 214.632812 223.253906 213.65625 224.320312 L 213.394531 224.625 C 212.851562 225.308594 212.035156 225.699219 211.285156 225.699219 C 209.027344 225.699219 207.015625 223.320312 206.839844 220.417969 C 206.710938 217.808594 207.339844 214.984375 208.980469 210.308594 C 210.851562 205.027344 212.144531 201.582031 212.992188 199.808594 L 217.363281 190.839844 L 217.894531 189.535156 L 218.070312 188.851562 L 218.179688 188.546875 C 218.417969 187.863281 219.082031 187.472656 220.375 187.242188 L 221.253906 187.089844 L 222.625 186.632812 C 223.003906 186.632812 223.589844 186.863281 224.308594 187.394531 L 227.167969 189.308594 C 227.363281 189.386719 227.351562 189.839844 227.027344 190.765625 L 226.4375 191.992188 C 224.351562 196.210938 223.015625 199.351562 221.929688 202.40625 L 220.949219 205.167969 L 229.972656 193.90625 C 231.167969 192.222656 232.515625 191.601562 235.296875 191.601562 C 237.710938 191.601562 239.539062 192.375 239.789062 193.363281 C 239.992188 194.289062 239.789062 195.277344 238.734375 198.265625 C 238.492188 198.949219 238.277344 199.570312 237.789062 200.710938 C 236.984375 202.546875 236.429688 203.929688 236.234375 204.460938 C 235.9375 205.296875 235.636719 206.375 235.1875 207.832031 L 248.144531 191.820312 C 249.441406 190.285156 249.667969 190.058594 250.582031 189.832031 C 251.113281 189.601562 253.179688 189.296875 253.777344 189.296875 C 255.582031 189.296875 256.386719 191.285156 255.601562 193.515625 L 255.472656 193.894531 L 250.558594 203.546875 C 248.65625 207.222656 247.558594 209.90625 245.691406 215.191406 C 244.929688 217.332031 244.332031 220.320312 244.089844 222.699219 C 243.972656 224.539062 244.125 225.386719 244.722656 225.386719 L 245.296875 225.234375 L 247.417969 223.929688 C 245.539062 226.691406 244.179688 227.996094 243.199219 227.996094 Z M 328.941406 226.851562 C 327.0625 226.851562 325.898438 226.320312 324.972656 225.09375 C 323.8125 223.484375 323.507812 222.875 323.386719 221.496094 L 323.929688 220.808594 L 324.246094 219.277344 C 324.332031 218.539062 324.453125 217.789062 324.59375 217.046875 C 324.125 217.820312 322.972656 219.179688 321.570312 220.65625 C 318.070312 224.179688 313.355469 226.246094 308.832031 226.246094 C 306.277344 226.246094 303.34375 225.167969 301.757812 223.710938 C 298.746094 220.949219 298.539062 215.59375 301.082031 208.386719 C 303.0625 202.789062 306.277344 197.503906 311.300781 191.839844 C 314.84375 187.777344 316.386719 186.40625 317.441406 186.40625 L 317.941406 186.484375 L 318.167969 186.484375 L 318.875 186.40625 L 323.8125 185.644531 C 325.539062 185.644531 326.375 186.253906 327.300781 188.558594 L 327.605469 189.167969 L 328.214844 189.777344 C 329.148438 190.546875 329.3125 190.929688 329.582031 192.070312 C 330.027344 194.210938 329.984375 194.753906 329.5625 195.972656 C 327.148438 202.789062 323.019531 208.539062 318.8125 210.832031 C 316.820312 211.984375 314.179688 212.441406 309.886719 212.441406 C 308.070312 218.644531 308.917969 222.398438 312.082031 222.398438 C 315.015625 222.398438 320.050781 219.863281 323.984375 216.191406 L 324.769531 215.886719 L 324.777344 216.179688 L 325.832031 212.429688 C 328.136719 205.917969 331.867188 197.722656 336.429688 188.832031 L 336.574219 188.222656 L 336.734375 187.765625 L 337.34375 187.535156 L 338.277344 187.234375 C 339.464844 186.851562 341.257812 186.460938 341.714844 186.460938 C 342.84375 186.460938 343.757812 186.839844 344.09375 187.382812 L 344.386719 187.839844 L 344.789062 187.992188 C 345.8125 188.296875 346.367188 189.070312 345.984375 190.136719 L 345.539062 190.984375 C 345.257812 191.363281 344.484375 193.125 343.484375 195.734375 L 341.277344 201.558594 C 340.953125 202.484375 340.8125 203.089844 340.550781 204.472656 C 347.398438 195.742188 351.386719 191.070312 352.832031 190.144531 C 353.496094 189.765625 356.171875 189.222656 357.898438 189.222656 L 358.789062 189.679688 L 359.464844 189.90625 L 359.429688 191.058594 C 359.441406 193.351562 358.867188 196.265625 357.976562 198.796875 C 357.703125 199.570312 356.953125 201.253906 354.269531 207.375 C 353.386719 209.441406 352.714844 211.125 352.257812 212.429688 C 350.84375 216.417969 350.269531 219.320312 350.453125 221.167969 L 351.855469 219.332031 L 352.214844 219.789062 L 351.800781 221.167969 C 350.746094 224.15625 349.660156 225.539062 348.074219 225.539062 L 347.605469 225.15625 L 346.832031 224.15625 L 346.539062 223.929688 C 343.074219 221.394531 343.429688 216.113281 347.941406 203.167969 C 346.277344 204.472656 345.179688 206.082031 340.464844 213.894531 C 337.714844 218.496094 336.269531 220.863281 335.148438 222.320312 C 333.84375 224.082031 333.5625 224.460938 332.953125 225.765625 L 332.367188 226.148438 C 331.703125 226.527344 330.09375 226.84375 328.964844 226.84375 Z M 192.699219 210.460938 C 192.980469 206.472656 193.273438 203.949219 193.980469 198.972656 C 195.394531 189.015625 195.371094 188.863281 195.710938 184.722656 C 188.820312 195.296875 185.851562 199.199219 176.980469 209.386719 C 179.265625 209.308594 181.144531 209.308594 182.121094 209.308594 C 186.710938 209.308594 188.515625 209.539062 192.699219 210.460938 Z M 302.703125 185.320312 C 298.941406 185.320312 296.59375 182.167969 297.800781 178.765625 C 298.234375 177.535156 298.996094 176.230469 299.746094 175.382812 C 300.417969 174.535156 301.386719 174.15625 303.191406 173.929688 L 308.910156 173.070312 L 310.191406 173.070312 C 311.246094 173.070312 312.355469 173.546875 312.863281 174.230469 C 313.234375 174.6875 313.234375 175.308594 312.875 176.546875 C 312.789062 177.003906 312.507812 178.230469 312.191406 179.546875 C 309.050781 183.320312 305.789062 185.320312 302.703125 185.320312 Z M 384.378906 226.246094 C 381.824219 226.246094 378.890625 225.167969 377.300781 223.710938 C 375.867188 222.398438 375.0625 220.484375 374.898438 218.058594 C 374.148438 219.722656 372.964844 221.417969 371.507812 222.863281 C 370.148438 224.167969 366.769531 225.851562 365.484375 225.851562 C 363.984375 225.851562 362.574219 224.941406 361.050781 222.863281 C 360.03125 221.484375 359.582031 218.722656 359.734375 215.746094 C 359.984375 211.832031 361.019531 207.851562 364.496094 197.820312 C 361.789062 197.589844 360.269531 196.363281 360.8125 194.832031 C 361.105469 193.984375 362.34375 192.601562 363.03125 192.601562 L 364.03125 192.753906 C 364.300781 192.832031 364.757812 192.832031 365.734375 192.832031 L 366.539062 192.679688 C 370.703125 183.875 373.878906 176.820312 374.367188 175.4375 C 374.585938 174.832031 374.683594 174.132812 374.683594 173.058594 L 374.824219 172.449219 C 375.0625 171.765625 378.378906 170.917969 380.78125 170.917969 C 382.964844 170.917969 384.792969 171.917969 385.496094 173.527344 C 385.78125 174.210938 385.605469 175.972656 385.042969 177.589844 C 384.964844 177.820312 384.378906 178.820312 383.542969 180.125 C 382.464844 181.882812 382.441406 181.960938 377.507812 192.308594 C 378.640625 192.308594 379.105469 192.460938 381.757812 193.6875 C 383.171875 194.332031 383.769531 194.863281 383.714844 195.644531 L 386.855469 191.839844 C 390.398438 187.777344 391.945312 186.40625 392.988281 186.40625 L 393.488281 186.484375 L 393.714844 186.484375 L 394.421875 186.40625 L 399.355469 185.644531 C 401.085938 185.644531 401.921875 186.253906 402.847656 188.558594 L 403.160156 189.167969 L 403.769531 189.777344 C 404.703125 190.546875 404.867188 190.929688 405.140625 192.070312 C 405.585938 194.210938 405.542969 194.753906 405.105469 195.972656 C 402.695312 202.789062 398.5625 208.539062 394.355469 210.832031 C 392.367188 211.984375 389.726562 212.441406 385.441406 212.441406 C 383.628906 218.644531 384.476562 222.398438 387.640625 222.398438 C 390.574219 222.398438 395.605469 219.863281 399.542969 216.191406 L 400.324219 215.886719 L 400.355469 216.644531 C 400.140625 217.253906 398.8125 218.863281 397.140625 220.636719 C 393.640625 224.15625 388.921875 226.222656 384.398438 226.222656 Z M 266.234375 226.550781 C 265.179688 226.550781 264.582031 226.320312 262.90625 225.320312 C 261.84375 224.710938 261.449219 224.558594 260.417969 224.484375 L 259.386719 224.636719 L 257.222656 225.015625 C 256.015625 225.015625 255.125 224.558594 253.242188 222.875 L 252.449219 222.34375 L 252.253906 222.265625 L 252.046875 221.582031 L 251.644531 219.746094 C 250.894531 217.601562 251.722656 212.929688 253.808594 207.027344 C 255.441406 202.429688 256.753906 199.136719 259.734375 192.394531 C 264.527344 181.589844 266.199219 178.144531 271.808594 168.875 L 272.058594 168.796875 C 272.210938 168.796875 273.246094 168.644531 274.601562 168.417969 L 275.460938 168.339844 L 277.789062 168.570312 C 280.441406 168.949219 281.113281 170.027344 279.84375 173.625 L 274.136719 184.65625 C 273.84375 185.265625 272.941406 187.417969 272.417969 188.875 L 272.863281 189.949219 L 274.210938 189.339844 C 276.648438 188.1875 277.917969 187.808594 279.496094 187.808594 C 283.179688 187.808594 284.484375 187.960938 285.265625 188.492188 C 286.59375 189.40625 287.007812 191.253906 286.941406 195.234375 C 286.917969 199.984375 285.886719 205.65625 284.34375 210.015625 C 281.441406 218.210938 272.320312 226.558594 266.234375 226.558594 Z M 144.859375 230.222656 C 140.949219 230.222656 138.359375 228.386719 136.296875 224.015625 C 135.316406 221.875 135.328125 218.886719 136.402344 215.820312 C 138.296875 210.460938 143.9375 203.863281 146.578125 203.863281 C 147.554688 203.863281 148.480469 205.699219 148.023438 207.003906 L 147.71875 207.234375 C 146.273438 207.691406 146.273438 207.691406 143.871094 213.441406 C 143.304688 214.820312 142.816406 220.253906 143.109375 222.40625 C 143.253906 223.710938 143.980469 224.625 144.804688 224.625 C 145.859375 224.625 148.273438 223.546875 151.175781 221.710938 C 153.394531 220.332031 155.316406 218.722656 158.785156 215.503906 C 154.609375 214.972656 153.1875 213.058594 154.566406 209.144531 L 155.101562 208.917969 L 156.011719 208.691406 L 156.414062 208.613281 C 156.644531 208.613281 157.089844 208.84375 158.546875 209.613281 L 159.71875 209.691406 L 164.851562 210.070312 C 169.316406 206.167969 172.773438 202.332031 179.699219 193.832031 C 185.839844 186.242188 195.722656 171.078125 196.320312 168.320312 C 197.285156 166.027344 198.4375 164.875 200.023438 164.875 C 200.472656 164.875 201.546875 165.027344 202.992188 165.40625 C 203.339844 165.480469 204.222656 165.558594 205.515625 165.710938 C 209.917969 166.242188 211.601562 167.015625 212.027344 168.777344 L 212.613281 170.308594 C 211.492188 172.839844 210.667969 174.753906 210.199219 176.058594 C 208.308594 181.417969 203.972656 201.113281 202.222656 212.679688 C 201.199219 218.960938 201.125 222.179688 202.101562 222.179688 L 202.90625 222.027344 L 202.839844 222.636719 C 202.382812 223.941406 200.058594 225.625 198.699219 225.625 C 196.589844 225.625 195.230469 224.777344 194.4375 222.789062 C 193.449219 220.253906 192.882812 217.808594 191.730469 214.894531 L 190.632812 214.820312 C 189.578125 214.820312 188.046875 214.894531 183.851562 215.277344 C 178.523438 215.65625 177.449219 215.734375 170.175781 216.277344 L 169.613281 216.808594 C 162.242188 223.167969 161.121094 224.003906 156.535156 226.765625 C 152.894531 228.984375 148.621094 230.210938 144.859375 230.210938 Z M 144.859375 230.222656 " clip-rule="nonzero"/></clipPath><linearGradient x1="282.860332" gradientTransform="matrix(1.086985, 0, 0, -1.086985, -36.96907, 543.090256)" y1="149.288137" x2="282.840774" gradientUnits="userSpaceOnUse" y2="347.962637" id="369be9e886"><stop stop-opacity="1" stop-color="rgb(83.139038%, 53.329468%, 8.628845%)" offset="0"/><stop stop-opacity="1" stop-color="rgb(83.139038%, 53.329468%, 8.628845%)" offset="0.000123196"/><stop stop-opacity="1" stop-color="rgb(83.139038%, 53.329468%, 8.628845%)" offset="0.25"/><stop stop-opacity="1" stop-color="rgb(83.139038%, 53.329468%, 8.628845%)" offset="0.375"/><stop stop-opacity="1" stop-color="rgb(83.139038%, 53.329468%, 8.628845%)" offset="0.4375"/><stop stop-opacity="1" stop-color="rgb(83.139038%, 53.329468%, 8.628845%)" offset="0.46875"/><stop stop-opacity="1" stop-color="rgb(83.139038%, 53.329468%, 8.628845%)" offset="0.484375"/><stop stop-opacity="1" stop-color="rgb(83.198547%, 53.422546%, 8.624268%)" offset="0.492188"/><stop stop-opacity="1" stop-color="rgb(83.360291%, 53.675842%, 8.610535%)" offset="0.5"/><stop stop-opacity="1" stop-color="rgb(83.566284%, 53.997803%, 8.59375%)" offset="0.507812"/><stop stop-opacity="1" stop-color="rgb(83.770752%, 54.319763%, 8.576965%)" offset="0.515625"/><stop stop-opacity="1" stop-color="rgb(83.976746%, 54.641724%, 8.560181%)" offset="0.523438"/><stop stop-opacity="1" stop-color="rgb(84.182739%, 54.96521%, 8.543396%)" offset="0.53125"/><stop stop-opacity="1" stop-color="rgb(84.387207%, 55.28717%, 8.526611%)" offset="0.539062"/><stop stop-opacity="1" stop-color="rgb(84.593201%, 55.609131%, 8.509827%)" offset="0.546875"/><stop stop-opacity="1" stop-color="rgb(84.797668%, 55.931091%, 8.493042%)" offset="0.554688"/><stop stop-opacity="1" stop-color="rgb(85.003662%, 56.253052%, 8.476257%)" offset="0.5625"/><stop stop-opacity="1" stop-color="rgb(85.209656%, 56.575012%, 8.459473%)" offset="0.570313"/><stop stop-opacity="1" stop-color="rgb(85.414124%, 56.896973%, 8.442688%)" offset="0.578125"/><stop stop-opacity="1" stop-color="rgb(85.620117%, 57.218933%, 8.427429%)" offset="0.585938"/><stop stop-opacity="1" stop-color="rgb(85.824585%, 57.540894%, 8.410645%)" offset="0.59375"/><stop stop-opacity="1" stop-color="rgb(86.030579%, 57.862854%, 8.39386%)" offset="0.601563"/><stop stop-opacity="1" stop-color="rgb(86.236572%, 58.184814%, 8.377075%)" offset="0.609375"/><stop stop-opacity="1" stop-color="rgb(86.44104%, 58.506775%, 8.360291%)" offset="0.617188"/><stop stop-opacity="1" stop-color="rgb(86.647034%, 58.828735%, 8.343506%)" offset="0.625"/><stop stop-opacity="1" stop-color="rgb(86.851501%, 59.150696%, 8.326721%)" offset="0.632812"/><stop stop-opacity="1" stop-color="rgb(87.057495%, 59.472656%, 8.309937%)" offset="0.640625"/><stop stop-opacity="1" stop-color="rgb(87.263489%, 59.794617%, 8.293152%)" offset="0.648438"/><stop stop-opacity="1" stop-color="rgb(87.467957%, 60.116577%, 8.276367%)" offset="0.65625"/><stop stop-opacity="1" stop-color="rgb(87.67395%, 60.438538%, 8.259583%)" offset="0.664062"/><stop stop-opacity="1" stop-color="rgb(87.878418%, 60.760498%, 8.242798%)" offset="0.671875"/><stop stop-opacity="1" stop-color="rgb(88.084412%, 61.082458%, 8.226013%)" offset="0.679688"/><stop stop-opacity="1" stop-color="rgb(88.290405%, 61.404419%, 8.209229%)" offset="0.6875"/><stop stop-opacity="1" stop-color="rgb(88.494873%, 61.726379%, 8.192444%)" offset="0.695312"/><stop stop-opacity="1" stop-color="rgb(88.700867%, 62.04834%, 8.175659%)" offset="0.703125"/><stop stop-opacity="1" stop-color="rgb(88.905334%, 62.3703%, 8.158875%)" offset="0.710937"/><stop stop-opacity="1" stop-color="rgb(89.111328%, 62.692261%, 8.14209%)" offset="0.71875"/><stop stop-opacity="1" stop-color="rgb(89.317322%, 63.014221%, 8.126831%)" offset="0.726562"/><stop stop-opacity="1" stop-color="rgb(89.52179%, 63.336182%, 8.110046%)" offset="0.734375"/><stop stop-opacity="1" stop-color="rgb(89.727783%, 63.658142%, 8.093262%)" offset="0.742187"/><stop stop-opacity="1" stop-color="rgb(89.932251%, 63.981628%, 8.076477%)" offset="0.75"/><stop stop-opacity="1" stop-color="rgb(90.138245%, 64.303589%, 8.059692%)" offset="0.757812"/><stop stop-opacity="1" stop-color="rgb(90.344238%, 64.625549%, 8.042908%)" offset="0.765625"/><stop stop-opacity="1" stop-color="rgb(90.548706%, 64.94751%, 8.026123%)" offset="0.773437"/><stop stop-opacity="1" stop-color="rgb(90.7547%, 65.26947%, 8.009338%)" offset="0.78125"/><stop stop-opacity="1" stop-color="rgb(90.959167%, 65.591431%, 7.992554%)" offset="0.789062"/><stop stop-opacity="1" stop-color="rgb(91.165161%, 65.913391%, 7.975769%)" offset="0.796875"/><stop stop-opacity="1" stop-color="rgb(91.371155%, 66.235352%, 7.958984%)" offset="0.804687"/><stop stop-opacity="1" stop-color="rgb(91.575623%, 66.557312%, 7.9422%)" offset="0.8125"/><stop stop-opacity="1" stop-color="rgb(91.781616%, 66.879272%, 7.925415%)" offset="0.820312"/><stop stop-opacity="1" stop-color="rgb(91.986084%, 67.201233%, 7.90863%)" offset="0.828125"/><stop stop-opacity="1" stop-color="rgb(92.192078%, 67.523193%, 7.891846%)" offset="0.835938"/><stop stop-opacity="1" stop-color="rgb(92.398071%, 67.845154%, 7.875061%)" offset="0.84375"/><stop stop-opacity="1" stop-color="rgb(92.602539%, 68.167114%, 7.858276%)" offset="0.851562"/><stop stop-opacity="1" stop-color="rgb(92.808533%, 68.489075%, 7.841492%)" offset="0.859375"/><stop stop-opacity="1" stop-color="rgb(93.013%, 68.811035%, 7.824707%)" offset="0.867188"/><stop stop-opacity="1" stop-color="rgb(93.218994%, 69.132996%, 7.809448%)" offset="0.875"/><stop stop-opacity="1" stop-color="rgb(93.424988%, 69.454956%, 7.792664%)" offset="0.882812"/><stop stop-opacity="1" stop-color="rgb(93.629456%, 69.776917%, 7.775879%)" offset="0.890625"/><stop stop-opacity="1" stop-color="rgb(93.835449%, 70.098877%, 7.759094%)" offset="0.898437"/><stop stop-opacity="1" stop-color="rgb(94.039917%, 70.420837%, 7.74231%)" offset="0.90625"/><stop stop-opacity="1" stop-color="rgb(94.245911%, 70.742798%, 7.725525%)" offset="0.914062"/><stop stop-opacity="1" stop-color="rgb(94.451904%, 71.064758%, 7.70874%)" offset="0.921875"/><stop stop-opacity="1" stop-color="rgb(94.656372%, 71.386719%, 7.691956%)" offset="0.929688"/><stop stop-opacity="1" stop-color="rgb(94.862366%, 71.708679%, 7.675171%)" offset="0.9375"/><stop stop-opacity="1" stop-color="rgb(95.066833%, 72.03064%, 7.658386%)" offset="0.945313"/><stop stop-opacity="1" stop-color="rgb(95.272827%, 72.3526%, 7.641602%)" offset="0.953125"/><stop stop-opacity="1" stop-color="rgb(95.478821%, 72.674561%, 7.624817%)" offset="0.960938"/><stop stop-opacity="1" stop-color="rgb(95.683289%, 72.996521%, 7.608032%)" offset="0.96875"/><stop stop-opacity="1" stop-color="rgb(95.889282%, 73.320007%, 7.591248%)" offset="0.976562"/><stop stop-opacity="1" stop-color="rgb(96.09375%, 73.641968%, 7.574463%)" offset="0.984375"/><stop stop-opacity="1" stop-color="rgb(96.299744%, 73.963928%, 7.557678%)" offset="0.992188"/><stop stop-opacity="1" stop-color="rgb(96.505737%, 74.285889%, 7.540894%)" offset="0.999877"/><stop stop-opacity="1" stop-color="rgb(96.607971%, 74.447632%, 7.533264%)" offset="1"/></linearGradient><clipPath id="a825ba31c9"><rect x="0" width="530" y="0" height="530"/></clipPath></defs><g transform="matrix(1, 0, 0, 1, 13, 18)"><g clip-path="url(#a825ba31c9)"><g clip-path="url(#9c90e556ac)"><g clip-path="url(#3dfeefe025)"><path fill="url(#eebc0f5cdf)" d="M 0.183594 529.4375 L 0.183594 0.316406 L 529.316406 0.316406 L 529.316406 529.4375 Z M 0.183594 529.4375 " fill-rule="nonzero"/></g></g><g clip-path="url(#be2c5904de)"><g clip-path="url(#3841b08aec)"><path fill="url(#369be9e886)" d="M 135.316406 380.804688 L 135.316406 164.875 L 405.585938 164.875 L 405.585938 380.804688 Z M 135.316406 380.804688 " fill-rule="nonzero"/></g></g></g></g></svg>